{
.appVersion = "3337";
.formatVersion = 3;
DisplayStrings = (
"›",
"»"
);
axes = (
{
name = Weight;
tag = wght;
}
);
customParameters = (
{
name = "Name Table Entry";
value = "13; This Font Software is licensed under the SIL Open Font License, Version 1.1. This license is available with a FAQ at: https://openfontlicense.org";
},
{
name = fsType;
value = (
);
},
{
name = "Use Typo Metrics";
value = 1;
},
{
name = "Use Extension Kerning";
value = 1;
}
);
date = "2025-01-04 17:23:21 +0000";
familyName = "Epunda Sans";
featurePrefixes = (
{
automatic = 1;
code = "languagesystem DFLT dflt;

languagesystem latn dflt;
languagesystem latn AZE;
languagesystem latn CRT;
languagesystem latn KAZ;
languagesystem latn TAT;
languagesystem latn TRK;
languagesystem latn ROM;
languagesystem latn MOL;
languagesystem latn MAH;
languagesystem latn NLD;
";
name = Languagesystems;
}
);
features = (
{
automatic = 1;
code = "feature locl;
feature subs;
feature sinf;
feature sups;
feature numr;
feature dnom;
feature frac;
feature ordn;
feature lnum;
feature pnum;
feature tnum;
feature onum;
feature case;
feature fwid;
feature salt;
";
tag = aalt;
},
{
automatic = 1;
code = "lookup ccmp_Other_1 {
	@CombiningTopAccents = [acutecomb brevecomb caroncomb circumflexcomb commaturnedabovecomb dieresiscomb dotaccentcomb gravecomb hungarumlautcomb macroncomb ringcomb tildecomb];
	lookupflag UseMarkFilteringSet @CombiningTopAccents;
	sub i' @CombiningTopAccents by idotless;
	sub j' @CombiningTopAccents by jdotless;
} ccmp_Other_1;

lookup ccmp_latn_1 {
	lookupflag 0;
	sub fi by f i;
	sub fl by f l;
} ccmp_latn_1;

script latn;
lookup ccmp_latn_1;
";
tag = ccmp;
},
{
automatic = 1;
code = "script latn;
language AZE;
lookup locl_latn_0 {
	sub i by idotaccent;
} locl_latn_0;
language CRT;
lookup locl_latn_0;
language KAZ;
lookup locl_latn_0;
language TAT;
lookup locl_latn_0;
language TRK;
lookup locl_latn_0;

script latn;
language ROM;
lookup locl_latn_1 {
	sub Scedilla by Scommaaccent;

glyphs = (
{
glyphname = A;
kernLeft = KO_A;
kernRight = KO_A;
lastChange = "2024-12-31 15:25:10 +0000";
layers = (
{
anchors = (
{
name = bottom;
pos = (216,0);
},
{
name = ogonek;
pos = (460,0);
},
{
name = top;
pos = (358,667);
}
);
layerId = m003;
shapes = (
{
closed = 1;
nodes = (
(339,628,l),
(398,0,l),
(470,0,l),
(396,667,l),
(320,667,l),
(-38,0,l),
(34,0,l),
(359,628,l)
);
},
{
closed = 1;
nodes = (
(93,158,l),
(405,158,l),
(418,218,l),
(106,218,l)
);
}
);
width = 538;
},
{
anchors = (
{
name = bottom;
pos = (237,0);
},
{
name = ogonek;
pos = (471,10);
},
{
name = top;
pos = (377,657);
}
);
layerId = m004;
shapes = (
{
closed = 1;
nodes = (
(329,667,l),
(340,0,l),
(527,0,l),
(469,667,l),
(289,667,l),
(-53,0,l),
(134,0,l),
(429,667,l)
);
},
{
closed = 1;
nodes = (
(102,98,l),
(414,98,l),
(439,218,l),
(127,218,l)
);
}
);
width = 580;
}
);
unicode = 65;
userData = {
KernOnName = A;
};
},
{
glyphname = AE;
kernLeft = KO_AE;
kernRight = KO_E;
lastChange = "2022-10-21 19:55:41 +0000";
layers = (
{
anchors = (
{
name = bottom;
pos = (383,0);
},
{
name = top;
pos = (525,667);
}
);
layerId = m003;
shapes = (
{
closed = 1;
nodes = (
(544,628,l),
(398,0,l),
(470,0,l),
(612,667,l),
(536,667,l),
(-38,0,l),
(44,0,l),
(574,628,l)
);
},
{
closed = 1;
nodes = (
(145,158,l),
(457,158,l),
(488,218,l),
(176,218,l)
);
},
{
closed = 1;
nodes = (
(398,0,l),
(777,0,l),
(790,60,l),
(474,60,l),
(529,320,l),
(796,320,l),
(809,380,l),
(542,380,l),
(590,607,l),
(907,607,l),
(920,667,l),
(540,667,l)
);
}
);
width = 872;
},
{
anchors = (
{
name = bottom;
pos = (471,0);
},
{
name = top;
pos = (613,667);
}
);
layerId = m004;
shapes = (
{
closed = 1;
nodes = (
(529,667,l),
(370,0,l),
(527,0,l),
(669,667,l),
(489,667,l),
(-53,0,l),
(134,0,l),
(629,667,l)
);
},
{
closed = 1;
nodes = (
(131,98,l),
(443,98,l),
(504,218,l),
(192,218,l)
);
},
{
closed = 1;
nodes = (
(371,0,l),
(830,0,l),
(860,140,l),
(584,140,l),
(610,265,l),
(837,265,l),
(867,405,l),
(640,405,l),
(666,527,l),
(943,527,l),
(973,667,l),
(513,667,l)
);
}
);
width = 907;
}
);
metricLeft = "=A";
metricRight = "=E";
unicode = 198;
},
{
glyphname = B;
kernLeft = KO_H;
kernRight = KO_B;
lastChange = "2024-12-31 15:21:34 +0000";
layers = (
{
anchors = (
{
name = bottom;
pos = (219,0);
},
{
name = center;
pos = (290,334);
},
{
name = top;
pos = (361,667);
}
);
layerId = m003;
shapes = (
{
closed = 1;
nodes = (
(105,60,l),
(160,320,l),
(282,320,ls),
(404,320,o),
(456,279,o),
(437,191,cs),
(419,103,o),
(349,60,o),
(227,60,c)
);
},
{
closed = 1;
nodes = (
(451,616,o),
(495,577,o),
(478,498,cs),
(461,419,o),
(401,380,o),
(295,380,cs),
(173,380,l),
(222,613,l),
(222,613,o),
(270,616,o),
(345,616,cs)
);
},
{
closed = 1;
nodes = (
(384,0,o),
(482,63,o),
(509,191,cs),
(526,269,o),
(489,331,o),
(414,352,c),
(480,378,o),
(531,434,o),
(545,498,cs),
(569,612,o),
(502,676,o),
(358,676,cs),
(253,676,o),
(170,666,o),
(170,666,c),
(29,0,l),
(214,0,l)
);
}
);
width = 543;
},
{
anchors = (
{
name = bottom;
pos = (235,0);
},
{
name = center;
pos = (306,334);
},
{
name = top;
pos = (377,667);
}
);
layerId = m004;
shapes = (
{
closed = 1;
nodes = (
(200,120,l),
(237,290,l),
(279,290,ls),
(321,290,o),
(379,279,o),
(364,206,cs),
(348,133,o),
(284,120,o),
(242,120,c)
);
},
{
closed = 1;
nodes = (
(361,556,o),
(412,552,o),
(398,483,cs),
(383,414,o),
(330,410,o),
(304,410,cs),
(262,410,l),
(292,553,l),
(292,553,o),
(292,556,o),
(335,556,cs)
);
},
{
closed = 1;
nodes = (
(427,0,o),
(525,63,o),
(552,191,cs),
(569,269,o),
(532,331,o),
(457,352,c),
(523,378,o),
(574,434,o),
(588,498,cs),
(612,612,o),
(545,676,o),
(401,676,cs),
(256,676,o),
(133,666,o),
(133,666,c),
(-8,0,l),
(257,0,l)
);
}
);
width = 576;
}
);
metricLeft = "=H";
metricRight = "=H/4";
unicode = 66;
userData = {
KernOnName = B;
};
},
{
glyphname = C;
kernLeft = KO_O;
kernRight = KO_C;
lastChange = "2024-12-31 15:21:32 +0000";
layers = (
{
anchors = (
{
name = bottom;
pos = (278,0);
},
{
name = top;
pos = (420,667);
}
);
layerId = m003;
shapes = (
{
closed = 1;
nodes = (
(459,614,o),
(502,596,o),
(543,576,c),
(583,628,l),
(539,654,o),
(486,674,o),
(421,674,cs),
(216,674,o),
(101,512,o),
(62,332,c),
(134,332,l),
(168,489,o),
(253,614,o),
(408,614,cs)
);
},
{
closed = 1;
nodes = (
(133,50,o),
(101,175,o),
(134,332,c),
(62,332,l),
(24,152,o),
(71,-10,o),
(276,-10,cs),
(341,-10,o),
(402,10,o),
(458,36,c),
(440,88,l),
(389,68,o),
(339,50,o),
(288,50,cs)
);
}
);
width = 528;
},
{
anchors = (
{
name = bottom;
pos = (288,0);
},
{
name = top;
pos = (430,667);
}
);
layerId = m004;
shapes = (
{
closed = 1;
nodes = (
(475,556,o),
(524,545,o),
(581,518,c),
(634,630,l),
(588,651,o),
(524,676,o),
(432,676,c),
(187,676,o),
(71,514,o),
(33,334,c),
(225,334,l),
(246,434,o),
(291,556,o),
(406,556,cs)
);
},
{
closed = 1;
nodes = (
(197,112,o),
(204,234,o),
(225,334,c),
(33,334,l),
(-5,154,o),
(41,-9,o),
(286,-9,cs),
(378,-9,o),
(453,17,o),
(508,38,c),
(503,150,l),
(434,123,o),
(381,112,o),
(312,112,cs)
);
}
);
width = 553;
}
);
metricLeft = "=O";
unicode = 67;
userData = {
KernOnName = C;
};
},
{
glyphname = D;
kernLeft = KO_H;
kernRight = KO_O;
lastChange = "2024-12-31 15:21:32 +0000";
layers = (
{
anchors = (
{
name = bottom;
pos = (213,0);
},
{
name = center;
pos = (166,350);
},
{
name = top;
pos = (355,667);
}
);
layerId = m003;
shapes = (
{
closed = 1;
nodes = (
(224,0,l),
(429,0,o),
(547,156,o),
(585,336,cs),
(624,516,o),
(573,676,o),
(358,676,c),
(253,676,o),
(171,667,o),
(171,667,c),
(29,0,l)
);
},
{
closed = 1;
nodes = (
(222,612,l),
(222,612,o),
(270,616,o),
(345,616,cs),
(510,616,o),
(547,493,o),
(513,336,cs),
(480,179,o),
(392,60,o),
(237,60,cs),
(177,60,o),
(105,60,o),
(105,60,c)
);
}
);
width = 612;
},
{
anchors = (
{
name = bottom;
pos = (227,0);
},
{
name = center;
pos = (170,350);
},
{
name = top;
pos = (359,667);
}
);
layerId = m004;
shapes = (
{
closed = 1;
nodes = (
(227,0,l),
(472,0,o),
(590,156,o),
(628,336,cs),
(667,516,o),
(616,676,o),
(361,676,c),
(216,676,o),
(134,667,o),
(134,667,c),
(-8,0,l)
);
},
{
closed = 1;
nodes = (
(303,555,l),
(303,555,o),
(310,556,o),
(335,556,cs),
(420,556,o),
(470,493,o),
(436,336,cs),
(403,179,o),
(327,120,o),
(252,120,cs),
(242,120,o),
(210,120,o),
(210,120,c)
);
}
);
width = 625;
}
);
metricLeft = "=H";
metricRight = "=O";
unicode = 68;
userData = {
KernOnName = D;
};
},
{
glyphname = E;
kernLeft = KO_H;
kernRight = KO_E;
lastChange = "2025-01-04 17:24:19 +0000";
layers = (
{
anchors = (
{
name = bottom;
pos = (308,0);
},
{
name = ogonek;
pos = (408,0);
},
{
name = top;
pos = (443,637);
},
{
name = topleft;
pos = (191,637);
}
);
layerId = m003;
shapes = (
{
closed = 1;
nodes = (
(29,0,l),
(408,0,l),
(421,60,l),
(105,60,l),
(160,320,l),
(417,320,l),
(440,380,l),
(173,380,l),
(221,607,l),
(538,607,l),
(551,667,l),
(171,667,l)
);
}
);
width = 503;
},
{
anchors = (
{
name = bottom;
pos = (211,0);
},
{
name = ogonek;
pos = (451,0);
},
{
name = top;
pos = (353,657);
},
{
name = topleft;
pos = (109,667);
}
);
layerId = m004;
shapes = (
{
closed = 1;
nodes = (
(-8,0,l),
(451,0,l),
(481,140,l),
(205,140,l),
(232,265,l),
(439,265,l),
(488,405,l),
(261,405,l),
(287,527,l),
(564,527,l),
(594,667,l),
(134,667,l)
);
}
);
width = 528;
}
);
metricLeft = "=H";
metricRight = "=H/2";
unicode = 69;
userData = {
KernOnName = E;
};
},
{
glyphname = Schwa;
kernRight = KO_O;
lastChange = "2022-10-23 18:53:04 +0000";
layers = (
{
layerId = m003;
shapes = (
{
closed = 1;
nodes = (
(410,616,l),
(565,616,o),
(599,491,o),
(565,334,cs),
(532,177,o),
(445,50,o),
(290,50,cs),
(135,50,o),
(102,177,o),
(135,334,c),
(63,334,l),
(25,154,o),
(72,-10,o),
(277,-10,cs),
(482,-10,o),
(599,154,o),
(637,334,cs),
(675,514,o),
(628,676,o),
(423,676,c)
);
},
{
closed = 1;
nodes = (
(423,676,l),
(358,676,o),
(297,656,o),
(241,630,c),
(259,578,l),
(309,598,o),
(359,616,o),
(410,616,c)
);
},
{
closed = 1;
nodes = (
(63,334,l),
(91,320,l),
(575,320,l),
(588,380,l),
(73,380,l)
);
}
);
width = 664;
},
{
layerId = m004;
shapes = (
{
closed = 1;
nodes = (
(407,556,l),
(522,556,o),
(516,434,o),
(495,334,cs),
(474,234,o),
(428,110,o),
(313,110,cs),
(198,110,o),
(204,234,o),
(225,334,c),
(33,334,l),
(-5,154,o),
(41,-10,o),
(287,-10,cs),
(532,-10,o),
(649,154,o),
(687,334,cs),
(725,514,o),
(678,676,o),
(433,676,c)
);
},
{
closed = 1;
nodes = (
(433,676,l),
(341,676,o),
(266,651,o),
(211,630,c),
(216,518,l),
(285,545,o),
(338,556,o),
(407,556,c)
);
},
{
closed = 1;
nodes = (
(33,334,l),
(99,280,l),
(558,280,l),
(587,420,l),
(51,420,l)
);
}
);
width = 684;
}
);
metricLeft = "=O";
metricRight = "=O";
unicode = 399;
},
{
glyphname = Ezh;
lastChange = "2024-04-20 20:08:35 +0000";
layers = (
{
anchors = (
{
name = bottom;
pos = (158,-10);
},
{
name = top;
pos = (316,637);
}
);
layerId = m003;
shapes = (
{
closed = 1;
nodes = (
(131,607,l),
(462,607,l),
(488,667,l),
(144,667,l)
);
},
{
closed = 1;
nodes = (
(170,50,l),
(119,50,o),
(77,68,o),
(36,88,c),
(-4,36,l),
(40,10,o),
(93,-10,o),
(158,-10,c)
);
},
{
closed = 1;
nodes = (
(318,-10,o),
(410,77,o),
(435,194,cs),
(458,300,o),
(401,380,o),
(241,380,c),
(174,380,l),
(162,324,l),
(331,324,o),
(384,292,o),
(363,194,cs),
(344,106,o),
(272,50,o),
(170,50,c),
(158,-10,l)
);
},
{
closed = 1;
nodes = (
(487,607,l),
(500,667,l),
(458,667,l),
(174,380,l),
(220,350,l)
);
}
);
width = 468;
},
{
anchors = (
{
name = bottom;
pos = (140,-10);
},
{
name = top;
pos = (327,657);
}
);
layerId = m004;
shapes = (
{
closed = 1;
nodes = (
(102,547,l),
(498,547,l),
(523,667,l),
(127,667,l)
);
},
{
closed = 1;
nodes = (
(166,110,l),
(115,110,o),
(73,128,o),
(31,148,c),
(-22,36,l),
(22,10,o),
(75,-10,o),
(140,-10,c)
);
},
{
closed = 1;
nodes = (
(340,-10,o),
(433,77,o),
(458,194,cs),
(480,300,o),
(430,410,o),
(250,410,c),
(98,410,l),
(73,295,l),
(251,295,o),
(278,252,o),
(266,194,cs),
(253,136,o),
(212,110,o),
(166,110,c),
(140,-10,l)
);
},
{
closed = 1;
nodes = (
(498,547,l),
(518,667,l),
(461,667,l),
(98,410,l),
(244,380,l)
);
}
);
width = 481;
}
);
metricLeft = "=B/2";
metricRight = "=B";
unicode = 439;
},
{
glyphname = F;
kernLeft = KO_H;
kernRight = KO_F;
lastChange = "2024-12-31 15:21:34 +0000";
layers = (
{
anchors = (
{
name = bottom;
pos = (278,0);
},
{
name = top;
pos = (420,667);
}
);
layerId = m003;
shapes = (
{
closed = 1;
nodes = (
(29,0,l),
(92,0,l),
(156,300,l),
(413,300,l),
(436,360,l),
(169,360,l),
(221,607,l),
(538,607,l),
(551,667,l),
(171,667,l)
);
}
);
width = 483;
},
{
anchors = (
{
name = bottom;
pos = (300,0);
},
{
name = top;
pos = (442,667);
}
);
layerId = m004;
shapes = (
{
closed = 1;
nodes = (
(-8,0,l),
(175,0,l),
(228,250,l),
(435,250,l),
(485,390,l),
(258,390,l),
(287,527,l),
(564,527,l),
(594,667,l),
(134,667,l)
);
}
);
width = 516;
}
);
metricLeft = "=H";
metricRight = "=H/4";
unicode = 70;
userData = {
KernOnName = F;
};
},
{
glyphname = G;
kernLeft = KO_O;
kernRight = KO_G;
lastChange = "2024-12-31 15:21:34 +0000";
layers = (
{
anchors = (
{
name = bottom;
pos = (277,0);
},
{
name = top;
pos = (419,667);
}
);
layerId = m003;
shapes = (
{
closed = 1;
nodes = (
(460,616,o),
(502,598,o),
(544,578,c),
(584,630,l),
(540,656,o),
(487,676,o),
(422,676,cs),
(217,676,o),
(101,514,o),
(63,334,cs),
(25,154,o),
(71,-10,o),
(276,-10,cs),
(377,-10,o),
(475,37,o),
(475,37,c),
(419,69,l),
(373,56,o),
(332,50,o),
(289,50,cs),
(134,50,o),
(102,177,o),
(135,334,cs),
(169,491,o),
(254,616,o),
(409,616,cs)
);
},
{
closed = 1;
nodes = (
(475,37,l),
(546,370,l),
(483,370,l),
(419,69,l)
);
},
{
closed = 1;
nodes = (
(312,320,l),
(535,320,l),
(548,380,l),
(325,380,l)
);
}
);
width = 602;
},
{
anchors = (
{
name = bottom;
pos = (288,0);
},
{
name = top;
pos = (430,667);
}
);
layerId = m004;
shapes = (
{
closed = 1;
nodes = (
(475,556,o),
(524,545,o),
(581,518,c),
(634,630,l),
(589,651,o),
(524,676,o),
(432,676,cs),
(187,676,o),
(71,514,o),
(33,334,cs),
(-5,154,o),
(41,-10,o),
(286,-10,cs),
(427,-10,o),
(525,37,o),
(525,37,c),
(446,149,l),
(401,136,o),
(359,120,o),
(314,120,cs),
(199,120,o),
(204,234,o),
(225,334,cs),
(246,434,o),
(291,556,o),
(406,556,cs)
);
},
{
closed = 1;
nodes = (
(525,37,l),
(601,393,l),
(418,393,l),
(353,89,l)
);
},
{
closed = 1;
nodes = (
(306,293,l),
(579,293,l),
(605,413,l),
(332,413,l)
);
}
);
width = 616;
}
);
metricLeft = "=O";
metricRight = "=H";
unicode = 71;
userData = {
KernOnName = G;
};
},
{
glyphname = Gstroke;
kernLeft = KO_O;
lastChange = "2022-10-23 20:09:31 +0000";
layers = (
{
anchors = (
{
name = bottom;
pos = (277,0);
},
{
name = top;
pos = (419,667);
}
);
layerId = m003;
shapes = (
{
closed = 1;
nodes = (
(460,616,o),
(502,598,o),
(544,578,c),
(584,630,l),
(539,656,o),
(487,676,o),
(422,676,cs),
(217,676,o),
(101,514,o),
(63,334,cs),
(25,154,o),
(71,-10,o),
(276,-10,cs),
(377,-10,o),
(475,37,o),
(475,37,c),
(419,69,l),
(373,56,o),
(331,50,o),
(288,50,cs),
(133,50,o),
(101,177,o),
(135,334,cs),
(168,491,o),
(254,616,o),
(409,616,cs)
);
},
{
closed = 1;
nodes = (
(475,37,l),
(548,380,l),
(485,380,l),
(419,69,l)
);
},
{
closed = 1;
nodes = (
(574,220,l),
(586,280,l),
(337,280,l),
(325,220,l)
);
}
);
width = 580;
},
{
anchors = (
{
name = bottom;
pos = (288,0);
},
{
name = top;
pos = (430,667);
}
);
layerId = m004;
shapes = (
{
closed = 1;
nodes = (
(475,556,o),
(524,545,o),
(581,518,c),
(634,630,l),
(588,651,o),
(524,676,o),
(432,676,cs),
(187,676,o),
(71,514,o),
(33,334,cs),
(-5,154,o),
(41,-10,o),
(286,-10,cs),
(427,-10,o),
(525,37,o),
(525,37,c),
(446,149,l),
(401,136,o),
(358,120,o),
(313,120,cs),
(198,120,o),
(204,234,o),
(225,334,cs),
(246,434,o),
(291,556,o),
(406,556,cs)
);
},
{
closed = 1;
nodes = (
(525,37,l),
(605,413,l),
(422,413,l),
(353,89,l)
);
},
{
closed = 1;
nodes = (
(631,210,l),
(657,330,l),
(334,330,l),
(308,210,l)
);
}
);
width = 633;
}
);
metricLeft = "=O";
unicode = 484;
},
{
glyphname = H;
kernLeft = KO_H;
kernRight = KO_H;
lastChange = "2024-12-31 15:21:32 +0000";
layers = (
{
anchors = (
{
name = bottom;
pos = (256,0);
},
{
name = center;
pos = (327,334);
},
{
name = top;
pos = (392,637);
},
{
name = topleft;
pos = (109,667);
}
);
layerId = m003;
shapes = (
{
closed = 1;
nodes = (
(420,0,l),
(483,0,l),
(625,667,l),
(562,667,l),
(501,380,l),
(173,380,l),
(234,667,l),
(171,667,l),
(29,0,l),
(92,0,l),
(160,320,l),
(488,320,l)
);
}
);
width = 618;
},
{
anchors = (
{
name = bottom;
pos = (254,0);
},
{
name = center;
pos = (325,334);
},
{
name = top;
pos = (394,657);
},
{
name = topleft;
pos = (107,657);
}
);
layerId = m004;
shapes = (
{
closed = 1;
nodes = (
(333,0,l),
(516,0,l),
(658,667,l),
(475,667,l),
(422,420,l),
(264,420,l),
(317,667,l),
(134,667,l),
(-8,0,l),
(175,0,l),
(235,280,l),
(393,280,l)
);
}
);
width = 614;
}
);
unicode = 72;
userData = {
KernOnName = H;
};
},
{
glyphname = Hbar;
lastChange = "2022-10-23 18:23:06 +0000";
layers = (
{
anchors = (
{
name = bottom;
pos = (238,0);
},
{
name = center;
pos = (309,334);
},
{
name = top;
pos = (374,637);
},
{
name = topleft;
pos = (91,667);
}
);
layerId = m003;
shapes = (
{
closed = 1;
nodes = (
(420,0,l),
(483,0,l),
(625,667,l),
(562,667,l),
(501,380,l),
(173,380,l),
(234,667,l),
(171,667,l),
(29,0,l),
(92,0,l),
(160,320,l),
(488,320,l)
);
},
{
closed = 1;
nodes = (
(670,494,l),
(683,554,l),
(65,554,l),
(52,494,l)
);
}
);
width = 618;
},
{
anchors = (
{
name = bottom;
pos = (236,0);
},
{
name = center;
pos = (307,334);
},
{
name = top;
pos = (376,657);
},
{
name = topleft;
pos = (89,657);
}
);
layerId = m004;
shapes = (
{
closed = 1;
nodes = (
(333,0,l),
(516,0,l),
(658,667,l),
(475,667,l),
(422,420,l),
(264,420,l),
(317,667,l),
(134,667,l),
(-8,0,l),
(175,0,l),
(234,280,l),
(392,280,l)
);
},
{
closed = 1;
nodes = (
(668,484,l),
(693,604,l),
(75,604,l),
(50,484,l)
);
}
);
width = 614;
}
);
unicode = 294;
},
{
glyphname = I;
kernLeft = KO_H;
kernRight = KO_H;
lastChange = "2024-12-31 15:21:32 +0000";
layers = (
{
anchors = (
{
name = bottom;
pos = (61,0);
},
{
name = ogonek;
pos = (92,0);
},
{
name = top;
pos = (196,637);
},
{
name = topleft;
pos = (102,637);
}
);
layerId = m003;
shapes = (
{
closed = 1;
nodes = (
(92,0,l),
(234,667,l),
(171,667,l),
(29,0,l)
);
}
);
width = 227;
},
{
anchors = (
{
name = bottom;
pos = (83,0);
},
{
name = ogonek;
pos = (174,0);
},
{
name = top;
pos = (223,657);
},
{
name = topleft;
pos = (107,657);
}
);
layerId = m004;
shapes = (
{
closed = 1;
nodes = (
(174,0,l),
(316,667,l),
(134,667,l),
(-8,0,l)
);
}
);
width = 272;
}
);
metricLeft = "=H";
metricRight = "=|";
unicode = 73;
userData = {
KernOnName = I;
};
},
{
glyphname = J;
kernLeft = KO_J;
kernRight = KO_J;
lastChange = "2024-12-31 15:21:34 +0000";
layers = (
{
anchors = (
{
name = bottom;
pos = (89,0);
},
{
name = top;
pos = (388,637);
}
);
layerId = m003;
shapes = (
{
closed = 1;
nodes = (
(426,667,l),
(364,667,l),
(266,208,ls),
(248,123,o),
(193,47,o),
(99,47,cs),
(45,47,o),
(18,62,o),
(-7,83,c),
(-43,41,l),
(-12,8,o),
(28,-8,o),
(87,-8,cs),
(234,-8,o),
(304,95,o),
(332,224,cs)
);
}
);
width = 420;
},
{
anchors = (
{
name = bottom;
pos = (161,0);
},
{
name = top;
pos = (395,657);
}
);
layerId = m004;
shapes = (
{
closed = 1;
nodes = (
(488,667,l),
(306,667,l),
(208,208,ls),
(196,153,o),
(187,107,o),
(114,107,cs),
(67,107,o),
(11,123,o),
(-13,143,c),
(-61,41,l),
(-35,14,o),
(39,-8,o),
(109,-8,cs),
(296,-8,o),
(366,95,o),
(394,224,cs)
);
}
);
width = 445;
}
);
metricRight = "=H";
unicode = 74;
userData = {
KernOnName = J;
};
},
{
glyphname = K;
kernLeft = KO_H;
kernRight = KO_K;
lastChange = "2024-12-31 15:21:34 +0000";
layers = (
{
anchors = (
{
name = bottom;
pos = (224,0);
},
{
name = top;
pos = (364,657);
}
);
layerId = m003;
shapes = (
{
closed = 1;
nodes = (
(401,0,l),
(479,0,l),
(297,380,l),
(222,380,l)
);
},
{
closed = 1;
nodes = (
(233,666,l),
(171,666,l),
(29,0,l),
(91,0,l)
);
},
{
closed = 1;
nodes = (
(104,208,l),
(611,667,l),
(526,667,l),
(124,300,l)
);
}
);
width = 553;
},
{
anchors = (
{
name = bottom;
pos = (240,0);
},
{
name = top;
pos = (380,657);
}
);
layerId = m004;
shapes = (
{
closed = 1;
nodes = (
(317,0,l),
(522,0,l),
(403,420,l),
(221,420,l)
);
},
{
closed = 1;
nodes = (
(316,666,l),
(134,666,l),
(-8,0,l),
(174,0,l)
);
},
{
closed = 1;
nodes = (
(207,158,l),
(654,667,l),
(449,667,l),
(158,305,l)
);
}
);
width = 586;
}
);
metricLeft = "=H";
metricRight = "=H/4";
unicode = 75;
userData = {
KernOnName = K;
};
},
{
glyphname = L;
kernLeft = KO_H;
kernRight = KO_L;
lastChange = "2024-12-31 16:04:48 +0000";
layers = (
{
anchors = (
{
name = bottom;
pos = (171,0);
},
{
name = center;
pos = (242,334);
},
{
name = top;
pos = (306,637);
},
{
name = topright;
pos = (454,667);
}
);
layerId = m003;
shapes = (
{
closed = 1;
nodes = (
(234,667,l),
(171,667,l),
(29,0,l),
(92,0,l)
);
},
{
closed = 1;
nodes = (
(379,0,l),
(392,60,l),
(42,60,l),
(29,0,l)
);
}
);
width = 432;
},
{
anchors = (
{
name = bottom;
pos = (185,0);
},
{
name = center;
pos = (256,334);
},
{
name = top;
pos = (325,657);
},
{
name = topright;
pos = (378,667);
}
);
layerId = m004;
shapes = (
{
closed = 1;
nodes = (
(317,667,l),
(134,667,l),
(-8,0,l),
(175,0,l)
);
},
{
closed = 1;
nodes = (
(422,0,l),
(447,120,l),
(17,120,l),
(-8,0,l)
);
}
);
width = 475;
}
);
metricLeft = "=H";
unicode = 76;
userData = {
KernOnName = L;
};
},
{
glyphname = Lslash;
kernRight = KO_L;
lastChange = "2022-10-23 18:10:52 +0000";
layers = (
{
anchors = (
{
name = bottom;
pos = (171,0);
},
{
name = center;
pos = (242,334);
},
{
name = top;
pos = (306,637);
},
{
name = topright;
pos = (509,637);
}
);
layerId = m003;
shapes = (
{
closed = 1;
nodes = (
(234,667,l),
(171,667,l),
(29,0,l),
(92,0,l)
);
},
{
closed = 1;
nodes = (
(379,0,l),
(392,60,l),
(42,60,l),
(29,0,l)
);
},
{
closed = 1;
nodes = (
(5,312,l),
(22,264,l),
(265,389,l),
(247,436,l)
);
}
);
width = 429;
},
{
anchors = (
{
name = bottom;
pos = (185,0);
},
{
name = center;
pos = (256,334);
},
{
name = top;
pos = (325,657);
},
{
name = topright;
pos = (542,657);
}
);
layerId = m004;
shapes = (
{
closed = 1;
nodes = (
(317,667,l),
(134,667,l),
(-8,0,l),
(175,0,l)
);
},
{
closed = 1;
nodes = (
(422,0,l),
(447,120,l),
(17,120,l),
(-8,0,l)
);
},
{
closed = 1;
nodes = (
(-41,310,l),
(-4,205,l),
(357,391,l),
(319,495,l)
);
}
);
width = 475;
}
);
unicode = 321;
},
{
glyphname = M;
kernLeft = KO_M;
kernRight = KO_M;
lastChange = "2024-12-31 15:21:34 +0000";
layers = (
{
anchors = (
{
name = bottom;
pos = (341,0);
},
{
name = top;
pos = (483,667);
}
);
layerId = m003;
shapes = (
{
closed = 1;
nodes = (
(307,0,l),
(365,0,l),
(321,667,l),
(235,667,l),
(-3,0,l),
(64,0,l),
(268,598,l)
);
},
{
closed = 1;
nodes = (
(617,0,l),
(685,0,l),
(731,667,l),
(645,667,l),
(317,0,l),
(374,0,l),
(668,598,l)
);
}
);
width = 788;
},
{
anchors = (
{
name = bottom;
pos = (347,0);
},
{
name = top;
pos = (489,667);
}
);
layerId = m004;
shapes = (
{
closed = 1;
nodes = (
(262,0,l),
(402,0,l),
(409,667,l),
(189,667,l),
(-37,0,l),
(163,0,l),
(277,400,l)
);
},
{
closed = 1;
nodes = (
(531,0,l),
(731,0,l),
(789,667,l),
(569,667,l),
(292,0,l),
(432,0,l),
(587,400,l)
);
}
);
width = 800;
}
);
unicode = 77;
userData = {
KernOnName = M;
};
},
{
glyphname = N;
kernLeft = KO_H;
kernRight = KO_H;
lastChange = "2024-12-31 15:21:34 +0000";
layers = (
{
anchors = (
{
name = bottom;
pos = (256,0);
},
{
name = top;
pos = (391,637);
}
);
layerId = m003;
shapes = (
{
closed = 1;
nodes = (
(400,0,l),
(483,0,l),
(624,666,l),
(561,666,l),
(440,95,l),
(254,667,l),
(170,666,l),
(29,0,l),
(92,0,l),
(213,572,l)
);
}
);
width = 618;
},
{
anchors = (
{
name = bottom;
pos = (257,0);
},
{
name = top;
pos = (397,657);
}
);
layerId = m004;
shapes = (
{
closed = 1;
nodes = (
(367,0,l),
(522,0,l),
(663,666,l),
(508,666,l),
(432,305,l),
(289,667,l),
(133,666,l),
(-8,0,l),
(147,0,l),
(223,360,l)
);
}
);
width = 620;
}
);
metricLeft = "=H";
metricRight = "=H";
unicode = 78;
userData = {
KernOnName = N;
};
},
{
glyphname = Eng;
kernLeft = KO_H;
kernRight = KO_H;
lastChange = "2022-10-23 19:17:53 +0000";
layers = (
{
anchors = (
{
name = bottom;
pos = (244,0);
},
{
name = top;
pos = (379,637);
}
);
layerId = m003;
shapes = (
{
closed = 1;
nodes = (
(400,0,l),
(483,0,l),
(624,666,l),
(561,666,l),
(440,95,l),
(254,667,l),
(170,666,l),
(29,0,l),
(92,0,l),
(213,572,l)
);
},
{
closed = 1;
nodes = (
(400,0,l),
(419,-83,o),
(355,-153,o),
(275,-153,c),
(264,-208,l),
(376,-208,o),
(454,-134,o),
(482,-2,cs),
(498,70,l)
);
}
);
width = 618;
},
{
anchors = (
{
name = bottom;
pos = (257,0);
},
{
name = top;
pos = (397,657);
}
);
layerId = m004;
shapes = (
{
closed = 1;
nodes = (
(367,0,l),
(522,0,l),
(663,666,l),
(508,666,l),
(432,305,l),
(289,667,l),
(133,666,l),
(-8,0,l),
(147,0,l),
(223,360,l)
);
},
{
closed = 1;
nodes = (
(367,0,l),
(353,-63,o),
(322,-93,o),
(257,-93,c),
(233,-208,l),
(375,-208,o),
(493,-134,o),
(521,-2,cs),
(537,70,l)
);
}
);
width = 620;
}
);
metricLeft = "=H";
metricRight = "=H";
unicode = 330;
},
{
glyphname = O;
kernLeft = KO_O;
kernRight = KO_O;
lastChange = "2024-12-31 15:21:34 +0000";
layers = (
{
anchors = (
{
name = bottom;
pos = (279,0);
},
{
name = center;
pos = (350,334);
},
{
name = ogonek;
pos = (547,10);
},
{
name = top;
pos = (414,637);
},
{
name = topleft;
pos = (102,637);
},
{
name = topright;
pos = (718,597);
}
);
layerId = m003;
shapes = (
{
closed = 1;
nodes = (
(482,-10,o),
(599,154,o),
(637,334,cs),
(675,514,o),
(628,676,o),
(423,676,c),
(218,676,o),
(101,514,o),
(63,334,cs),
(25,154,o),
(72,-10,o),
(277,-10,cs)
);
},
{
closed = 1;
nodes = (
(134,50,o),
(101,177,o),
(135,334,cs),
(168,491,o),
(255,616,o),
(410,616,cs),
(565,616,o),
(598,491,o),
(565,334,cs),
(531,177,o),
(444,50,o),
(289,50,cs)
);
}
);
width = 664;
},
{
anchors = (
{
name = bottom;
pos = (289,0);
},
{
name = center;
pos = (360,334);
},
{
name = ogonek;
pos = (565,10);
},
{
name = top;
pos = (429,657);
},
{
name = topleft;
pos = (107,657);
},
{
name = topright;
pos = (751,657);
}
);
layerId = m004;
shapes = (
{
closed = 1;
nodes = (
(532,-10,o),
(649,154,o),
(687,334,cs),
(725,514,o),
(678,676,o),
(433,676,cs),
(187,676,o),
(71,514,o),
(33,334,cs),
(-5,154,o),
(41,-10,o),
(287,-10,cs)
);
},
{
closed = 1;
nodes = (
(197,110,o),
(204,234,o),
(225,334,cs),
(246,434,o),
(292,556,o),
(407,556,cs),
(522,556,o),
(516,434,o),
(495,334,cs),
(474,234,o),
(427,110,o),
(312,110,cs)
);
}
);
width = 684;
}
);
unicode = 79;
userData = {
KernOnName = O;
};
},
{
glyphname = Oslash;
lastChange = "2022-10-23 19:35:21 +0000";
layers = (
{
anchors = (
{
name = bottom;
pos = (279,0);
},
{
name = top;
pos = (414,637);
}
);
layerId = m003;
shapes = (
{
closed = 1;
nodes = (
(482,-10,o),
(599,154,o),
(637,334,cs),
(675,514,o),
(628,676,o),
(423,676,c),
(218,676,o),
(101,514,o),
(63,334,cs),
(25,154,o),
(72,-10,o),
(277,-10,cs)
);
},
{
closed = 1;
nodes = (
(134,50,o),
(101,177,o),
(135,334,cs),
(168,491,o),
(255,616,o),
(410,616,cs),
(565,616,o),
(598,491,o),
(565,334,cs),
(531,177,o),
(444,50,o),
(289,50,cs)
);
},
{
closed = 1;
nodes = (
(-23,15,l),
(14,-23,l),
(722,651,l),
(685,689,l)
);
}
);
width = 665;
},
{
anchors = (
{
name = bottom;
pos = (295,0);
},
{
name = top;
pos = (435,657);
}
);
layerId = m004;
shapes = (
{
closed = 1;
nodes = (
(544,-10,o),
(661,154,o),
(699,334,cs),
(737,514,o),
(690,676,o),
(445,676,cs),
(199,676,o),
(83,514,o),
(45,334,cs),
(7,154,o),
(53,-10,o),
(299,-10,cs)
);
},
{
closed = 1;
nodes = (
(209,110,o),
(216,234,o),
(237,334,cs),
(258,434,o),
(304,556,o),
(419,556,cs),
(534,556,o),
(528,434,o),
(507,334,cs),
(486,234,o),
(439,110,o),
(324,110,cs)
);
},
{
closed = 1;
nodes = (
(-31,35,l),
(45,-42,l),
(754,631,l),
(678,708,l)
);
}
);
width = 695;
}
);
unicode = 216;
},
{
glyphname = OE;
kernLeft = KO_O;
kernRight = KO_E;
lastChange = "2024-04-20 20:07:55 +0000";
layers = (
{
layerId = m003;
shapes = (
{
closed = 1;
nodes = (
(482,-10,o),
(569,154,o),
(607,334,c),
(645,514,o),
(628,676,o),
(423,676,c),
(218,676,o),
(101,514,o),
(63,334,cs),
(25,154,o),
(72,-10,o),
(277,-10,cs)
);
},
{
closed = 1;
nodes = (
(135,50,o),
(102,177,o),
(135,334,cs),
(169,491,o),
(255,616,o),
(410,616,cs),
(565,616,o),
(599,491,o),
(565,334,cs),
(532,177,o),
(445,50,o),
(290,50,cs)
);
},
{
closed = 1;
nodes = (
(527,155,l),
(494,0,l),
(873,0,l),
(886,60,l),
(570,60,l),
(625,320,l),
(892,320,l),
(905,380,l),
(638,380,l),
(686,607,l),
(1003,607,l),
(1016,667,l),
(636,667,l)
);
}
);
width = 968;
},
{
layerId = m004;
shapes = (
{
closed = 1;
nodes = (
(532,-10,o),
(559,154,o),
(597,334,cs),
(635,514,o),
(678,676,o),
(433,676,cs),
(187,676,o),
(71,514,o),
(33,334,cs),
(-5,154,o),
(41,-10,o),
(287,-10,cs)
);
},
{
closed = 1;
nodes = (
(198,110,o),
(204,234,o),
(225,334,cs),
(246,434,o),
(292,556,o),
(407,556,cs),
(522,556,o),
(516,434,o),
(495,334,cs),
(474,234,o),
(428,110,o),
(313,110,cs)
);
},
{
closed = 1;
nodes = (
(548,342,l),
(375,0,l),
(834,0,l),
(864,140,l),
(588,140,l),
(615,265,l),
(842,265,l),
(871,405,l),
(644,405,l),
(670,527,l),
(947,527,l),
(977,667,l),
(517,667,l)
);
}
);
width = 911;
}
);
metricLeft = "=O";
metricRight = "=E";
unicode = 338;
},
{
glyphname = P;
kernLeft = KO_H;
kernRight = KO_P;
lastChange = "2024-12-31 15:21:34 +0000";
layers = (
{
layerId = m003;
shapes = (
{
closed = 1;
nodes = (
(443,616,o),
(487,566,o),
(468,477,cs),
(450,390,o),
(385,342,o),
(287,342,cs),
(212,342,o),
(165,345,o),
(165,345,c),
(222,613,l),
(222,613,o),
(270,616,o),
(345,616,cs)
);
},
{
closed = 1;
nodes = (
(29,0,l),
(91,0,l),
(151,285,l),
(151,285,o),
(198,282,o),
(273,282,cs),
(421,282,o),
(516,363,o),
(540,478,cs),
(565,595,o),
(490,677,o),
(358,677,cs),
(253,677,o),
(171,667,o),
(171,667,c)
);
}
);
width = 516;
},
{
layerId = m004;
shapes = (
{
closed = 1;
nodes = (
(380,556,o),
(400,520,o),
(388,462,cs),
(376,407,o),
(341,372,o),
(296,372,cs),
(271,372,o),
(255,375,o),
(255,375,c),
(292,553,l),
(292,553,o),
(310,556,o),
(335,556,cs)
);
},
{
closed = 1;
nodes = (
(-8,0,l),
(174,0,l),
(228,255,l),
(228,255,o),
(244,252,o),
(269,252,cs),
(462,252,o),
(552,331,o),
(580,463,cs),
(608,595,o),
(533,677,o),
(361,677,cs),
(256,677,o),
(134,667,o),
(134,667,c)
);
}
);
width = 600;
}
);
metricLeft = "=H";
unicode = 80;
userData = {
KernOnName = P;
};
},
{
glyphname = Thorn;
kernLeft = KO_H;
kernRight = KO_Thorn;
lastChange = "2022-10-23 21:13:11 +0000";
layers = (
{
layerId = m003;
shapes = (
{
closed = 1;
nodes = (
(412,471,o),
(457,421,o),
(438,332,cs),
(419,245,o),
(354,197,o),
(256,197,cs),
(181,197,o),
(135,200,o),
(135,200,c),
(191,467,l),
(191,467,o),
(239,471,o),
(314,471,cs)
);
},
{
closed = 1;
nodes = (
(29,0,l),
(91,0,l),
(121,140,l),
(121,140,o),
(167,137,o),
(242,137,cs),
(375,137,o),
(485,218,o),
(510,333,cs),
(535,450,o),
(459,531,o),
(327,531,cs),
(222,531,o),
(140,522,o),
(140,522,c)
);
},
{
closed = 1;
nodes = (
(135,500,l),
(197,500,l),
(233,667,l),
(171,667,l)
);
}
);
width = 516;
},
{
layerId = m004;
shapes = (
{
closed = 1;
nodes = (
(353,426,o),
(373,390,o),
(361,332,cs),
(349,277,o),
(314,242,o),
(269,242,cs),
(244,242,o),
(227,245,o),
(227,245,c),
(265,423,l),
(265,423,o),
(283,426,o),
(308,426,cs)
);
},
{
closed = 1;
nodes = (
(-8,0,l),
(174,0,l),
(201,125,l),
(201,125,o),
(217,122,o),
(242,122,cs),
(415,122,o),
(525,201,o),
(553,333,cs),
(581,465,o),
(505,547,o),
(333,547,cs),
(228,547,o),
(106,537,o),
(106,537,c)
);
},
{
closed = 1;
nodes = (
(91,467,l),
(273,467,l),
(316,667,l),
(134,667,l)
);
}
);
width = 600;
}
);
metricLeft = "=P";
metricRight = "=P";
unicode = 222;
},
{
glyphname = Q;
kernLeft = KO_O;
kernRight = KO_Q;
lastChange = "2024-12-31 15:21:34 +0000";
layers = (
{
layerId = m003;
shapes = (
{
closed = 1;
nodes = (
(248,-2,l),
(232,-118,o),
(265,-208,o),
(399,-208,cs),
(455,-208,o),
(507,-188,o),
(550,-159,c),
(532,-117,l),
(498,-136,o),
(462,-153,o),
(410,-153,cs),
(323,-153,o),
(296,-83,o),
(307,-2,c)
);
},
{
closed = 1;
nodes = (
(25,156,o),
(72,-8,o),
(277,-8,c),
(482,-8,o),
(599,156,o),
(637,336,cs),
(676,516,o),
(628,678,o),
(423,678,cs),
(218,678,o),
(102,516,o),
(63,336,cs)
);
},
{
closed = 1;
nodes = (
(169,493,o),
(255,618,o),
(410,618,cs),
(565,618,o),
(599,493,o),
(565,336,cs),
(532,179,o),
(445,52,o),
(290,52,cs),
(135,52,o),
(102,179,o),
(135,336,cs)
);
}
);
width = 680;
},
{
layerId = m004;
shapes = (
{
closed = 1;
nodes = (
(198,-2,l),
(182,-118,o),
(215,-208,o),
(399,-208,cs),
(455,-208,o),
(507,-188,o),
(550,-159,c),
(545,-57,l),
(511,-76,o),
(475,-93,o),
(423,-93,cs),
(376,-93,o),
(336,-83,o),
(347,-2,c)
);
},
{
closed = 1;
nodes = (
(-5,154,o),
(41,-10,o),
(287,-10,cs),
(527,-10,o),
(649,154,o),
(687,334,cs),
(725,514,o),
(678,676,o),
(433,676,cs),
(192,676,o),
(71,514,o),
(33,334,cs)
);
},
{
closed = 1;
nodes = (
(246,434,o),
(292,556,o),
(419,556,cs),
(522,556,o),
(516,434,o),
(495,334,cs),
(474,234,o),
(428,110,o),
(301,110,c),
(198,110,o),
(204,234,o),
(225,334,cs)
);
}
);
width = 684;
}
);
unicode = 81;
userData = {
KernOnName = Q;
};
},
{
glyphname = R;
kernLeft = KO_H;
kernRight = KO_R;
lastChange = "2024-12-31 15:21:34 +0000";
layers = (
{
anchors = (
{
name = bottom;
pos = (215,0);
},
{
name = top;
pos = (350,637);
}
);
layerId = m003;
shapes = (
{
closed = 1;
nodes = (
(274,302,l),
(366,0,l),
(439,0,l),
(338,309,l)
);
},
{
closed = 1;
nodes = (
(443,616,o),
(487,566,o),
(468,477,cs),
(450,390,o),
(385,342,o),
(287,342,cs),
(212,342,o),
(165,345,o),
(165,345,c),
(222,612,l),
(222,612,o),
(270,616,o),
(345,616,cs)
);
},
{
closed = 1;
nodes = (
(29,0,l),
(91,0,l),
(151,285,l),
(151,285,o),
(198,282,o),
(273,282,cs),
(406,282,o),
(516,363,o),
(540,478,cs),
(565,595,o),
(490,676,o),
(358,676,cs),
(253,676,o),
(171,667,o),
(171,667,c)
);
}
);
width = 533;
},
{
anchors = (
{
name = bottom;
pos = (234,0);
},
{
name = top;
pos = (374,657);
}
);
layerId = m004;
shapes = (
{
closed = 1;
nodes = (
(214,302,l),
(306,0,l),
(497,0,l),
(396,309,l)
);
},
{
closed = 1;
nodes = (
(380,556,o),
(400,520,o),
(388,462,cs),
(376,407,o),
(341,372,o),
(296,372,cs),
(271,372,o),
(255,375,o),
(255,375,c),
(292,553,l),
(292,553,o),
(310,556,o),
(335,556,cs)
);
},
{
closed = 1;
nodes = (
(-8,0,l),
(174,0,l),
(228,255,l),
(228,255,o),
(244,252,o),
(269,252,cs),
(442,252,o),
(552,331,o),
(580,463,c),
(608,595,o),
(533,677,o),
(361,677,cs),
(256,677,o),
(134,667,o),
(134,667,c)
);
}
);
width = 573;
}
);
metricLeft = "=H";
metricRight = "=H/2";
unicode = 82;
userData = {
KernOnName = R;
};
},
{
glyphname = S;
kernLeft = KO_S;
kernRight = KO_S;
lastChange = "2024-12-31 15:26:45 +0000";
layers = (
{
anchors = (
{
name = bottom;
pos = (161,0);
},
{
name = top;
pos = (303,667);
}
);
layerId = m003;
shapes = (
{
closed = 1;
nodes = (
(458,300,o),
(399,357,o),
(242,385,cs),
(176,396,o),
(145,435,o),
(159,500,c),
(173,565,o),
(228,616,o),
(291,616,c),
(304,676,l),
(234,676,o),
(121,618,o),
(96,500,c),
(75,400,o),
(122,340,o),
(228,320,cs),
(312,305,o),
(380,274,o),
(363,194,cs),
(344,106,o),
(272,50,o),
(170,50,c),
(158,-10,l),
(318,-10,o),
(410,77,o),
(435,194,cs)
);
},
{
closed = 1;
nodes = (
(342,616,o),
(384,598,o),
(426,578,c),
(466,630,l),
(421,656,o),
(369,676,o),
(304,676,c),
(291,616,l)
);
},
{
closed = 1;
nodes = (
(119,50,o),
(77,68,o),
(36,88,c),
(-4,36,l),
(40,10,o),
(93,-10,o),
(158,-10,c),
(170,50,l)
);
}
);
width = 488;
},
{
anchors = (
{
name = bottom;
pos = (183,0);
},
{
name = top;
pos = (325,667);
}
);
layerId = m004;
shapes = (
{
closed = 1;
nodes = (
(524,320,o),
(471,400,o),
(312,425,cs),
(247,435,o),
(245,469,o),
(251,500,cs),
(258,531,o),
(292,556,o),
(340,556,c),
(326,676,l),
(216,676,o),
(99,598,o),
(74,480,cs),
(53,380,o),
(97,307,o),
(201,280,cs),
(290,257,o),
(315,241,o),
(305,194,cs),
(293,137,o),
(253,120,o),
(207,120,c),
(180,-10,l),
(380,-10,o),
(476,97,o),
(501,214,cs)
);
},
{
closed = 1;
nodes = (
(389,556,o),
(418,545,o),
(475,518,c),
(528,630,l),
(482,651,o),
(418,676,o),
(326,676,c),
(340,556,l)
);
},
{
closed = 1;
nodes = (
(138,120,o),
(90,133,o),
(33,160,c),
(-22,38,l),
(23,17,o),
(88,-10,o),
(180,-10,c),
(207,120,l)
);
}
);
width = 532;
}
);
metricLeft = "=H/2";
metricRight = "=|";
unicode = 83;
userData = {
KernOnName = S;
};
},
{
glyphname = Germandbls;
kernLeft = KO_H;
kernRight = KO_S;
lastChange = "2022-10-23 21:13:28 +0000";
layers = (
{
layerId = m003;
shapes = (
{
closed = 1;
nodes = (
(92,0,l),
(221,607,l),
(538,607,l),
(564,667,l),
(171,667,l),
(29,0,l)
);
},
{
closed = 1;
nodes = (
(297,50,l),
(246,50,o),
(204,68,o),
(162,88,c),
(122,36,l),
(166,10,o),
(219,-10,o),
(284,-10,c)
);
},
{
closed = 1;
nodes = (
(444,-10,o),
(537,77,o),
(561,194,cs),
(584,300,o),
(527,380,o),
(367,380,c),
(300,380,l),
(288,324,l),
(457,324,o),
(510,292,o),
(489,194,cs),
(471,106,o),
(399,50,o),
(297,50,c),
(284,-10,l)
);
},
{
closed = 1;
nodes = (
(563,607,l),
(576,667,l),
(534,667,l),
(300,380,l),
(347,350,l)
);
}
);
width = 614;
},
{
layerId = m004;
shapes = (
{
closed = 1;
nodes = (
(174,0,l),
(290,547,l),
(687,547,l),
(713,667,l),
(134,667,l),
(-8,0,l)
);
},
{
closed = 1;
nodes = (
(392,110,l),
(341,110,o),
(298,128,o),
(257,148,c),
(204,36,l),
(248,10,o),
(301,-10,o),
(366,-10,c)
);
},
{
closed = 1;
nodes = (
(566,-10,o),
(659,77,o),
(683,194,cs),
(706,300,o),
(655,410,o),
(475,410,c),
(323,410,l),
(299,295,l),
(477,295,o),
(504,252,o),
(491,194,cs),
(479,136,o),
(438,110,o),
(392,110,c),
(366,-10,l)
);
},
{
closed = 1;
nodes = (
(687,547,l),
(708,667,l),
(651,667,l),
(323,410,l),
(470,380,l)
);
}
);
width = 718;
}
);
metricLeft = "=H";
metricRight = "=S";
unicode = 7838;
},
{
glyphname = T;
kernLeft = KO_T;
kernRight = KO_T;
lastChange = "2024-12-31 15:21:32 +0000";
layers = (
{
anchors = (
{
name = bottom;
pos = (190,0);
},
{
name = center;
pos = (261,334);
},
{
name = top;
pos = (325,637);
}
);
layerId = m003;
shapes = (
{
closed = 1;
nodes = (
(349,607,l),
(536,607,l),
(549,667,l),
(114,667,l),
(101,607,l),
(286,607,l),
(157,0,l),
(220,0,l)
);
}
);
width = 485;
},
{
anchors = (
{
name = bottom;
pos = (218,0);
},
{
name = center;
pos = (289,334);
},
{
name = top;
pos = (358,657);
}
);
layerId = m004;
shapes = (
{
closed = 1;
nodes = (
(421,527,l),
(586,527,l),
(616,667,l),
(104,667,l),
(74,527,l),
(239,527,l),
(127,0,l),
(309,0,l)
);
}
);
width = 542;
}
);
unicode = 84;
userData = {
KernOnName = T;
};
},
{
glyphname = U;
kernLeft = KO_U;
kernRight = KO_U;
lastChange = "2025-01-04 17:24:42 +0000";
layers = (
{
anchors = (
{
name = bottom;
pos = (256,0);
},
{
name = ogonek;
pos = (330,0);
},
{
name = top;
pos = (391,637);
},
{
name = topright;
pos = (680,637);
}
);
layerId = m003;
shapes = (
{
closed = 1;
nodes = (
(491,336,l),
(448,131,o),
(386,52,o),
(267,52,c),
(148,52,o),
(120,131,o),
(163,336,c),
(100,336,l),
(47,87,o),
(90,-8,o),
(254,-8,c),
(418,-8,o),
(501,87,o),
(554,336,c)
);
},
{
closed = 1;
nodes = (
(491,336,l),
(554,336,l),
(625,667,l),
(562,667,l)
);
},
{
closed = 1;
nodes = (
(234,667,l),
(171,667,l),
(100,336,l),
(163,336,l)
);
}
);
width = 618;
},
{
anchors = (
{
name = bottom;
pos = (256,0);
},
{
name = ogonek;
pos = (342,0);
},
{
name = top;
pos = (396,657);
},
{
name = topright;
pos = (685,657);
}
);
layerId = m004;
shapes = (
{
closed = 1;
nodes = (
(411,336,l),
(380,191,o),
(359,112,o),
(280,112,c),
(201,112,o),
(212,191,o),
(243,336,c),
(60,336,l),
(7,87,o),
(50,-8,o),
(254,-8,c),
(458,-8,o),
(541,87,o),
(594,336,c)
);
},
{
closed = 1;
nodes = (
(411,336,l),
(594,336,l),
(665,667,l),
(482,667,l)
);
},
{
closed = 1;
nodes = (
(314,667,l),
(131,667,l),
(60,336,l),
(243,336,l)
);
}
);
width = 618;
}
);
metricRight = "=|";
unicode = 85;
userData = {
KernOnName = U;
};
},
{
glyphname = V;
kernLeft = KO_V;
kernRight = KO_V;
lastChange = "2024-12-31 15:21:32 +0000";
layers = (
{
layerId = m003;
shapes = (
{
closed = 1;
nodes = (
(176,667,l),
(109,667,l),
(183,0,l),
(259,0,l),
(617,667,l),
(549,667,l),
(236,69,l)
);
}
);
width = 549;
},
{
layerId = m004;
shapes = (
{
closed = 1;
nodes = (
(300,667,l),
(100,667,l),
(148,0,l),
(348,0,l),
(680,667,l),
(480,667,l),
(303,259,l)
);
}
);
width = 602;
}
);
unicode = 86;
userData = {
KernOnName = V;
};
},
{
glyphname = W;
kernLeft = KO_W;
kernRight = KO_W;
lastChange = "2024-12-31 15:21:34 +0000";
layers = (
{
anchors = (
{
name = bottom;
pos = (361,0);
},
{
name = top;
pos = (496,637);
}
);
layerId = m003;
shapes = (
{
closed = 1;
nodes = (
(176,667,l),
(109,667,l),
(143,0,l),
(219,0,l),
(537,667,l),
(469,667,l),
(196,69,l)
);
},
{
closed = 1;
nodes = (
(536,667,l),
(469,667,l),
(503,0,l),
(579,0,l),
(897,667,l),
(829,667,l),
(556,69,l)
);
}
);
width = 829;
},
{
anchors = (
{
name = bottom;
pos = (416,0);
},
{
name = top;
pos = (556,657);
}
);
layerId = m004;
shapes = (
{
closed = 1;
nodes = (
(300,667,l),
(100,667,l),
(118,0,l),
(318,0,l),
(630,667,l),
(460,667,l),
(283,259,l)
);
},
{
closed = 1;
nodes = (
(630,667,l),
(460,667,l),
(478,0,l),
(678,0,l),
(980,667,l),
(780,667,l),
(623,259,l)
);
}
);
width = 902;
}
);
metricLeft = "=V";
metricRight = "=V";
unicode = 87;
userData = {
KernOnName = W;
};
},
{
glyphname = X;
kernLeft = KO_X;
kernRight = KO_X;
lastChange = "2024-12-31 15:21:34 +0000";
layers = (
{
layerId = m003;
shapes = (
{
closed = 1;
nodes = (
(367,0,l),
(441,0,l),
(320,350,l),
(574,667,l),
(502,667,l),
(249,350,l)
);
},
{
closed = 1;
nodes = (
(191,667,l),
(119,667,l),
(239,350,l),
(-32,0,l),
(42,0,l),
(310,350,l)
);
}
);
width = 515;
},
{
layerId = m004;
shapes = (
{
closed = 1;
nodes = (
(327,0,l),
(531,0,l),
(429,350,l),
(664,667,l),
(452,667,l),
(238,350,l)
);
},
{
closed = 1;
nodes = (
(311,667,l),
(109,667,l),
(208,350,l),
(-42,0,l),
(172,0,l),
(399,350,l)
);
}
);
width = 595;
}
);
metricLeft = "=|";
metricRight = "=K";
unicode = 88;
userData = {
KernOnName = X;
};
},
{
glyphname = Y;
kernLeft = KO_Y;
kernRight = KO_Y;
lastChange = "2024-12-31 15:21:34 +0000";
layers = (
{
anchors = (
{
name = bottom;
pos = (201,0);
},
{
name = top;
pos = (336,637);
},
{
name = topleft;
pos = (102,637);
}
);
layerId = m003;
shapes = (
{
closed = 1;
nodes = (
(161,667,l),
(89,667,l),
(234,300,l),
(297,300,l),
(597,667,l),
(524,667,l),
(280,370,l)
);
},
{
closed = 1;
nodes = (
(170,0,l),
(233,0,l),
(303,330,l),
(240,330,l)
);
}
);
width = 508;
},
{
anchors = (
{
name = bottom;
pos = (241,0);
},
{
name = top;
pos = (381,657);
},
{
name = topleft;
pos = (107,657);
}
);
layerId = m004;
shapes = (
{
closed = 1;
nodes = (
(296,667,l),
(89,667,l),
(203,251,l),
(386,251,l),
(677,667,l),
(469,667,l),
(339,460,l)
);
},
{
closed = 1;
nodes = (
(150,0,l),
(333,0,l),
(403,330,l),
(220,330,l)
);
}
);
width = 588;
}
);
unicode = 89;
userData = {
KernOnName = Y;
};
},
{
glyphname = Z;
kernLeft = KO_Z;
kernRight = KO_Z;
lastChange = "2024-12-31 15:32:35 +0000";
layers = (
{
anchors = (
{
name = bottom;
pos = (207,0);
},
{
name = center;
pos = (278,334);
},
{
name = top;
pos = (342,637);
}
);
layerId = m003;
shapes = (
{
closed = 1;
nodes = (
(-10,60,l),
(-22,0,l),
(422,0,l),
(445,60,l),
(65,60,l),
(551,607,l),
(564,667,l),
(144,667,l),
(131,607,l),
(476,607,l)
);
}
);
width = 520;
},
{
anchors = (
{
name = bottom;
pos = (245,0);
},
{
name = center;
pos = (316,334);
},
{
name = top;
pos = (387,667);
}
);
layerId = m004;
shapes = (
{
closed = 1;
nodes = (
(-18,140,l),
(-47,0,l),
(467,0,l),
(517,140,l),
(172,140,l),
(589,527,l),
(619,667,l),
(119,667,l),
(89,527,l),
(399,527,l)
);
}
);
width = 560;
}
);
unicode = 90;
userData = {
KernOnName = Z;
};
},
{
glyphname = Saltillo;
lastChange = "2022-10-23 18:38:10 +0000";
layers = (
{
layerId = m003;
shapes = (
{
closed = 1;
nodes = (
(55,180,l),
(115,180,l),
(246,750,l),
(166,750,l)
);
}
);
width = 200;
},
{
layerId = m004;
shapes = (
{
closed = 1;
nodes = (
(45,250,l),
(205,250,l),
(331,750,l),
(131,750,l)
);
}
);
width = 250;
}
);
metricLeft = "=i";
metricRight = "=|";
unicode = 42891;
},
{
glyphname = Eth.001;
lastChange = "2022-10-23 20:23:11 +0000";
layers = (
{
layerId = m003;
shapes = (
{
closed = 1;
nodes = (
(224,0,l),
(429,0,o),
(547,156,o),
(586,336,cs),
(624,516,o),
(573,676,o),
(358,676,c),
(253,676,o),
(171,667,o),
(171,667,c),
(29,0,l)
);
},
{
closed = 1;
nodes = (
(292,320,l),
(305,380,l),
(28,380,l),
(15,320,l)
);
},
{
closed = 1;
nodes = (
(222,612,l),
(222,612,o),
(270,616,o),
(345,616,cs),
(510,616,o),
(547,493,o),
(514,336,cs),
(480,179,o),
(392,60,o),
(237,60,cs),
(177,60,o),
(105,60,o),
(105,60,c)
);
}
);
width = 613;
},
{
layerId = m004;
shapes = (
{
closed = 1;
nodes = (
(227,0,l),
(472,0,o),
(590,156,o),
(629,336,cs),
(667,516,o),
(616,676,o),
(361,676,c),
(216,676,o),
(134,667,o),
(134,667,c),
(-8,0,l)
);
},
{
closed = 1;
nodes = (
(362,280,l),
(391,420,l),
(36,420,l),
(7,280,l)
);
},
{
closed = 1;
nodes = (
(303,555,l),
(303,555,o),
(310,556,o),
(335,556,cs),
(420,556,o),
(470,493,o),
(437,336,cs),
(403,179,o),
(328,120,o),
(253,120,cs),
(243,120,o),
(211,120,o),
(211,120,c)
);
}
);
width = 626;
}
);
metricRight = "=D";
},
{
glyphname = K.salt;
kernLeft = KO_H;
kernRight = KO_K.salt;
lastChange = "2022-11-13 02:12:53 +0000";
layers = (
{
layerId = m003;
shapes = (
{
closed = 1;
nodes = (
(232,666,l),
(170,666,l),
(29,0,l),
(91,0,l)
);
},
{
closed = 1;
nodes = (
(384,0,l),
(468,0,l),
(251,350,l),
(606,667,l),
(519,667,l),
(165,350,l)
);
}
);
width = 548;
},
{
layerId = m004;
shapes = (
{
closed = 1;
nodes = (
(315,666,l),
(133,666,l),
(-8,0,l),
(174,0,l)
);
},
{
closed = 1;
nodes = (
(308,0,l),
(504,0,l),
(401,350,l),
(636,667,l),
(442,667,l),
(208,350,l)
);
}
);
width = 568;
}
);
metricLeft = "=H";
},
{
glyphname = M.salt;
kernLeft = KO_H;
kernRight = KO_H;
lastChange = "2022-11-13 01:56:02 +0000";
layers = (
{
anchors = (
{
name = bottom;
pos = (335,0);
},
{
name = top;
pos = (477,667);
}
);
layerId = m003;
shapes = (
{
closed = 1;
nodes = (
(233,666,l),
(170,666,l),
(29,0,l),
(92,0,l)
);
},
{
closed = 1;
nodes = (
(740,666,l),
(677,666,l),
(536,0,l),
(599,0,l)
);
},
{
closed = 1;
nodes = (
(268,666,l),
(201,666,l),
(276,-1,l),
(352,-1,l),
(709,666,l),
(641,666,l),
(328,68,l)
);
}
);
width = 734;
},
{
anchors = (
{
name = bottom;
pos = (332,0);
},
{
name = top;
pos = (474,667);
}
);
layerId = m004;
shapes = (
{
closed = 1;
nodes = (
(316,666,l),
(133,666,l),
(-8,0,l),
(175,0,l)
);
},
{
closed = 1;
nodes = (
(813,666,l),
(630,666,l),
(489,0,l),
(672,0,l)
);
},
{
closed = 1;
nodes = (
(384,667,l),
(214,667,l),
(272,0,l),
(392,0,l),
(734,667,l),
(564,667,l),
(387,259,l)
);
}
);
width = 770;
}
);
metricLeft = "=H";
metricRight = "=H";
},
{
export = 0;
glyphname = Dcroat.001;
lastChange = "2024-12-31 16:58:12 +0000";
layers = (
{
layerId = m003;
shapes = (
{
closed = 1;
nodes = (
(224,0,l),
(429,0,o),
(547,156,o),
(586,336,cs),
(624,516,o),
(573,676,o),
(358,676,c),
(253,676,o),
(171,667,o),
(171,667,c),
(29,0,l)
);
},
{
closed = 1;
nodes = (
(292,320,l),
(305,380,l),
(28,380,l),
(15,320,l)
);
},
{
closed = 1;
nodes = (
(222,612,l),
(222,612,o),
(270,616,o),
(345,616,cs),
(510,616,o),
(547,493,o),
(514,336,cs),
(480,179,o),
(392,60,o),
(237,60,cs),
(177,60,o),
(105,60,o),
(105,60,c)
);
}
);
width = 613;
},
{
layerId = m004;
shapes = (
{
closed = 1;
nodes = (
(227,0,l),
(472,0,o),
(590,156,o),
(628,336,cs),
(667,516,o),
(616,676,o),
(361,676,c),
(216,676,o),
(134,667,o),
(134,667,c),
(-8,0,l)
);
},
{
closed = 1;
nodes = (
(364,290,l),
(389,410,l),
(34,410,l),
(9,290,l)
);
},
{
closed = 1;
nodes = (
(303,555,l),
(303,555,o),
(310,556,o),
(335,556,cs),
(420,556,o),
(470,493,o),
(436,336,cs),
(403,179,o),
(327,120,o),
(252,120,cs),
(242,120,o),
(210,120,o),
(210,120,c)
);
}
);
width = 625;
}
);
metricRight = "=D";
},
{
export = 0;
glyphname = Germandbls.001;
lastChange = "2022-10-21 20:45:27 +0000";
layers = (
{
layerId = m003;
shapes = (
{
closed = 1;
nodes = (
(584,300,o),
(530,373,o),
(367,380,cs),
(317,382,o),
(315,383,o),
(315,383,c),
(263,325,l),
(263,325,o),
(317,327,o),
(354,320,cs),
(438,305,o),
(506,274,o),
(489,194,cs),
(470,106,o),
(398,50,o),
(296,50,c),
(284,-10,l),
(444,-10,o),
(536,77,o),
(561,194,cs)
);
},
{
closed = 1;
nodes = (
(245,50,o),
(203,68,o),
(162,88,c),
(122,36,l),
(166,10,o),
(219,-10,o),
(284,-10,c),
(296,50,l)
);
},
{
closed = 1;
nodes = (
(321,350,l),
(538,607,l),
(546,667,l),
(509,667,l),
(275,380,l)
);
},
{
closed = 1;
nodes = (
(318,325,l),
(330,380,l),
(275,380,l),
(263,325,l)
);
},
{
closed = 1;
nodes = (
(29,0,l),
(92,0,l),
(221,607,l),
(538,607,l),
(551,667,l),
(171,667,l)
);
}
);
width = 618;
},
{
layerId = m004;
shapes = (
{
closed = 1;
nodes = (
(706,300,o),
(659,403,o),
(475,410,cs),
(425,412,o),
(424,413,o),
(424,413,c),
(299,295,l),
(299,295,o),
(395,302,o),
(430,290,cs),
(473,275,o),
(502,244,o),
(491,194,cs),
(479,136,o),
(437,110,o),
(391,110,c),
(366,-10,l),
(566,-10,o),
(658,77,o),
(683,194,cs)
);
},
{
closed = 1;
nodes = (
(340,110,o),
(298,128,o),
(256,148,c),
(204,36,l),
(248,10,o),
(301,-10,o),
(366,-10,c),
(391,110,l)
);
},
{
closed = 1;
nodes = (
(470,380,l),
(647,547,l),
(668,667,l),
(611,667,l),
(323,410,l)
);
},
{
closed = 1;
nodes = (
(299,295,l),
(438,410,l),
(323,410,l),
(299,295,l)
);
},
{
closed = 1;
nodes = (
(-8,0,l),
(174,0,l),
(290,547,l),
(647,547,l),
(673,667,l),
(134,667,l)
);
}
);
width = 718;
}
);
metricLeft = "=H";
metricRight = "=S";
},
{
export = 0;
glyphname = Tbar.001;
lastChange = "2022-10-23 20:13:32 +0000";
layers = (
{
anchors = (
{
name = bottom;
pos = (190,0);
},
{
name = center;
pos = (261,333);
},
{
name = top;
pos = (325,637);
}
);
layerId = m003;
shapes = (
{
closed = 1;
nodes = (
(349,607,l),
(536,607,l),
(549,667,l),
(114,667,l),
(101,607,l),
(286,607,l),
(157,0,l),
(220,0,l)
);
},
{
closed = 1;
nodes = (
(379,303,l),
(392,363,l),
(142,363,l),
(129,303,l)
);
}
);
width = 485;
},
{
anchors = (
{
name = bottom;
pos = (218,0);
},
{
name = center;
pos = (289,334);
},
{
name = top;
pos = (358,657);
}
);
layerId = m004;
shapes = (
{
closed = 1;
nodes = (
(421,527,l),
(586,527,l),
(616,667,l),
(104,667,l),
(74,527,l),
(239,527,l),
(127,0,l),
(309,0,l)
);
},
{
closed = 1;
nodes = (
(461,273,l),
(486,393,l),
(116,393,l),
(91,273,l)
);
}
);
width = 542;
}
);
},
{
glyphname = a;
kernLeft = KO_a;
kernRight = KO_a;
lastChange = "2025-01-04 00:04:39 +0000";
layers = (
{
anchors = (
{
name = bottom;
pos = (197,0);
},
{
name = ogonek;
pos = (432,0);
},
{
name = top;
pos = (303,500);
}
);
layerId = m003;
name = "Light Italic";
shapes = (
{
closed = 1;
nodes = (
(437,25,l),
(442,48,l),
(397,48,o),
(409,105,o),
(429,196,cs),
(440,250,l),
(380,250,l),
(369,196,ls),
(346,87,o),
(327,0,o),
(432,0,c)
);
},
{
closed = 1;
nodes = (
(340,60,l),
(402,70,l),
(478,430,l),
(421,440,l)
);
},
{
closed = 1;
nodes = (
(478,430,l),
(493,500,l),
(463,500,l),
(421,440,l)
);
},
{
closed = 1;
nodes = (
(387,150,o),
(299,47,o),
(207,47,c),
(195,-8,l),
(336,-8,o),
(417,140,o),
(417,140,c),
(387,150,l)
);
},
{
closed = 1;
nodes = (
(464,360,l),
(464,360,o),
(416,508,o),
(305,508,c),
(293,452,l),
(385,452,o),
(429,350,o),
(429,350,c)
);
},
{
closed = 1;
nodes = (
(305,508,l),
(159,508,o),
(73,379,o),
(45,250,cs),
(18,121,o),
(49,-8,o),
(195,-8,c),
(207,47,l),
(96,47,o),
(85,145,o),
(107,250,cs),
(129,354,o),
(182,452,o),
(293,452,c)
);
}
);
width = 556;
},
{
anchors = (
{
name = bottom;
pos = (315,0);
},
{
name = ogonek;
pos = (523,10);
},
{
name = top;
pos = (428,500);
}
);
layerId = m004;
name = "Black Italic";
shapes = (
{
closed = 1;
nodes = (
(482,0,l),
(505,108,l),
(460,108,o),
(472,165,o),
(479,196,cs),
(490,250,l),
(310,250,l),
(299,196,ls),
(276,87,o),
(257,0,o),
(442,0,c)
);
},
{
closed = 1;
nodes = (
(276,90,l),
(465,130,l),
(528,430,l),
(351,440,l)
);
},
{
closed = 1;
nodes = (
(528,430,l),
(543,500,l),
(393,500,l),
(351,440,l)
);
},
{
closed = 1;
nodes = (
(403,170,o),
(265,107,o),
(230,107,c),
(145,-8,l),
(285,-8,o),
(403,170,o),
(403,170,c),
(403,170,l)
);
},
{
closed = 1;
nodes = (
(437,330,l),
(437,330,o),
(366,508,o),
(255,508,c),
(290,392,l),
(325,392,o),
(437,330,o),
(437,330,c)
);
},
{
closed = 1;
nodes = (
(255,508,l),
(129,508,o),
(43,379,o),
(15,250,cs),
(-12,121,o),
(19,-8,o),
(145,-8,c),
(230,107,l),
(169,107,o),
(188,205,o),
(197,250,cs),
(207,294,o),
(229,392,o),
(290,392,c)
);
}
);
width = 550;
}
);
metricLeft = "=o";
unicode = 97;
userData = {
KernOnName = a;
};
},
{
glyphname = ae;
kernLeft = KO_ae;
kernRight = KO_e;
lastChange = "2024-04-20 19:31:16 +0000";
layers = (
{
layerId = m003;
shapes = (
{
closed = 1;
nodes = (
(597,195,o),
(729,223,o),
(756,347,cs),
(775,439,o),
(728,508,o),
(619,508,cs),
(473,508,o),
(387,379,o),
(360,250,c),
(420,250,l),
(442,354,o),
(496,453,o),
(607,453,cs),
(677,453,o),
(709,408,o),
(696,347,cs),
(676,253,o),
(538,246,o),
(420,251,c),
(409,196,l),
(486,195,l)
);
},
{
closed = 1;
nodes = (
(187,47,l),
(103,47,o),
(71,92,o),
(84,153,cs),
(99,223,o),
(176,250,o),
(360,250,c),
(372,305,l),
(347,305,l),
(145,305,o),
(47,259,o),
(24,153,cs),
(5,61,o),
(52,-8,o),
(175,-8,c)
);
},
{
closed = 1;
nodes = (
(298,-8,o),
(393,121,o),
(393,121,cs),
(369,160,l),
(369,160,o),
(279,47,o),
(187,47,c),
(175,-8,l)
);
},
{
closed = 1;
nodes = (
(492,48,l),
(412,48,o),
(387,93,o),
(420,250,c),
(360,250,l),
(321,66,o),
(368,-8,o),
(480,-8,c)
);
},
{
closed = 1;
nodes = (
(393,125,l),
(420,250,l),
(372,305,l),
(326,90,l)
);
},
{
closed = 1;
nodes = (
(132,413,o),
(206,452,o),
(268,452,c),
(280,508,l),
(199,508,o),
(115,461,o),
(115,461,c),
(132,413,l)
);
},
{
closed = 1;
nodes = (
(591,-8,o),
(681,44,o),
(681,44,c),
(663,87,l),
(663,87,o),
(584,48,o),
(492,48,c),
(480,-8,l)
);
},
{
closed = 1;
nodes = (
(431,302,ls),
(459,434,o),
(426,508,o),
(280,508,c),
(268,452,l),
(378,452,o),
(393,407,o),
(372,305,c),
(420,250,l)
);
}
);
width = 780;
},
{
layerId = m004;
shapes = (
{
closed = 1;
nodes = (
(607,195,o),
(739,223,o),
(766,347,cs),
(785,439,o),
(738,508,o),
(589,508,cs),
(413,508,o),
(327,379,o),
(300,250,c),
(470,250,l),
(491,347,o),
(524,393,o),
(564,393,cs),
(604,393,o),
(610,367,o),
(606,347,cs),
(601,327,o),
(585,301,o),
(482,306,c),
(379,196,l),
(456,195,ls)
);
},
{
closed = 1;
nodes = (
(210,107,l),
(185,107,o),
(168,122,o),
(174,153,cs),
(183,193,o),
(209,220,o),
(284,220,c),
(302,305,l),
(277,305,ls),
(115,305,o),
(17,259,o),
(-6,153,cs),
(-25,61,o),
(22,-8,o),
(125,-8,c)
);
},
{
closed = 1;
nodes = (
(236,-8,o),
(373,121,o),
(373,121,c),
(385,180,l),
(385,180,o),
(245,107,o),
(210,107,c),
(125,-8,l)
);
},
{
closed = 1;
nodes = (
(515,108,l),
(455,108,o),
(445,133,o),
(470,250,c),
(300,250,l),
(261,66,o),
(338,-8,o),
(450,-8,c)
);
},
{
closed = 1;
nodes = (
(443,125,l),
(464,220,l),
(302,305,l),
(256,90,l)
);
},
{
closed = 1;
nodes = (
(109,353,o),
(193,392,o),
(255,392,c),
(310,508,l),
(199,508,o),
(89,455,o),
(89,455,c),
(109,353,l)
);
},
{
closed = 1;
nodes = (
(611,-8,o),
(711,45,o),
(711,45,c),
(691,147,l),
(691,147,o),
(597,108,o),
(515,108,c),
(450,-8,l)
);
},
{
closed = 1;
nodes = (
(481,302,ls),
(509,434,o),
(462,508,o),
(310,508,c),
(255,392,l),
(311,392,o),
(316,370,o),
(302,305,c),
(464,220,l)
);
}
);
width = 770;
}
);
metricLeft = "=a";
metricRight = "=e";
unicode = 230;
},
{
glyphname = b;
kernLeft = KO_i;
kernRight = KO_b;
lastChange = "2024-12-31 15:22:49 +0000";
layers = (
{
anchors = (
{
name = bottom;
pos = (205,0);
},
{
name = center;
pos = (258,250);
},
{
name = top;
pos = (311,500);
}
);
layerId = m003;
shapes = (
{
closed = 1;
nodes = (
(231,700,l),
(171,700,l),
(37,70,l),
(95,60,l)
);
},
{
closed = 1;
nodes = (
(37,70,l),
(22,0,l),
(52,0,l),
(95,60,l)
);
},
{
closed = 1;
nodes = (
(52,140,l),
(52,140,o),
(100,-8,o),
(211,-8,c),
(222,47,l),
(130,47,o),
(86,150,o),
(86,150,c)
);
},
{
closed = 1;
nodes = (
(129,350,o),
(217,452,o),
(309,452,c),
(320,508,l),
(209,508,o),
(99,360,o),
(99,360,c),
(129,350,l)
);
},
{
closed = 1;
nodes = (
(420,452,o),
(431,354,o),
(409,250,cs),
(386,145,o),
(333,47,o),
(222,47,c),
(211,-8,l),
(357,-8,o),
(443,121,o),
(471,250,cs),
(498,379,o),
(466,508,o),
(320,508,c),
(309,452,l)
);
}
);
width = 516;
},
{
anchors = (
{
name = bottom;
pos = (231,0);
},
{
name = center;
pos = (284,250);
},
{
name = top;
pos = (337,500);
}
);
layerId = m004;
shapes = (
{
closed = 1;
nodes = (
(311,700,l),
(131,700,l),
(-3,70,l),
(175,60,l)
);
},
{
closed = 1;
nodes = (
(-3,70,l),
(-18,0,l),
(132,0,l),
(175,60,l)
);
},
{
closed = 1;
nodes = (
(89,170,l),
(89,170,o),
(160,-8,o),
(271,-8,c),
(235,107,l),
(200,107,o),
(89,170,o),
(89,170,c)
);
},
{
closed = 1;
nodes = (
(123,330,o),
(261,392,o),
(296,392,c),
(380,508,l),
(269,508,o),
(123,330,o),
(123,330,c),
(123,330,l)
);
},
{
closed = 1;
nodes = (
(357,392,o),
(338,294,o),
(329,250,cs),
(319,205,o),
(296,107,o),
(235,107,c),
(271,-8,l),
(397,-8,o),
(483,121,o),
(511,250,cs),
(538,379,o),
(506,508,o),
(380,508,c),
(296,392,l)
);
}
);
width = 526;
}
);
metricLeft = "=h";
metricRight = "=o";
unicode = 98;
userData = {
KernOnName = b;
};
},
{
glyphname = c;
kernLeft = KO_o;
kernRight = KO_c;
lastChange = "2024-12-31 15:21:32 +0000";
layers = (
{
anchors = (
{
name = bottom;
pos = (196,0);
},
{
name = top;
pos = (302,500);
}
);
layerId = m003;
shapes = (
{
closed = 1;
nodes = (
(207,47,l),
(96,47,o),
(85,145,o),
(107,250,cs),
(129,354,o),
(182,453,o),
(293,453,c),
(305,508,l),
(159,508,o),
(72,379,o),
(45,250,cs),
(18,121,o),
(49,-8,o),
(195,-8,c)
);
},
{
closed = 1;
nodes = (
(268,-8,o),
(337,32,o),
(374,55,c),
(348,99,l),
(318,79,o),
(269,47,o),
(206,47,c),
(194,-8,l)
);
},
{
closed = 1;
nodes = (
(456,444,l),
(430,467,o),
(378,508,o),
(304,508,c),
(292,453,l),
(354,453,o),
(390,422,o),
(412,402,c)
);
}
);
width = 438;
},
{
anchors = (
{
name = bottom;
pos = (209,0);
},
{
name = top;
pos = (315,500);
}
);
layerId = m004;
shapes = (
{
closed = 1;
nodes = (
(230,107,l),
(167,107,o),
(187,205,o),
(197,250,c),
(206,294,o),
(227,392,o),
(290,392,c),
(315,508,l),
(129,508,o),
(42,379,o),
(15,250,c),
(-12,121,o),
(19,-8,o),
(205,-8,c)
);
},
{
closed = 1;
nodes = (
(318,-8,o),
(378,32,o),
(414,55,c),
(377,140,l),
(335,120,o),
(280,107,o),
(229,107,c),
(204,-8,l)
);
},
{
closed = 1;
nodes = (
(496,445,l),
(470,468,o),
(429,508,o),
(315,508,c),
(290,392,l),
(340,392,o),
(391,380,o),
(423,360,c)
);
}
);
width = 463;
}
);
metricLeft = "=o";
metricRight = "=o/2";
unicode = 99;
userData = {
KernOnName = c;
};
},
{
glyphname = d;
kernLeft = KO_a;
kernRight = KO_i;
lastChange = "2024-12-31 15:21:32 +0000";
layers = (
{
anchors = (
{
name = bottom;
pos = (205,0);
},
{
name = center;
pos = (258,250);
},
{
name = top;
pos = (354,700);
},
{
name = topright;
pos = (591,700);
}
);
layerId = m003;
shapes = (
{
closed = 1;
nodes = (
(401,70,l),
(535,700,l),
(475,700,l),
(339,60,l)
);
},
{
closed = 1;
nodes = (
(356,0,l),
(386,0,l),
(401,70,l),
(339,60,l)
);
},
{
closed = 1;
nodes = (
(386,150,o),
(298,47,o),
(206,47,c),
(195,-8,l),
(306,-8,o),
(416,140,o),
(416,140,c),
(386,150,l)
);
},
{
closed = 1;
nodes = (
(463,360,l),
(463,360,o),
(415,508,o),
(304,508,c),
(293,452,l),
(385,452,o),
(429,350,o),
(429,350,c)
);
},
{
closed = 1;
nodes = (
(304,508,l),
(158,508,o),
(72,379,o),
(45,250,cs),
(17,121,o),
(49,-8,o),
(195,-8,c),
(206,47,l),
(95,47,o),
(84,145,o),
(107,250,cs),
(129,354,o),
(182,452,o),
(293,452,c)
);
}
);
width = 515;
},
{
anchors = (
{
name = bottom;
pos = (230,0);
},
{
name = center;
pos = (465,600);
},
{
name = top;
pos = (379,700);
},
{
name = topright;
pos = (621,700);
}
);
layerId = m004;
shapes = (
{
closed = 1;
nodes = (
(451,70,l),
(585,700,l),
(405,700,l),
(269,60,l)
);
},
{
closed = 1;
nodes = (
(286,0,l),
(436,0,l),
(451,70,l),
(269,60,l)
);
},
{
closed = 1;
nodes = (
(403,170,o),
(264,107,o),
(229,107,c),
(145,-8,l),
(256,-8,o),
(403,170,o),
(403,170,c),
(403,170,l)
);
},
{
closed = 1;
nodes = (
(437,330,l),
(437,330,o),
(365,508,o),
(254,508,c),
(290,392,l),
(325,392,o),
(437,330,o),
(437,330,c)
);
},
{
closed = 1;
nodes = (
(254,508,l),
(128,508,o),
(42,379,o),
(15,250,cs),
(-13,121,o),
(19,-8,o),
(145,-8,c),
(229,107,l),
(168,107,o),
(187,205,o),
(197,250,cs),
(206,294,o),
(229,392,o),
(290,392,c)
);
}
);
width = 524;
}
);
metricLeft = "=o";
metricRight = "=|h";
unicode = 100;
userData = {
KernOnName = d;
};
},
{
glyphname = eth;
kernLeft = KO_eth;
lastChange = "2022-10-23 21:31:42 +0000";
layers = (
{
layerId = m003;
shapes = (
{
closed = 1;
nodes = (
(499,407,o),
(520,674,o),
(223,677,c),
(212,626,l),
(342,622,o),
(445,566,o),
(422,317,c),
(401,392,o),
(327,403,o),
(288,403,cs),
(138,403,o),
(54,291,o),
(34,197,cs),
(14,103,o),
(50,-10,o),
(200,-10,cs),
(350,-10,o),
(434,103,o),
(465,248,cs)
);
},
{
closed = 1;
nodes = (
(373,132,o),
(322,45,o),
(212,45,cs),
(102,45,o),
(87,132,o),
(101,197,cs),
(115,262,o),
(166,348,o),
(276,348,cs),
(386,348,o),
(401,262,o),
(387,197,cs)
);
},
{
closed = 1;
nodes = (
(278,500,l),
(312,458,l),
(527,634,l),
(493,677,l)
);
}
);
width = 510;
},
{
layerId = m004;
shapes = (
{
closed = 1;
nodes = (
(596,407,o),
(674,674,o),
(298,677,c),
(246,556,l),
(409,556,o),
(425,481,o),
(412,402,c),
(412,402,o),
(397,433,o),
(337,433,cs),
(187,433,o),
(64,331,o),
(13,212,cs),
(-38,93,o),
(-1,-10,o),
(169,-10,cs),
(339,-10,o),
(467,103,o),
(528,248,cs)
);
},
{
closed = 1;
nodes = (
(316,177,o),
(280,105,o),
(217,105,cs),
(154,105,o),
(180,177,o),
(195,212,c),
(210,247,o),
(245,318,o),
(308,318,cs),
(371,318,o),
(346,247,o),
(331,212,cs)
);
},
{
closed = 1;
nodes = (
(289,497,l),
(344,449,l),
(569,657,l),
(513,707,l)
);
}
);
width = 561;
}
);
unicode = 240;
},
{
glyphname = e;
kernLeft = KO_e;
kernRight = KO_e;
lastChange = "2025-01-04 17:21:14 +0000";
layers = (
{
anchors = (
{
name = bottom;
pos = (167,0);
},
{
name = ogonek;
pos = (366,45);
},
{
name = top;
pos = (302,500);
}
);
layerId = m003;
name = "Light Italic";
shapes = (
{
closed = 1;
nodes = (
(348,92,o),
(269,48,o),
(177,48,c),
(165,-8,l),
(276,-8,o),
(366,45,o),
(366,45,c),
(348,92,l)
);
},
{
closed = 1;
nodes = (
(6,66,o),
(53,-8,o),
(165,-8,c),
(177,48,l),
(97,48,o),
(72,93,o),
(105,250,c),
(45,250,l)
);
},
{
closed = 1;
nodes = (
(158,508,o),
(72,379,o),
(45,250,c),
(105,250,l),
(127,354,o),
(181,453,o),
(292,453,cs),
(362,453,o),
(394,408,o),
(381,347,cs),
(361,253,o),
(223,246,o),
(105,251,c),
(94,196,l),
(171,195,l),
(282,195,o),
(414,223,o),
(441,347,cs),
(460,439,o),
(413,508,o),
(304,508,cs)
);
}
);
width = 465;
},
{
anchors = (
{
name = bottom;
pos = (167,0);
},
{
name = ogonek;
pos = (386,10);
},
{
name = top;
pos = (303,500);
}
);
layerId = m004;
name = "Black Italic";
shapes = (
{
closed = 1;
nodes = (
(406,147,o),
(312,108,o),
(230,108,c),
(165,-8,l),
(326,-8,o),
(426,45,o),
(426,45,cs),
(406,147,l)
);
},
{
closed = 1;
nodes = (
(-24,66,o),
(53,-8,o),
(165,-8,c),
(230,108,l),
(170,108,o),
(160,133,o),
(185,250,c),
(15,250,l)
);
},
{
closed = 1;
nodes = (
(128,508,o),
(42,379,o),
(15,250,c),
(185,250,l),
(206,347,o),
(239,393,o),
(279,393,cs),
(319,393,o),
(325,367,o),
(321,347,cs),
(316,327,o),
(300,301,o),
(197,306,c),
(94,196,l),
(171,195,l),
(322,195,o),
(454,223,o),
(481,347,cs),
(500,439,o),
(453,508,o),
(304,508,cs)
);
}
);
width = 485;
}
);
metricLeft = "=o";
metricRight = "=o";
unicode = 101;
userData = {
KernOnName = e;
};
},
{
glyphname = schwa;
kernLeft = KO_schwa;
kernRight = KO_o;
lastChange = "2024-04-20 20:02:54 +0000";
layers = (
{
layerId = m003;
name = "Light Italic";
shapes = (
{
closed = 1;
nodes = (
(316,-8,o),
(403,121,o),
(430,250,c),
(375,275,l),
(348,146,o),
(293,47,o),
(182,47,c),
(170,-8,l)
);
},
{
closed = 1;
nodes = (
(122,413,o),
(196,452,o),
(268,452,c),
(280,508,l),
(189,508,o),
(104,455,o),
(104,455,c),
(122,413,l)
);
},
{
closed = 1;
nodes = (
(430,250,ls),
(457,379,o),
(426,508,o),
(280,508,c),
(268,452,l),
(378,452,o),
(392,355,o),
(375,275,c),
(430,250,l)
);
},
{
closed = 1;
nodes = (
(391,275,l),
(50,275,l),
(50,225,l),
(381,225,l)
);
},
{
closed = 1;
nodes = (
(182,47,l),
(61,47,o),
(85,146,o),
(112,275,c),
(50,275,l),
(18,121,o),
(14,-8,o),
(170,-8,c)
);
}
);
width = 475;
},
{
layerId = m004;
name = "Black Italic";
shapes = (
{
closed = 1;
nodes = (
(356,-8,o),
(443,121,o),
(470,250,c),
(302,305,l),
(276,186,o),
(255,107,o),
(205,107,c),
(170,-8,l)
);
},
{
closed = 1;
nodes = (
(79,353,o),
(173,392,o),
(255,392,c),
(310,508,l),
(159,508,o),
(59,455,o),
(59,455,cs),
(79,353,l)
);
},
{
closed = 1;
nodes = (
(470,250,ls),
(497,379,o),
(462,508,o),
(310,508,c),
(255,392,l),
(315,392,o),
(312,355,o),
(302,305,c),
(470,250,l)
);
},
{
closed = 1;
nodes = (
(398,305,l),
(27,305,l),
(13,195,l),
(374,195,l)
);
},
{
closed = 1;
nodes = (
(205,107,l),
(155,107,o),
(173,186,o),
(199,305,c),
(27,305,l),
(-10,131,o),
(-16,-8,o),
(170,-8,c)
);
}
);
width = 485;
}
);
metricLeft = "=a";
metricRight = "=o";
unicode = 601;
},
{
glyphname = ezh;
lastChange = "2022-10-23 21:31:42 +0000";
layers = (
{
anchors = (
{
name = bottom;
pos = (201,0);
},
{
name = top;
pos = (307,500);
}
);
layerId = m003;
shapes = (
{
closed = 1;
nodes = (
(128,500,l),
(115,440,l),
(385,440,l),
(210,264,l),
(263,238,l),
(460,440,l),
(473,500,l)
);
},
{
closed = 1;
nodes = (
(297,-126,o),
(396,-59,o),
(424,69,c),
(448,183,o),
(380,264,o),
(210,264,c),
(198,209,l),
(320,209,o),
(370,157,o),
(352,69,cs),
(333,-19,o),
(262,-66,o),
(140,-66,c),
(127,-126,l)
);
},
{
closed = 1;
nodes = (
(140,-66,l),
(89,-66,o),
(47,-48,o),
(5,-28,c),
(-35,-80,l),
(9,-106,o),
(62,-126,o),
(127,-126,c)
);
}
);
width = 507;
},
{
anchors = (
{
name = bottom;
pos = (247,0);
},
{
name = top;
pos = (353,500);
}
);
layerId = m004;
shapes = (
{
closed = 1;
nodes = (
(93,500,l),
(68,380,l),
(318,380,l),
(175,264,l),
(284,198,l),
(498,380,l),
(523,500,l)
);
},
{
closed = 1;
nodes = (
(351,-156,o),
(451,-84,o),
(478,44,cs),
(505,172,o),
(440,264,o),
(175,264,c),
(151,149,l),
(248,149,o),
(305,132,o),
(289,59,cs),
(274,-14,o),
(208,-36,o),
(166,-36,c),
(141,-156,l)
);
},
{
closed = 1;
nodes = (
(166,-36,l),
(97,-36,o),
(49,-25,o),
(-9,2,c),
(-62,-110,l),
(-16,-131,o),
(49,-156,o),
(141,-156,c)
);
}
);
width = 537;
}
);
metricLeft = "=z";
unicode = 658;
},
{
glyphname = f;
kernLeft = KO_f;
kernRight = KO_f;
lastChange = "2024-12-31 15:21:34 +0000";
layers = (
{
layerId = m003;
shapes = (
{
closed = 1;
nodes = (
(117,0,l),
(230,533,l),
(250,625,o),
(274,653,o),
(329,653,cs),
(341,653,o),
(351,652,o),
(365,650,c),
(386,700,l),
(368,704,o),
(357,705,o),
(340,705,cs),
(240,705,o),
(196,654,o),
(163,500,c),
(57,0,l)
);
},
{
closed = 1;
nodes = (
(330,445,l),
(347,500,l),
(88,500,l),
(77,445,l)
);
}
);
width = 317;
},
{
layerId = m004;
shapes = (
{
closed = 1;
nodes = (
(205,0,l),
(318,533,l),
(325,565,o),
(332,593,o),
(364,593,cs),
(376,593,o),
(386,592,o),
(400,590,c),
(434,700,l),
(416,704,o),
(385,707,o),
(348,707,cs),
(208,707,o),
(164,654,o),
(131,500,c),
(25,0,l)
);
},
{
closed = 1;
nodes = (
(361,380,l),
(392,500,l),
(53,500,l),
(28,380,l)
);
}
);
width = 350;
}
);
unicode = 102;
userData = {
KernOnName = f;
};
},
{
glyphname = g;
kernLeft = KO_a;
kernRight = KO_g;
lastChange = "2024-12-31 15:21:34 +0000";
layers = (
{
anchors = (
{
name = bottom;
pos = (170,-200);
},
{
name = top;
pos = (303,500);
}
);
layerId = m003;
shapes = (
{
closed = 1;
nodes = (
(340,60,l),
(402,70,l),
(479,430,l),
(421,440,l)
);
},
{
closed = 1;
nodes = (
(340,60,l),
(302,-117,o),
(260,-153,o),
(180,-153,c),
(168,-208,l),
(280,-208,o),
(359,-134,o),
(387,-2,cs),
(402,70,l)
);
},
{
closed = 1;
nodes = (
(479,430,l),
(493,500,l),
(463,500,l),
(421,440,l)
);
},
{
closed = 1;
nodes = (
(387,150,o),
(299,47,o),
(207,47,c),
(195,-8,l),
(306,-8,o),
(417,140,o),
(417,140,c),
(387,150,l)
);
},
{
closed = 1;
nodes = (
(464,360,l),
(464,360,o),
(416,508,o),
(305,508,c),
(293,452,l),
(385,452,o),
(430,350,o),
(430,350,c)
);
},
{
closed = 1;
nodes = (
(305,508,l),
(159,508,o),
(73,379,o),
(45,250,cs),
(18,121,o),
(49,-8,o),
(195,-8,c),
(207,47,l),
(96,47,o),
(85,145,o),
(107,250,cs),
(129,354,o),
(182,452,o),
(293,452,c)
);
},
{
closed = 1;
nodes = (
(0,-155,l),
(0,-155,o),
(58,-208,o),
(169,-208,c),
(181,-153,l),
(89,-153,o),
(50,-121,o),
(35,-111,c)
);
}
);
width = 516;
},
{
anchors = (
{
name = bottom;
pos = (180,-200);
},
{
name = top;
pos = (316,500);
}
);
layerId = m004;
shapes = (
{
closed = 1;
nodes = (
(263,30,l),
(452,70,l),
(529,430,l),
(351,440,l)
);
},
{
closed = 1;
nodes = (
(263,30,l),
(244,-63,o),
(237,-93,o),
(172,-93,c),
(178,-208,l),
(290,-208,o),
(409,-134,o),
(437,-2,cs),
(452,70,l)
);
},
{
closed = 1;
nodes = (
(529,430,l),
(543,500,l),
(393,500,l),
(351,440,l)
);
},
{
closed = 1;
nodes = (
(403,170,o),
(265,107,o),
(230,107,c),
(145,-8,l),
(256,-8,o),
(403,170,o),
(403,170,c),
(403,170,l)
);
},
{
closed = 1;
nodes = (
(437,330,l),
(437,330,o),
(366,508,o),
(255,508,c),
(290,392,l),
(325,392,o),
(437,330,o),
(437,330,c)
);
},
{
closed = 1;
nodes = (
(255,508,l),
(129,508,o),
(43,379,o),
(15,250,cs),
(-12,121,o),
(19,-8,o),
(145,-8,c),
(230,107,l),
(169,107,o),
(188,205,o),
(197,250,cs),
(207,294,o),
(229,392,o),
(290,392,c)
);
},
{
closed = 1;
nodes = (
(-1,-155,l),
(-1,-155,o),
(68,-208,o),
(179,-208,c),
(173,-93,l),
(111,-93,o),
(70,-63,o),
(54,-53,c)
);
}
);
width = 526;
}
);
metricLeft = "=d";
metricRight = "=d";
unicode = 103;
userData = {
KernOnName = g;
};
},
{
glyphname = gstroke;
kernLeft = KO_a;
lastChange = "2024-04-20 20:05:52 +0000";
layers = (
{
anchors = (
{
name = bottom;
pos = (169,-200);
},
{
name = top;
pos = (303,500);
}
);
layerId = m003;
shapes = (
{
closed = 1;
nodes = (
(340,60,l),
(402,70,l),
(478,430,l),
(420,440,l)
);
},
{
closed = 1;
nodes = (
(340,60,l),
(302,-117,o),
(259,-153,o),
(179,-153,c),
(168,-208,l),
(280,-208,o),
(358,-134,o),
(386,-2,cs),
(402,70,l)
);
},
{
closed = 1;
nodes = (
(478,430,l),
(493,500,l),
(463,500,l),
(420,440,l)
);
},
{
closed = 1;
nodes = (
(387,150,o),
(299,47,o),
(207,47,c),
(195,-8,l),
(306,-8,o),
(417,140,o),
(417,140,c),
(387,150,l)
);
},
{
closed = 1;
nodes = (
(463,360,l),
(463,360,o),
(416,508,o),
(305,508,c),
(293,452,l),
(385,452,o),
(429,350,o),
(429,350,c)
);
},
{
closed = 1;
nodes = (
(305,508,l),
(159,508,o),
(72,379,o),
(45,250,cs),
(18,121,o),
(49,-8,o),
(195,-8,c),
(207,47,l),
(96,47,o),
(85,145,o),
(107,250,cs),
(129,354,o),
(182,452,o),
(293,452,c)
);
},
{
closed = 1;
nodes = (
(0,-155,l),
(0,-155,o),
(58,-208,o),
(169,-208,c),
(180,-153,l),
(88,-153,o),
(50,-121,o),
(34,-111,c)
);
},
{
closed = 1;
nodes = (
(441,-97,l),
(453,-42,l),
(203,-42,l),
(191,-97,l)
);
}
);
width = 519;
},
{
anchors = (
{
name = bottom;
pos = (179,-200);
},
{
name = top;
pos = (316,500);
}
);
layerId = m004;
shapes = (
{
closed = 1;
nodes = (
(263,30,l),
(452,70,l),
(528,430,l),
(350,440,l)
);
},
{
closed = 1;
nodes = (
(263,30,l),
(243,-63,o),
(237,-93,o),
(172,-93,c),
(178,-208,l),
(290,-208,o),
(408,-134,o),
(436,-2,cs),
(452,70,l)
);
},
{
closed = 1;
nodes = (
(528,430,l),
(543,500,l),
(393,500,l),
(350,440,l)
);
},
{
closed = 1;
nodes = (
(403,170,o),
(265,107,o),
(230,107,c),
(145,-8,l),
(256,-8,o),
(403,170,o),
(403,170,c),
(403,170,l)
);
},
{
closed = 1;
nodes = (
(437,330,l),
(437,330,o),
(366,508,o),
(255,508,c),
(290,392,l),
(325,392,o),
(437,330,o),
(437,330,c)
);
},
{
closed = 1;
nodes = (
(255,508,l),
(129,508,o),
(42,379,o),
(15,250,cs),
(-12,121,o),
(19,-8,o),
(145,-8,c),
(230,107,l),
(169,107,o),
(187,205,o),
(197,250,cs),
(206,294,o),
(229,392,o),
(290,392,c)
);
},
{
closed = 1;
nodes = (
(-1,-155,l),
(-1,-155,o),
(68,-208,o),
(179,-208,c),
(173,-93,l),
(111,-93,o),
(69,-63,o),
(54,-53,c)
);
},
{
closed = 1;
nodes = (
(455,-67,l),
(466,-12,l),
(190,-12,l),
(179,-67,l)
);
}
);
width = 526;
}
);
metricLeft = "=d";
unicode = 485;
},
{
glyphname = h;
kernLeft = KO_i;
kernRight = KO_n;
lastChange = "2024-12-31 15:21:32 +0000";
layers = (
{
anchors = (
{
name = bottom;
pos = (205,0);
},
{
name = center;
pos = (279,350);
},
{
name = top;
pos = (347,670);
}
);
layerId = m003;
shapes = (
{
closed = 1;
nodes = (
(440,250,l),
(451,302,ls),
(479,434,o),
(432,508,o),
(320,508,c),
(308,453,l),
(388,453,o),
(413,407,o),
(380,250,c)
);
},
{
closed = 1;
nodes = (
(231,700,l),
(171,700,l),
(22,0,l),
(81,-1,l)
);
},
{
closed = 1;
nodes = (
(387,0,l),
(440,250,l),
(380,250,l),
(327,0,l)
);
},
{
closed = 1;
nodes = (
(128,350,o),
(216,453,o),
(308,453,c),
(320,508,l),
(209,508,o),
(98,360,o),
(98,360,c),
(128,350,l)
);
}
);
width = 515;
},
{
anchors = (
{
name = bottom;
pos = (205,0);
},
{
name = center;
pos = (279,350);
},
{
name = top;
pos = (351,690);
}
);
layerId = m004;
shapes = (
{
closed = 1;
nodes = (
(480,250,l),
(491,302,ls),
(519,434,o),
(472,508,o),
(380,508,c),
(291,373,l),
(326,373,o),
(316,327,o),
(300,250,c)
);
},
{
closed = 1;
nodes = (
(311,700,l),
(131,700,l),
(-18,0,l),
(161,-1,l)
);
},
{
closed = 1;
nodes = (
(427,0,l),
(480,250,l),
(300,250,l),
(247,0,l)
);
},
{
closed = 1;
nodes = (
(122,330,o),
(256,373,o),
(291,373,c),
(380,508,l),
(269,508,o),
(122,330,o),
(122,330,c),
(122,330,l)
);
}
);
width = 515;
}
);
metricLeft = "=b";
metricRight = "=n";
unicode = 104;
userData = {
KernOnName = h;
};
},
{
glyphname = hbar;
kernRight = KO_n;
lastChange = "2022-10-23 18:28:17 +0000";
layers = (
{
anchors = (
{
name = bottom;
pos = (206,0);
},
{
name = center;
pos = (280,350);
},
{
name = top;
pos = (348,670);
}
);
layerId = m003;
shapes = (
{
closed = 1;
nodes = (
(440,250,l),
(451,302,ls),
(479,434,o),
(432,508,o),
(320,508,c),
(308,453,l),
(388,453,o),
(413,407,o),
(380,250,c)
);
},
{
closed = 1;
nodes = (
(233,710,l),
(171,700,l),
(22,0,l),
(82,-1,l)
);
},
{
closed = 1;
nodes = (
(387,0,l),
(440,250,l),
(380,250,l),
(327,0,l)
);
},
{
closed = 1;
nodes = (
(128,350,o),
(216,453,o),
(308,453,c),
(320,508,l),
(209,508,o),
(98,360,o),
(98,360,c),
(128,350,l)
);
},
{
closed = 1;
nodes = (
(334,573,l),
(345,628,l),
(85,628,l),
(74,573,l)
);
}
);
width = 515;
},
{
anchors = (
{
name = bottom;
pos = (205,0);
},
{
name = center;
pos = (279,350);
},
{
name = top;
pos = (351,690);
}
);
layerId = m004;
shapes = (
{
closed = 1;
nodes = (
(480,250,l),
(491,302,ls),
(519,434,o),
(472,508,o),
(380,508,c),
(291,373,l),
(326,373,o),
(316,327,o),
(300,250,c)
);
},
{
closed = 1;
nodes = (
(313,710,l),
(129,694,l),
(-18,0,l),
(162,-1,l)
);
},
{
closed = 1;
nodes = (
(427,0,l),
(480,250,l),
(300,250,l),
(247,0,l)
);
},
{
closed = 1;
nodes = (
(122,330,o),
(256,373,o),
(291,373,c),
(380,508,l),
(269,508,o),
(122,330,o),
(122,330,c),
(122,330,l)
);
},
{
closed = 1;
nodes = (
(387,540,l),
(412,660,l),
(52,660,l),
(27,540,l)
);
}
);
width = 515;
}
);
metricRight = "=n";
unicode = 295;
},
{
glyphname = i;
kernLeft = KO_i;
kernRight = KO_i;
lastChange = "2024-12-31 15:21:32 +0000";
layers = (
{
layerId = m003;
shapes = (
{
closed = 1;
nodes = (
(82,0,l),
(188,500,l),
(128,500,l),
(22,0,l)
);
},
{
closed = 1;
nodes = (
(201,585,o),
(225,605,o),
(231,630,cs),
(236,655,o),
(220,675,o),
(195,675,cs),
(170,675,o),
(146,655,o),
(141,630,cs),
(135,605,o),
(151,585,o),
(176,585,cs)
);
}
);
width = 210;
},
{
layerId = m004;
shapes = (
{
closed = 1;
nodes = (
(162,0,l),
(269,500,l),
(89,500,l),
(-18,0,l)
);
},
{
closed = 1;
nodes = (
(240,530,o),
(294,574,o),
(306,630,cs),
(318,685,o),
(283,730,o),
(228,730,cs),
(172,730,o),
(118,685,o),
(106,630,cs),
(94,574,o),
(129,530,o),
(185,530,cs)
);
}
);
width = 250;
}
);
metricRight = "=|";
unicode = 105;
userData = {
KernOnName = i;
};
},
{
glyphname = idotless;
kernLeft = KO_n;
kernRight = KO_g;
lastChange = "2025-01-04 17:24:57 +0000";
layers = (
{
anchors = (
{
name = bottom;
pos = (52,0);
},
{
name = ogonek;
pos = (82,0);
},
{
name = top;
pos = (158,500);
}
);
layerId = m003;
shapes = (
{
closed = 1;
nodes = (
(82,0,l),
(188,500,l),
(128,500,l),
(22,0,l)
);
}
);
width = 210;
},
{
anchors = (
{
name = bottom;
pos = (72,0);
},
{
name = ogonek;
pos = (162,0);
},
{
name = top;
pos = (178,500);
}
);
layerId = m004;
shapes = (
{
closed = 1;
nodes = (
(162,0,l),
(268,500,l),
(88,500,l),
(-18,0,l)
);
}
);
width = 250;
}
);
metricRight = "=|";
unicode = 305;
},
{
glyphname = j;
kernLeft = KO_j;
kernRight = KO_i;
lastChange = "2024-12-31 15:21:32 +0000";
layers = (
{
layerId = m003;
shapes = (
{
closed = 1;
nodes = (
(204,585,o),
(228,605,o),
(234,630,cs),
(239,655,o),
(223,675,o),
(198,675,cs),
(173,675,o),
(149,655,o),
(144,630,cs),
(138,605,o),
(154,585,o),
(179,585,cs)
);
},
{
closed = 1;
nodes = (
(131,500,l),
(18,-33,l),
(-2,-125,o),
(-26,-153,o),
(-81,-153,cs),
(-93,-153,o),
(-102,-152,o),
(-117,-150,c),
(-138,-200,l),
(-120,-204,o),
(-109,-205,o),
(-92,-205,cs),
(8,-205,o),
(52,-154,o),
(85,0,c),
(191,500,l)
);
}
);
width = 213;
},
{
layerId = m004;
shapes = (
{
closed = 1;
nodes = (
(230,530,o),
(284,574,o),
(296,630,cs),
(307,685,o),
(272,730,o),
(217,730,cs),
(161,730,o),
(107,685,o),
(96,630,cs),
(84,574,o),
(119,530,o),
(175,530,cs)
);
},
{
closed = 1;
nodes = (
(78,500,l),
(-35,-33,l),
(-42,-65,o),
(-49,-93,o),
(-81,-93,cs),
(-93,-93,o),
(-103,-92,o),
(-117,-90,c),
(-151,-200,l),
(-133,-204,o),
(-102,-207,o),
(-65,-207,cs),
(75,-207,o),
(119,-154,o),
(152,0,c),
(258,500,l)
);
}
);
width = 240;
}
);
metricRight = "=i";
unicode = 106;
userData = {
KernOnName = j;
};
},
{
glyphname = jdotless;
lastChange = "2022-10-21 12:21:00 +0000";
layers = (
{
anchors = (
{
name = bottom;
pos = (9,-200);
},
{
name = top;
pos = (158,500);
}
);
layerId = m003;
shapes = (
{
closed = 1;
nodes = (
(128,500,l),
(15,-33,l),
(-5,-125,o),
(-29,-153,o),
(-84,-153,cs),
(-96,-153,o),
(-105,-152,o),
(-120,-150,c),
(-141,-200,l),
(-123,-204,o),
(-112,-205,o),
(-95,-205,cs),
(5,-205,o),
(49,-154,o),
(82,0,c),
(188,500,l)
);
}
);
width = 210;
},
{
anchors = (
{
name = bottom;
pos = (19,-200);
},
{
name = top;
pos = (168,500);
}
);
layerId = m004;
shapes = (
{
closed = 1;
nodes = (
(78,500,l),
(-35,-33,l),
(-42,-65,o),
(-49,-93,o),
(-81,-93,cs),
(-93,-93,o),
(-103,-92,o),
(-117,-90,c),
(-151,-200,l),
(-133,-204,o),
(-102,-207,o),
(-65,-207,cs),
(75,-207,o),
(119,-154,o),
(152,0,c),
(258,500,l)
);
}
);
width = 230;
}
);
unicode = 567;
},
{
glyphname = k;
kernLeft = KO_i;
kernRight = KO_k;
lastChange = "2024-12-31 15:21:34 +0000";
layers = (
{
anchors = (
{
name = bottom;
pos = (191,0);
},
{
name = top;
pos = (330,657);
}
);
layerId = m003;
shapes = (
{
closed = 1;
nodes = (
(503,500,l),
(423,500,l),
(135,250,l),
(118,170,l)
);
},
{
closed = 1;
nodes = (
(231,700,l),
(171,700,l),
(22,0,l),
(81,-1,l)
);
},
{
closed = 1;
nodes = (
(397,0,l),
(258,320,l),
(212,270,l),
(327,0,l)
);
}
);
width = 487;
},
{
anchors = (
{
name = bottom;
pos = (202,0);
},
{
name = top;
pos = (351,690);
}
);
layerId = m004;
shapes = (
{
closed = 1;
nodes = (
(563,500,l),
(373,500,l),
(151,280,l),
(187,120,l)
);
},
{
closed = 1;
nodes = (
(311,700,l),
(131,700,l),
(-18,0,l),
(161,-1,l)
);
},
{
closed = 1;
nodes = (
(457,0,l),
(347,340,l),
(195,330,l),
(257,0,l)
);
}
);
width = 510;
}
);
unicode = 107;
userData = {
KernOnName = k;
};
},
{
glyphname = l;
kernLeft = KO_l;
kernRight = KO_l;
lastChange = "2024-12-31 15:21:34 +0000";
layers = (
{
anchors = (
{
name = bottom;
pos = (74,0);
},
{
name = center;
pos = (148,350);
},
{
name = top;
pos = (223,700);
},
{
name = topright;
pos = (328,700);
}
);
layerId = m003;
shapes = (
{
closed = 1;
nodes = (
(93,50,o),
(105,105,o),
(124,196,cs),
(231,700,l),
(171,700,l),
(64,196,ls),
(41,87,o),
(23,0,o),
(128,0,c),
(138,50,l)
);
},
{
closed = 1;
nodes = (
(128,0,l),
(152,0,l),
(162,50,l),
(138,50,l)
);
}
);
width = 231;
},
{
anchors = (
{
name = bottom;
pos = (84,0);
},
{
name = center;
pos = (158,350);
},
{
name = top;
pos = (208,690);
},
{
name = topright;
pos = (373,700);
}
);
layerId = m004;
shapes = (
{
closed = 1;
nodes = (
(176,110,o),
(187,165,o),
(194,196,cs),
(301,700,l),
(121,700,l),
(14,196,ls),
(-9,87,o),
(13,0,o),
(158,0,c),
(221,110,l)
);
},
{
closed = 1;
nodes = (
(158,0,l),
(223,0,l),
(246,110,l),
(221,110,l)
);
}
);
width = 276;
}
);
unicode = 108;
userData = {
KernOnName = l;
};
},
{
glyphname = lslash;
kernLeft = KO_lslash;
lastChange = "2022-10-23 18:08:52 +0000";
layers = (
{
anchors = (
{
name = bottom;
pos = (52,0);
},
{
name = center;
pos = (126,350);
},
{
name = top;
pos = (201,700);
},
{
name = topright;
pos = (306,700);
}
);
layerId = m003;
shapes = (
{
closed = 1;
nodes = (
(92,50,o),
(104,105,o),
(124,196,cs),
(233,710,l),
(171,700,l),
(64,196,ls),
(40,87,o),
(22,0,o),
(127,0,c),
(137,50,l)
);
},
{
closed = 1;
nodes = (
(127,0,l),
(151,0,l),
(161,50,l),
(137,50,l)
);
},
{
closed = 1;
nodes = (
(-4,311,l),
(14,264,l),
(257,389,l),
(239,436,l)
);
}
);
width = 230;
},
{
anchors = (
{
name = bottom;
pos = (62,0);
},
{
name = center;
pos = (136,350);
},
{
name = top;
pos = (211,700);
},
{
name = topright;
pos = (351,700);
}
);
layerId = m004;
shapes = (
{
closed = 1;
nodes = (
(175,110,o),
(187,165,o),
(194,196,cs),
(303,710,l),
(121,700,l),
(14,196,ls),
(-10,87,o),
(12,0,o),
(157,0,c),
(220,110,l)
);
},
{
closed = 1;
nodes = (
(157,0,l),
(222,0,l),
(245,110,l),
(220,110,l)
);
},
{
closed = 1;
nodes = (
(-62,310,l),
(-25,205,l),
(336,391,l),
(298,495,l)
);
}
);
width = 301;
}
);
unicode = 322;
},
{
glyphname = m;
kernLeft = KO_n;
kernRight = KO_m;
lastChange = "2024-12-31 15:30:27 +0000";
layers = (
{
anchors = (
{
name = bottom;
pos = (307,0);
},
{
name = top;
pos = (413,500);
}
);
layerId = m003;
shapes = (
{
closed = 1;
nodes = (
(399,302,ls),
(424,434,o),
(380,508,o),
(288,508,c),
(276,453,l),
(336,453,o),
(363,407,o),
(329,250,c),
(389,250,l)
);
},
{
closed = 1;
nodes = (
(21,0,l),
(81,0,l),
(175,440,l),
(112,430,l)
);
},
{
closed = 1;
nodes = (
(276,0,l),
(336,0,l),
(389,250,l),
(329,250,l)
);
},
{
closed = 1;
nodes = (
(531,0,l),
(591,0,l),
(644,250,l),
(584,250,l)
);
},
{
closed = 1;
nodes = (
(654,302,ls),
(679,434,o),
(635,508,o),
(543,508,c),
(531,453,l),
(591,453,o),
(618,407,o),
(584,250,c),
(644,250,l)
);
},
{
closed = 1;
nodes = (
(157,500,l),
(127,500,l),
(112,430,l),
(175,440,l)
);
},
{
closed = 1;
nodes = (
(122,350,o),
(200,453,o),
(277,453,c),
(289,508,l),
(196,508,o),
(98,360,o),
(98,360,c),
(122,350,l)
);
},
{
closed = 1;
nodes = (
(376,350,o),
(454,453,o),
(531,453,c),
(543,508,l),
(450,508,o),
(358,390,o),
(358,390,c),
(376,350,l)
);
}
);
width = 719;
},
{
anchors = (
{
name = bottom;
pos = (338,0);
},
{
name = top;
pos = (444,500);
}
);
layerId = m004;
shapes = (
{
closed = 1;
nodes = (
(490,302,ls),
(515,434,o),
(531,508,o),
(399,508,c),
(300,373,l),
(326,373,o),
(316,327,o),
(300,250,c),
(480,250,l)
);
},
{
closed = 1;
nodes = (
(-18,0,l),
(162,0,l),
(255,440,l),
(58,360,l)
);
},
{
closed = 1;
nodes = (
(247,0,l),
(427,0,l),
(480,250,l),
(300,250,l)
);
},
{
closed = 1;
nodes = (
(512,0,l),
(692,0,l),
(745,250,l),
(565,250,l)
);
},
{
closed = 1;
nodes = (
(755,302,ls),
(780,434,o),
(796,508,o),
(664,508,c),
(565,373,l),
(591,373,o),
(581,327,o),
(565,250,c),
(745,250,l)
);
},
{
closed = 1;
nodes = (
(238,500,l),
(88,500,l),
(58,360,l),
(255,440,l)
);
},
{
closed = 1;
nodes = (
(149,330,o),
(264,373,o),
(301,373,c),
(400,508,l),
(287,508,o),
(149,330,o),
(149,330,c),
(149,330,l)
);
},
{
closed = 1;
nodes = (
(413,330,o),
(539,373,o),
(565,373,c),
(664,508,l),
(571,508,o),
(413,330,o),
(413,330,c),
(413,330,l)
);
}
);
width = 780;
}
);
metricRight = "=n";
unicode = 109;
userData = {
KernOnName = m;
};
},
{
glyphname = n;
kernLeft = KO_n;
kernRight = KO_n;
lastChange = "2024-12-31 15:21:32 +0000";
layers = (
{
anchors = (
{
name = bottom;
pos = (212,0);
},
{
name = top;
pos = (318,500);
}
);
layerId = m003;
shapes = (
{
closed = 1;
nodes = (
(450,302,ls),
(475,434,o),
(431,508,o),
(319,508,c),
(307,453,l),
(387,453,o),
(413,407,o),
(380,250,c),
(440,250,l)
);
},
{
closed = 1;
nodes = (
(22,0,l),
(82,0,l),
(175,440,l),
(98,360,l)
);
},
{
closed = 1;
nodes = (
(327,0,l),
(387,0,l),
(440,250,l),
(380,250,l)
);
},
{
closed = 1;
nodes = (
(158,500,l),
(128,500,l),
(98,360,l),
(175,440,l)
);
},
{
closed = 1;
nodes = (
(128,350,o),
(216,453,o),
(308,453,c),
(320,508,l),
(209,508,o),
(98,360,o),
(98,360,c),
(128,350,l)
);
}
);
width = 515;
},
{
anchors = (
{
name = bottom;
pos = (205,0);
},
{
name = top;
pos = (311,500);
}
);
layerId = m004;
shapes = (
{
closed = 1;
nodes = (
(491,302,ls),
(519,435,o),
(471,508,o),
(379,508,c),
(290,373,l),
(326,373,o),
(316,327,o),
(300,250,c),
(480,250,l)
);
},
{
closed = 1;
nodes = (
(-18,0,l),
(162,0,l),
(255,440,l),
(58,360,l)
);
},
{
closed = 1;
nodes = (
(247,0,l),
(427,0,l),
(480,250,l),
(300,250,l)
);
},
{
closed = 1;
nodes = (
(238,500,l),
(88,500,l),
(58,360,l),
(255,440,l)
);
},
{
closed = 1;
nodes = (
(122,330,o),
(256,373,o),
(291,373,c),
(380,508,l),
(269,508,o),
(122,330,o),
(122,330,c),
(122,330,l)
);
}
);
width = 515;
}
);
unicode = 110;
userData = {
KernOnName = n;
};
},
{
glyphname = eng;
kernLeft = KO_n;
kernRight = KO_n;
lastChange = "2022-10-23 19:20:49 +0000";
layers = (
{
anchors = (
{
name = bottom;
pos = (212,0);
},
{
name = top;
pos = (318,500);
}
);
layerId = m003;
shapes = (
{
closed = 1;
nodes = (
(450,302,ls),
(475,434,o),
(431,508,o),
(319,508,c),
(307,453,l),
(387,453,o),
(413,407,o),
(380,250,c),
(440,250,l)
);
},
{
closed = 1;
nodes = (
(22,0,l),
(82,0,l),
(175,440,l),
(98,360,l)
);
},
{
closed = 1;
nodes = (
(327,0,l),
(387,0,l),
(440,250,l),
(380,250,l)
);
},
{
closed = 1;
nodes = (
(158,500,l),
(128,500,l),
(98,360,l),
(175,440,l)
);
},
{
closed = 1;
nodes = (
(128,350,o),
(216,453,o),
(308,453,c),
(320,508,l),
(209,508,o),
(98,360,o),
(98,360,c),
(128,350,l)
);
},
{
closed = 1;
nodes = (
(340,60,l),
(302,-117,o),
(259,-153,o),
(179,-153,c),
(168,-208,l),
(280,-208,o),
(358,-134,o),
(386,-2,cs),
(387,0,l)
);
}
);
width = 515;
},
{
anchors = (
{
name = bottom;
pos = (205,0);
},
{
name = top;
pos = (311,500);
}
);
layerId = m004;
shapes = (
{
closed = 1;
nodes = (
(491,302,ls),
(519,435,o),
(471,508,o),
(379,508,c),
(290,373,l),
(326,373,o),
(316,327,o),
(300,250,c),
(480,250,l)
);
},
{
closed = 1;
nodes = (
(-18,0,l),
(162,0,l),
(255,440,l),
(58,360,l)
);
},
{
closed = 1;
nodes = (
(247,0,l),
(427,0,l),
(480,250,l),
(300,250,l)
);
},
{
closed = 1;
nodes = (
(238,500,l),
(88,500,l),
(58,360,l),
(255,440,l)
);
},
{
closed = 1;
nodes = (
(122,330,o),
(256,373,o),
(291,373,c),
(380,508,l),
(269,508,o),
(122,330,o),
(122,330,c),
(122,330,l)
);
},
{
closed = 1;
nodes = (
(253,30,l),
(233,-63,o),
(227,-93,o),
(162,-93,c),
(138,-208,l),
(280,-208,o),
(398,-134,o),
(426,-2,cs),
(427,0,l)
);
}
);
width = 515;
}
);
unicode = 331;
},
{
glyphname = o;
kernLeft = KO_o;
kernRight = KO_o;
lastChange = "2024-12-31 15:24:44 +0000";
layers = (
{
anchors = (
{
name = bottom;
pos = (197,0);
},
{
name = center;
pos = (250,250);
},
{
name = ogonek;
pos = (399,10);
},
{
name = top;
pos = (303,500);
},
{
name = topright;
pos = (533,500);
}
);
layerId = m003;
shapes = (
{
closed = 1;
nodes = (
(18,121,o),
(49,-8,o),
(195,-8,cs),
(341,-8,o),
(428,121,o),
(455,250,cs),
(482,379,o),
(451,508,o),
(305,508,cs),
(159,508,o),
(72,379,o),
(45,250,cs)
);
},
{
closed = 1;
nodes = (
(129,354,o),
(182,452,o),
(293,452,cs),
(404,452,o),
(415,354,o),
(393,250,cs),
(371,145,o),
(318,47,o),
(207,47,cs),
(96,47,o),
(85,145,o),
(107,250,cs)
);
}
);
width = 500;
},
{
anchors = (
{
name = bottom;
pos = (207,0);
},
{
name = center;
pos = (260,250);
},
{
name = ogonek;
pos = (417,10);
},
{
name = top;
pos = (313,500);
},
{
name = topright;
pos = (553,500);
}
);
layerId = m004;
shapes = (
{
closed = 1;
nodes = (
(-12,121,o),
(19,-8,o),
(205,-8,cs),
(391,-8,o),
(478,121,o),
(505,250,cs),
(532,379,o),
(501,508,o),
(315,508,cs),
(129,508,o),
(42,379,o),
(15,250,cs)
);
},
{
closed = 1;
nodes = (
(206,294,o),
(229,392,o),
(290,392,cs),
(351,392,o),
(332,294,o),
(323,250,cs),
(313,205,o),
(291,107,o),
(230,107,cs),
(169,107,o),
(187,205,o),
(197,250,cs)
);
}
);
width = 520;
}
);
metricRight = "=|";
unicode = 111;
userData = {
KernOnName = o;
};
},
{
glyphname = oslash;
kernLeft = KO_oslash;
lastChange = "2024-12-31 15:52:48 +0000";
layers = (
{
anchors = (
{
name = top;
pos = (326,500);
}
);
layerId = m004;
name = "Black Italic";
shapes = (
{
closed = 1;
nodes = (
(404,-8,o),
(491,121,o),
(518,250,cs),
(545,379,o),
(514,508,o),
(328,508,cs),
(142,508,o),
(55,379,o),
(28,250,cs),
(1,121,o),
(32,-8,o),
(218,-8,cs)
);
},
{
closed = 1;
nodes = (
(182,107,o),
(200,205,o),
(210,250,cs),
(219,294,o),
(242,392,o),
(303,392,cs),
(364,392,o),
(345,294,o),
(336,250,cs),
(326,205,o),
(304,107,o),
(243,107,cs)
);
},
{
closed = 1;
nodes = (
(438,333,l),
(577,465,l),
(501,541,l),
(379,425,l)
);
},
{
closed = 1;
nodes = (
(115,174,l),
(-31,35,l),
(45,-41,l),
(172,79,l)
);
}
);
width = 546;
},
{
anchors = (
{
name = top;
pos = (314,500);
}
);
layerId = m003;
name = "Light Italic";
shapes = (
{
closed = 1;
nodes = (
(352,-8,o),
(439,121,o),
(466,250,cs),
(493,379,o),
(462,508,o),
(316,508,cs),
(170,508,o),
(83,379,o),
(56,250,cs),
(29,121,o),
(60,-8,o),
(206,-8,cs)
);
},
{
closed = 1;
nodes = (
(107,47,o),
(96,145,o),
(118,250,cs),
(140,354,o),
(193,452,o),
(304,452,cs),
(415,452,o),
(426,354,o),
(404,250,cs),
(382,145,o),
(329,47,o),
(218,47,cs)
);
},
{
closed = 1;
nodes = (
(436,379,l),
(522,461,l),
(484,499,l),
(411,429,l)
);
},
{
closed = 1;
nodes = (
(79,114,l),
(0,39,l),
(38,1,l),
(108,68,l)
);
}
);
width = 522;
}
);
metricLeft = "=o";
metricRight = "=o";
unicode = 248;
},
{
glyphname = oe;
kernLeft = KO_o;
lastChange = "2022-10-21 20:53:06 +0000";
layers = (
{
layerId = m003;
shapes = (
{
closed = 1;
nodes = (
(341,-8,o),
(418,121,o),
(445,250,cs),
(472,379,o),
(451,508,o),
(305,508,cs),
(159,508,o),
(72,379,o),
(45,250,cs),
(18,121,o),
(49,-8,o),
(195,-8,cs)
);
},
{
closed = 1;
nodes = (
(96,47,o),
(85,145,o),
(107,250,cs),
(129,354,o),
(182,452,o),
(293,452,cs),
(404,452,o),
(415,354,o),
(393,250,cs),
(371,145,o),
(318,47,o),
(207,47,cs)
);
},
{
closed = 1;
nodes = (
(555,48,l),
(445,48,o),
(431,145,o),
(448,225,c),
(403,250,l),
(376,121,o),
(397,-8,o),
(543,-8,c)
);
},
{
closed = 1;
nodes = (
(634,-8,o),
(719,45,o),
(719,45,c),
(701,87,l),
(701,87,o),
(627,48,o),
(555,48,c),
(543,-8,l)
);
},
{
closed = 1;
nodes = (
(475,354,o),
(530,453,o),
(641,453,c),
(653,508,l),
(507,508,o),
(430,379,o),
(403,250,c),
(448,225,l)
);
},
{
closed = 1;
nodes = (
(773,225,l),
(805,379,o),
(809,508,o),
(653,508,c),
(641,453,l),
(762,453,o),
(738,354,o),
(711,225,c)
);
},
{
closed = 1;
nodes = (
(773,225,l),
(773,275,l),
(442,275,l),
(432,225,l)
);
}
);
width = 823;
},
{
layerId = m004;
shapes = (
{
closed = 1;
nodes = (
(391,-8,o),
(408,121,o),
(435,250,cs),
(462,379,o),
(501,508,o),
(315,508,cs),
(129,508,o),
(42,379,o),
(15,250,cs),
(-12,121,o),
(19,-8,o),
(205,-8,cs)
);
},
{
closed = 1;
nodes = (
(169,107,o),
(187,205,o),
(197,250,cs),
(206,294,o),
(229,392,o),
(290,392,cs),
(351,392,o),
(332,294,o),
(323,250,cs),
(313,205,o),
(291,107,o),
(230,107,cs)
);
},
{
closed = 1;
nodes = (
(538,108,l),
(478,108,o),
(481,145,o),
(491,195,c),
(393,250,l),
(366,121,o),
(331,-8,o),
(483,-8,c)
);
},
{
closed = 1;
nodes = (
(634,-8,o),
(734,45,o),
(734,45,cs),
(714,147,l),
(714,147,o),
(620,108,o),
(538,108,c),
(483,-8,l)
);
},
{
closed = 1;
nodes = (
(517,314,o),
(538,393,o),
(588,393,c),
(623,508,l),
(437,508,o),
(420,379,o),
(393,250,c),
(491,195,l)
);
},
{
closed = 1;
nodes = (
(766,195,l),
(803,369,o),
(809,508,o),
(623,508,c),
(588,393,l),
(638,393,o),
(620,314,o),
(594,195,c)
);
},
{
closed = 1;
nodes = (
(766,195,l),
(780,305,l),
(419,305,l),
(395,195,l)
);
}
);
width = 793;
}
);
metricLeft = "=o";
metricRight = "=e";
unicode = 339;
},
{
glyphname = p;
kernLeft = KO_n;
kernRight = KO_b;
lastChange = "2024-12-31 15:21:32 +0000";
layers = (
{
layerId = m003;
shapes = (
{
closed = 1;
nodes = (
(114,430,l),
(-20,-200,l),
(40,-200,l),
(176,440,l)
);
},
{
closed = 1;
nodes = (
(159,500,l),
(129,500,l),
(114,430,l),
(176,440,l)
);
},
{
closed = 1;
nodes = (
(129,350,o),
(217,453,o),
(309,453,c),
(320,508,l),
(209,508,o),
(99,360,o),
(99,360,c),
(129,350,l)
);
},
{
closed = 1;
nodes = (
(52,140,l),
(52,140,o),
(100,-8,o),
(211,-8,c),
(222,48,l),
(130,48,o),
(86,150,o),
(86,150,c)
);
},
{
closed = 1;
nodes = (
(211,-8,l),
(357,-8,o),
(443,121,o),
(470,250,cs),
(498,379,o),
(466,508,o),
(320,508,c),
(309,453,l),
(420,453,o),
(431,355,o),
(408,250,cs),
(386,146,o),
(333,48,o),
(222,48,c)
);
}
);
width = 515;
},
{
layerId = m004;
shapes = (
{
closed = 1;
nodes = (
(73,430,l),
(-61,-200,l),
(116,-200,l),
(255,440,l)
);
},
{
closed = 1;
nodes = (
(238,500,l),
(88,500,l),
(73,430,l),
(255,440,l)
);
},
{
closed = 1;
nodes = (
(121,330,o),
(260,393,o),
(295,393,c),
(379,508,l),
(268,508,o),
(121,330,o),
(121,330,c),
(121,330,l)
);
},
{
closed = 1;
nodes = (
(87,170,l),
(87,170,o),
(159,-8,o),
(270,-8,c),
(234,108,l),
(199,108,o),
(87,170,o),
(87,170,c)
);
},
{
closed = 1;
nodes = (
(270,-8,l),
(396,-8,o),
(482,121,o),
(509,250,cs),
(537,379,o),
(505,508,o),
(379,508,c),
(295,393,l),
(356,393,o),
(337,295,o),
(327,250,cs),
(318,206,o),
(295,108,o),
(234,108,c)
);
}
);
width = 524;
}
);
metricLeft = "=n";
metricRight = "=o";
unicode = 112;
userData = {
KernOnName = p;
};
},
{
glyphname = thorn;
kernLeft = KO_i;
kernRight = KO_b;
lastChange = "2022-11-22 23:06:44 +0000";
layers = (
{
layerId = m003;
shapes = (
{
closed = 1;
nodes = (
(231,700,l),
(171,700,l),
(-21,-200,l),
(39,-200,l)
);
},
{
closed = 1;
nodes = (
(52,140,l),
(52,140,o),
(99,-8,o),
(210,-8,c),
(222,47,l),
(130,47,o),
(86,150,o),
(86,150,c)
);
},
{
closed = 1;
nodes = (
(128,350,o),
(216,452,o),
(308,452,c),
(320,508,l),
(209,508,o),
(98,360,o),
(98,360,c),
(128,350,l)
);
},
{
closed = 1;
nodes = (
(419,452,o),
(430,354,o),
(408,250,cs),
(386,145,o),
(333,47,o),
(222,47,c),
(210,-8,l),
(356,-8,o),
(443,121,o),
(470,250,cs),
(497,379,o),
(466,508,o),
(320,508,c),
(308,452,l)
);
}
);
width = 515;
},
{
layerId = m004;
shapes = (
{
closed = 1;
nodes = (
(311,700,l),
(131,700,l),
(-61,-200,l),
(119,-200,l)
);
},
{
closed = 1;
nodes = (
(88,170,l),
(88,170,o),
(159,-8,o),
(270,-8,c),
(235,107,l),
(200,107,o),
(88,170,o),
(88,170,c)
);
},
{
closed = 1;
nodes = (
(122,330,o),
(260,392,o),
(295,392,c),
(380,508,l),
(269,508,o),
(122,330,o),
(122,330,c),
(122,330,l)
);
},
{
closed = 1;
nodes = (
(356,392,o),
(337,294,o),
(328,250,cs),
(318,205,o),
(296,107,o),
(235,107,c),
(270,-8,l),
(396,-8,o),
(483,121,o),
(510,250,cs),
(537,379,o),
(506,508,o),
(380,508,c),
(295,392,l)
);
}
);
width = 525;
}
);
metricLeft = "=b";
metricRight = "=b";
unicode = 254;
},
{
glyphname = q;
kernLeft = KO_a;
kernRight = KO_g;
lastChange = "2024-04-20 20:06:07 +0000";
layers = (
{
layerId = m003;
shapes = (
{
closed = 1;
nodes = (
(285,-200,l),
(345,-200,l),
(479,430,l),
(421,440,l)
);
},
{
closed = 1;
nodes = (
(479,430,l),
(494,500,l),
(464,500,l),
(421,440,l)
);
},
{
closed = 1;
nodes = (
(464,360,l),
(464,360,o),
(416,508,o),
(305,508,c),
(294,453,l),
(386,453,o),
(430,350,o),
(430,350,c)
);
},
{
closed = 1;
nodes = (
(387,150,o),
(299,48,o),
(207,48,c),
(196,-8,l),
(307,-8,o),
(417,140,o),
(417,140,c),
(387,150,l)
);
},
{
closed = 1;
nodes = (
(96,48,o),
(85,146,o),
(107,250,cs),
(130,355,o),
(183,453,o),
(294,453,c),
(305,508,l),
(159,508,o),
(73,379,o),
(45,250,cs),
(18,121,o),
(50,-8,o),
(196,-8,c),
(207,48,l)
);
}
);
width = 516;
},
{
layerId = m004;
shapes = (
{
closed = 1;
nodes = (
(215,-200,l),
(395,-200,l),
(529,430,l),
(351,440,l)
);
},
{
closed = 1;
nodes = (
(529,430,l),
(544,500,l),
(394,500,l),
(351,440,l)
);
},
{
closed = 1;
nodes = (
(437,330,l),
(437,330,o),
(366,508,o),
(255,508,c),
(291,393,l),
(326,393,o),
(437,330,o),
(437,330,c)
);
},
{
closed = 1;
nodes = (
(403,170,o),
(265,108,o),
(230,108,c),
(146,-8,l),
(257,-8,o),
(403,170,o),
(403,170,c),
(403,170,l)
);
},
{
closed = 1;
nodes = (
(169,108,o),
(188,206,o),
(197,250,cs),
(207,295,o),
(230,393,o),
(291,393,c),
(255,508,l),
(129,508,o),
(43,379,o),
(15,250,cs),
(-12,121,o),
(20,-8,o),
(146,-8,c),
(230,108,l)
);
}
);
width = 526;
}
);
metricLeft = "=o";
metricRight = "=d";
unicode = 113;
},
{
glyphname = r;
kernLeft = KO_n;
kernRight = KO_r;
lastChange = "2024-12-31 15:21:32 +0000";
layers = (
{
anchors = (
{
name = bottom;
pos = (120,0);
},
{
name = top;
pos = (226,500);
}
);
layerId = m003;
shapes = (
{
closed = 1;
nodes = (
(319,508,l),
(307,453,l)
);
},
{
closed = 1;
nodes = (
(22,0,l),
(82,0,l),
(176,440,l),
(113,430,l)
);
},
{
closed = 1;
nodes = (
(374,500,l),
(358,505,o),
(340,508,o),
(319,508,c),
(307,453,l),
(322,453,o),
(335,451,o),
(346,448,c)
);
},
{
closed = 1;
nodes = (
(158,500,l),
(128,500,l),
(113,430,l),
(176,440,l)
);
},
{
closed = 1;
nodes = (
(128,350,o),
(216,453,o),
(308,453,c),
(320,508,l),
(209,508,o),
(99,360,o),
(99,360,c),
(128,350,l)
);
}
);
width = 345;
},
{
anchors = (
{
name = bottom;
pos = (130,0);
},
{
name = top;
pos = (236,500);
}
);
layerId = m004;
shapes = (
{
closed = 1;
nodes = (
(379,508,l),
(290,373,l)
);
},
{
closed = 1;
nodes = (
(-18,0,l),
(162,0,l),
(255,440,l),
(73,430,l)
);
},
{
closed = 1;
nodes = (
(443,493,l),
(427,501,o),
(400,508,o),
(379,508,c),
(290,373,l),
(318,373,o),
(340,365,o),
(365,348,c)
);
},
{
closed = 1;
nodes = (
(238,500,l),
(88,500,l),
(73,430,l),
(255,440,l)
);
},
{
closed = 1;
nodes = (
(122,330,o),
(256,373,o),
(291,373,c),
(380,508,l),
(269,508,o),
(122,330,o),
(122,330,c),
(122,330,l)
);
}
);
width = 391;
}
);
metricLeft = "=n";
unicode = 114;
userData = {
KernOnName = r;
};
},
{
glyphname = s;
kernLeft = KO_s;
kernRight = KO_s;
lastChange = "2024-12-31 15:21:34 +0000";
layers = (
{
anchors = (
{
name = bottom;
pos = (158,0);
},
{
name = top;
pos = (264,500);
}
);
layerId = m003;
shapes = (
{
closed = 1;
nodes = (
(279,-8,o),
(356,61,o),
(375,153,cs),
(394,239,o),
(345,275,o),
(220,290,c),
(207,232,l),
(292,220,o),
(326,201,o),
(315,153,cs),
(302,92,o),
(252,47,o),
(168,47,c),
(156,-8,l)
);
},
{
closed = 1;
nodes = (
(179,508,o),
(100,458,o),
(83,376,cs),
(65,294,o),
(114,246,o),
(207,232,c),
(220,290,l),
(159,298,o),
(132,327,o),
(143,376,cs),
(153,425,o),
(202,453,o),
(254,453,c),
(266,508,l)
);
},
{
closed = 1;
nodes = (
(31,32,o),
(82,-8,o),
(156,-8,c),
(168,47,l),
(105,47,o),
(70,79,o),
(48,99,c),
(4,55,l)
);
},
{
closed = 1;
nodes = (
(418,444,l),
(392,467,o),
(340,508,o),
(266,508,c),
(254,453,l),
(316,453,o),
(352,422,o),
(374,402,c)
);
}
);
width = 441;
},
{
anchors = (
{
name = bottom;
pos = (158,0);
},
{
name = top;
pos = (264,500);
}
);
layerId = m004;
shapes = (
{
closed = 1;
nodes = (
(306,-8,o),
(392,45,o),
(415,153,cs),
(437,255,o),
(389,305,o),
(256,320,c),
(181,202,l),
(225,196,o),
(242,182,o),
(235,153,cs),
(229,123,o),
(210,107,o),
(181,107,c),
(156,-8,l)
);
},
{
closed = 1;
nodes = (
(157,508,o),
(59,451,o),
(39,356,cs),
(21,272,o),
(75,213,o),
(181,202,c),
(256,320,l),
(227,324,o),
(214,335,o),
(219,356,cs),
(223,377,o),
(241,393,o),
(271,393,c),
(266,508,l)
);
},
{
closed = 1;
nodes = (
(-9,32,o),
(42,-8,o),
(156,-8,c),
(181,107,l),
(118,107,o),
(95,123,o),
(61,159,c),
(-36,55,l)
);
},
{
closed = 1;
nodes = (
(458,444,l),
(415,483,o),
(341,508,o),
(266,508,c),
(271,393,l),
(309,393,o),
(340,383,o),
(366,362,c)
);
}
);
width = 442;
}
);
unicode = 115;
userData = {
KernOnName = s;
};
},
{
glyphname = germandbls;
kernLeft = KO_i;
lastChange = "2024-04-20 20:06:19 +0000";
layers = (
{
layerId = m003;
shapes = (
{
closed = 1;
nodes = (
(237,350,l),
(225,294,o),
(244,246,o),
(318,232,c),
(330,290,l),
(289,298,o),
(292,327,o),
(297,350,c)
);
},
{
closed = 1;
nodes = (
(141,32,o),
(193,-8,o),
(267,-8,c),
(279,47,l),
(216,47,o),
(180,79,o),
(159,99,c),
(114,55,l)
);
},
{
closed = 1;
nodes = (
(23,0,l),
(83,0,l),
(178,450,l),
(118,450,l)
);
},
{
closed = 1;
nodes = (
(351,653,l),
(445,653,o),
(462,607,o),
(450,552,cs),
(435,483,o),
(260,458,o),
(237,350,c),
(297,350,l),
(313,425,o),
(490,450,o),
(512,552,c),
(529,634,o),
(489,708,o),
(363,708,c)
);
},
{
closed = 1;
nodes = (
(178,450,l),
(212,607,o),
(257,653,o),
(351,653,c),
(363,708,l),
(237,708,o),
(161,634,o),
(130,502,cs),
(118,450,l)
);
},
{
closed = 1;
nodes = (
(390,-8,o),
(467,61,o),
(486,153,cs),
(504,239,o),
(456,275,o),
(330,290,c),
(318,232,l),
(402,220,o),
(436,201,o),
(426,153,cs),
(413,92,o),
(363,47,o),
(279,47,c),
(267,-8,l)
);
}
);
width = 552;
},
{
layerId = m004;
shapes = (
{
closed = 1;
nodes = (
(276,350,l),
(258,264,o),
(277,216,o),
(371,202,c),
(446,320,l),
(424,323,o),
(412,331,o),
(416,350,c)
);
},
{
closed = 1;
nodes = (
(221,32,o),
(272,-8,o),
(346,-8,c),
(371,107,l),
(308,107,o),
(272,139,o),
(251,159,c),
(194,55,l)
);
},
{
closed = 1;
nodes = (
(-18,0,l),
(162,0,l),
(258,450,l),
(78,450,l)
);
},
{
closed = 1;
nodes = (
(417,588,l),
(477,588,o),
(483,572,o),
(479,552,c),
(466,490,o),
(313,521,o),
(276,350,c),
(416,350,l),
(429,412,o),
(605,381,o),
(641,552,cs),
(659,634,o),
(608,708,o),
(442,708,c)
);
},
{
closed = 1;
nodes = (
(258,450,l),
(283,572,o),
(323,588,o),
(417,588,c),
(442,708,l),
(196,708,o),
(121,634,o),
(90,502,cs),
(78,450,l)
);
},
{
closed = 1;
nodes = (
(496,-8,o),
(582,45,o),
(605,153,cs),
(627,255,o),
(579,305,o),
(446,320,c),
(371,202,l),
(415,196,o),
(432,182,o),
(425,153,cs),
(419,123,o),
(400,107,o),
(371,107,c),
(346,-8,l)
);
}
);
width = 632;
}
);
metricLeft = "=h";
metricRight = "=s";
unicode = 223;
},
{
glyphname = t;
kernLeft = KO_t;
kernRight = KO_t;
lastChange = "2024-12-31 15:26:57 +0000";
layers = (
{
anchors = (
{
name = bottom;
pos = (153,0);
},
{
name = center;
pos = (121,250);
},
{
name = top;
pos = (193,590);
},
{
name = topright;
pos = (383,700);
}
);
layerId = m003;
shapes = (
{
closed = 1;
nodes = (
(325,445,l),
(337,500,l),
(66,500,l),
(54,445,l)
);
},
{
closed = 1;
nodes = (
(203,48,o),
(193,47,o),
(181,47,cs),
(126,47,o),
(114,76,o),
(133,167,c),
(227,610,l),
(165,600,l),
(80,200,l),
(47,46,o),
(70,-5,o),
(170,-5,cs),
(187,-5,o),
(198,-4,o),
(218,0,c),
(218,50,l)
);
}
);
width = 319;
},
{
anchors = (
{
name = bottom;
pos = (196,0);
},
{
name = center;
pos = (155,250);
},
{
name = top;
pos = (229,600);
},
{
name = topright;
pos = (414,700);
}
);
layerId = m004;
shapes = (
{
closed = 1;
nodes = (
(366,380,l),
(391,500,l),
(41,500,l),
(16,380,l)
);
},
{
closed = 1;
nodes = (
(271,108,o),
(261,107,o),
(249,107,cs),
(216,107,o),
(221,136,o),
(227,167,c),
(324,620,l),
(139,600,l),
(54,200,l),
(22,46,o),
(74,-7,o),
(194,-7,cs),
(231,-7,o),
(253,-4,o),
(273,0,c),
(286,110,l)
);
}
);
width = 350;
}
);
unicode = 116;
userData = {
KernOnName = t;
};
},
{
glyphname = u;
kernLeft = KO_u;
kernRight = KO_u;
lastChange = "2024-12-31 15:29:20 +0000";
layers = (
{
anchors = (
{
name = bottom;
pos = (201,0);
},
{
name = ogonek;
pos = (407,10);
},
{
name = top;
pos = (307,500);
},
{
name = topright;
pos = (542,500);
}
);
layerId = m003;
shapes = (
{
closed = 1;
nodes = (
(65,198,ls),
(39,66,o),
(84,-8,o),
(196,-8,c),
(208,47,l),
(128,47,o),
(101,93,o),
(135,250,c),
(75,250,l)
);
},
{
closed = 1;
nodes = (
(493,500,l),
(433,500,l),
(339,60,l),
(416,140,l)
);
},
{
closed = 1;
nodes = (
(188,500,l),
(128,500,l),
(75,250,l),
(135,250,l)
);
},
{
closed = 1;
nodes = (
(357,0,l),
(387,0,l),
(416,140,l),
(339,60,l)
);
},
{
closed = 1;
nodes = (
(387,150,o),
(299,47,o),
(207,47,c),
(195,-8,l),
(306,-8,o),
(416,140,o),
(416,140,c),
(387,150,l)
);
}
);
width = 509;
},
{
anchors = (
{
name = bottom;
pos = (205,0);
},
{
name = ogonek;
pos = (413,10);
},
{
name = top;
pos = (311,500);
},
{
name = topright;
pos = (548,500);
}
);
layerId = m004;
shapes = (
{
closed = 1;
nodes = (
(25,198,ls),
(-1,66,o),
(44,-8,o),
(136,-8,c),
(220,107,l),
(180,107,o),
(194,153,o),
(215,250,c),
(35,250,l)
);
},
{
closed = 1;
nodes = (
(533,500,l),
(353,500,l),
(259,60,l),
(456,140,l)
);
},
{
closed = 1;
nodes = (
(268,500,l),
(88,500,l),
(35,250,l),
(215,250,l)
);
},
{
closed = 1;
nodes = (
(277,0,l),
(427,0,l),
(456,140,l),
(259,60,l)
);
},
{
closed = 1;
nodes = (
(389,150,o),
(271,107,o),
(219,107,c),
(135,-8,l),
(246,-8,o),
(389,150,o),
(389,150,c),
(389,150,l)
);
}
);
width = 515;
}
);
metricLeft = "=n";
unicode = 117;
userData = {
KernOnName = u;
};
},
{
glyphname = v;
kernLeft = KO_v;
kernRight = KO_y;
lastChange = "2024-12-31 15:23:14 +0000";
layers = (
{
layerId = m003;
shapes = (
{
closed = 1;
nodes = (
(77,500,l),
(138,0,l),
(212,0,l),
(485,500,l),
(421,500,l),
(187,58,l),
(141,500,l)
);
}
);
width = 456;
},
{
layerId = m004;
shapes = (
{
closed = 1;
nodes = (
(53,500,l),
(114,0,l),
(268,0,l),
(541,500,l),
(357,500,l),
(233,198,l),
(237,500,l)
);
}
);
width = 488;
}
);
unicode = 118;
userData = {
KernOnName = v;
};
},
{
glyphname = w;
kernLeft = KO_w;
kernRight = KO_w;
lastChange = "2024-12-31 15:26:14 +0000";
layers = (
{
anchors = (
{
name = bottom;
pos = (287,0);
},
{
name = top;
pos = (393,500);
}
);
layerId = m003;
shapes = (
{
closed = 1;
nodes = (
(366,500,l),
(392,0,l),
(466,0,l),
(709,500,l),
(645,500,l),
(441,58,l),
(425,500,l)
);
},
{
closed = 1;
nodes = (
(77,500,l),
(108,0,l),
(182,0,l),
(420,500,l),
(361,500,l),
(157,58,l),
(141,500,l)
);
}
);
width = 680;
},
{
anchors = (
{
name = bottom;
pos = (303,0);
},
{
name = top;
pos = (409,500);
}
);
layerId = m004;
shapes = (
{
closed = 1;
nodes = (
(342,500,l),
(368,0,l),
(522,0,l),
(765,500,l),
(601,500,l),
(487,198,l),
(481,500,l)
);
},
{
closed = 1;
nodes = (
(53,500,l),
(84,0,l),
(238,0,l),
(476,500,l),
(337,500,l),
(203,198,l),
(217,500,l)
);
}
);
width = 712;
}
);
metricLeft = "=v";
metricRight = "=v";
unicode = 119;
userData = {
KernOnName = w;
};
},
{
glyphname = x;
kernLeft = KO_x;
kernRight = KO_x;
lastChange = "2024-12-31 15:25:57 +0000";
layers = (
{
layerId = m003;
shapes = (
{
closed = 1;
nodes = (
(219,210,l),
(307,0,l),
(374,0,l),
(267,258,l),
(193,258,l),
(-24,0,l),
(43,0,l)
);
},
{
closed = 1;
nodes = (
(82,500,l),
(193,258,l),
(267,258,l),
(480,500,l),
(412,500,l),
(240,306,l),
(149,500,l)
);
}
);
width = 456;
},
{
layerId = m004;
shapes = (
{
closed = 1;
nodes = (
(213,130,l),
(228,0,l),
(425,0,l),
(338,258,l),
(144,258,l),
(-53,0,l),
(144,0,l)
);
},
{
closed = 1;
nodes = (
(53,500,l),
(144,258,l),
(338,258,l),
(531,500,l),
(333,500,l),
(268,386,l),
(250,500,l)
);
}
);
width = 478;
}
);
unicode = 120;
userData = {
KernOnName = x;
};
},
{
glyphname = y;
kernLeft = KO_y;
kernRight = KO_y;
lastChange = "2024-12-31 15:21:34 +0000";
layers = (
{
anchors = (
{
name = bottom;
pos = (183,0);
},
{
name = top;
pos = (289,500);
}
);
layerId = m003;
shapes = (
{
closed = 1;
nodes = (
(-72,-200,l),
(-55,-204,o),
(-44,-205,o),
(-27,-205,cs),
(73,-205,o),
(134,-154,o),
(220,0,c),
(160,0,l),
(142,-33,l),
(90,-125,o),
(58,-145,o),
(3,-145,cs),
(-9,-145,o),
(-29,-144,o),
(-42,-142,c)
);
},
{
closed = 1;
nodes = (
(85,500,l),
(148,-23,l),
(220,0,l),
(493,500,l),
(429,500,l),
(195,58,l),
(149,500,l)
);
}
);
width = 464;
},
{
anchors = (
{
name = bottom;
pos = (191,0);
},
{
name = top;
pos = (297,500);
}
);
layerId = m004;
shapes = (
{
closed = 1;
nodes = (
(-104,-200,l),
(-67,-204,o),
(-36,-205,o),
(-19,-205,cs),
(121,-205,o),
(182,-154,o),
(268,0,c),
(114,0,l),
(96,-33,l),
(77,-65,o),
(49,-85,o),
(-6,-85,cs),
(-48,-85,o),
(-62,-82,o),
(-62,-82,c)
);
},
{
closed = 1;
nodes = (
(53,500,l),
(114,0,l),
(268,0,l),
(541,500,l),
(357,500,l),
(233,198,l),
(237,500,l)
);
}
);
width = 488;
}
);
metricRight = "=v";
unicode = 121;
userData = {
KernOnName = y;
};
},
{
glyphname = z;
kernLeft = KO_z;
kernRight = KO_z;
lastChange = "2024-12-31 15:21:32 +0000";
layers = (
{
anchors = (
{
name = bottom;
pos = (165,0);
},
{
name = center;
pos = (218,250);
},
{
name = top;
pos = (271,500);
}
);
layerId = m003;
shapes = (
{
closed = 1;
nodes = (
(108,500,l),
(95,440,l),
(355,440,l),
(-5,60,l),
(-18,0,l),
(347,0,l),
(360,60,l),
(81,60,l),
(440,440,l),
(453,500,l)
);
}
);
width = 435;
},
{
anchors = (
{
name = bottom;
pos = (185,0);
},
{
name = center;
pos = (238,250);
},
{
name = top;
pos = (291,500);
}
);
layerId = m004;
shapes = (
{
closed = 1;
nodes = (
(83,500,l),
(58,380,l),
(308,380,l),
(-13,120,l),
(-38,0,l),
(407,0,l),
(432,120,l),
(183,120,l),
(488,380,l),
(513,500,l)
);
}
);
width = 475;
}
);
unicode = 122;
userData = {
KernOnName = z;
};
},
{
glyphname = saltillo;
lastChange = "2022-10-23 18:36:04 +0000";
layers = (
{
layerId = m003;
shapes = (
{
closed = 1;
nodes = (
(91,350,l),
(151,350,l),
(246,750,l),
(166,750,l)
);
}
);
width = 200;
},
{
layerId = m004;
shapes = (
{
closed = 1;
nodes = (
(66,350,l),
(226,350,l),
(331,750,l),
(131,750,l)
);
}
);
width = 250;
}
);
metricLeft = "=i";
metricRight = "=|";
unicode = 42892;
},
{
glyphname = a.salt;
kernLeft = KO_a;
kernRight = KO_a.salt;
lastChange = "2025-01-04 00:09:11 +0000";
layers = (
{
anchors = (
{
name = bottom;
pos = (195,0);
},
{
name = ogonek;
pos = (367,0);
},
{
name = top;
pos = (280,500);
}
);
layerId = m003;
shapes = (
{
closed = 1;
nodes = (
(187,47,l),
(103,47,o),
(71,92,o),
(84,153,cs),
(99,223,o),
(176,250,o),
(360,250,c),
(372,305,l),
(347,305,l),
(145,305,o),
(47,259,o),
(24,153,cs),
(5,61,o),
(52,-8,o),
(175,-8,c)
);
},
{
closed = 1;
nodes = (
(132,413,o),
(206,452,o),
(268,452,c),
(280,508,l),
(199,508,o),
(115,461,o),
(115,461,c),
(132,413,l)
);
},
{
closed = 1;
nodes = (
(431,302,ls),
(462,449,o),
(419,508,o),
(280,508,c),
(268,452,l),
(369,452,o),
(395,415,o),
(372,305,c),
(420,250,l)
);
},
{
closed = 1;
nodes = (
(369,160,o),
(271,47,o),
(187,47,c),
(175,-8,l),
(298,-8,o),
(397,140,o),
(397,140,c),
(369,160,l)
);
},
{
closed = 1;
nodes = (
(420,250,l),
(372,305,l),
(320,60,l),
(376,45,l)
);
},
{
closed = 1;
nodes = (
(337,0,l),
(367,0,l),
(397,140,l),
(320,60,l)
);
}
);
width = 495;
},
{
anchors = (
{
name = bottom;
pos = (200,0);
},
{
name = ogonek;
pos = (417,0);
},
{
name = top;
pos = (306,500);
}
);
layerId = m004;
shapes = (
{
closed = 1;
nodes = (
(210,107,l),
(185,107,o),
(168,122,o),
(174,153,cs),
(183,193,o),
(209,220,o),
(284,220,c),
(302,305,l),
(277,305,l),
(115,305,o),
(17,259,o),
(-6,153,cs),
(-25,61,o),
(22,-8,o),
(125,-8,c)
);
},
{
closed = 1;
nodes = (
(109,353,o),
(193,392,o),
(255,392,c),
(310,508,l),
(199,508,o),
(89,455,o),
(89,455,c),
(109,353,l)
);
},
{
closed = 1;
nodes = (
(481,302,ls),
(509,434,o),
(462,508,o),
(310,508,c),
(255,392,l),
(311,392,o),
(316,370,o),
(302,305,c),
(464,220,l)
);
},
{
closed = 1;
nodes = (
(385,180,o),
(245,107,o),
(210,107,c),
(125,-8,l),
(236,-8,o),
(385,180,o),
(385,180,c),
(385,180,l)
);
},
{
closed = 1;
nodes = (
(464,220,l),
(302,305,l),
(250,60,l),
(426,45,l)
);
},
{
closed = 1;
nodes = (
(267,0,l),
(417,0,l),
(447,140,l),
(250,60,l)
);
}
);
width = 505;
}
);
metricLeft = "=o";
metricRight = "=n";
},
{
glyphname = e.salt;
kernLeft = KO_e;
kernRight = KO_e;
lastChange = "2025-01-04 00:08:58 +0000";
layers = (
{
anchors = (
{
name = bottom;
pos = (192,0);
},
{
name = ogonek;
pos = (357,39);
},
{
name = top;
pos = (302,500);
}
);
layerId = m003;
shapes = (
{
closed = 1;
nodes = (
(124,354,o),
(179,453,o),
(290,453,c),
(302,508,l),
(156,508,o),
(69,379,o),
(42,250,c),
(97,225,l)
);
},
{
closed = 1;
nodes = (
(204,48,l),
(94,48,o),
(80,145,o),
(97,225,c),
(42,250,l),
(42,250,ls),
(15,121,o),
(46,-8,o),
(192,-8,c)
);
},
{
closed = 1;
nodes = (
(273,-8,o),
(357,39,o),
(357,39,c),
(340,87,l),
(340,87,o),
(266,48,o),
(204,48,c),
(192,-8,l)
);
},
{
closed = 1;
nodes = (
(422,225,l),
(422,275,l),
(91,275,l),
(81,225,l)
);
},
{
closed = 1;
nodes = (
(422,225,l),
(454,379,o),
(458,508,o),
(302,508,c),
(290,453,l),
(411,453,o),
(387,354,o),
(360,225,c)
);
}
);
width = 465;
},
{
anchors = (
{
name = bottom;
pos = (183,0);
},
{
name = ogonek;
pos = (396,45);
},
{
name = top;
pos = (312,500);
}
);
layerId = m004;
shapes = (
{
closed = 1;
nodes = (
(209,314,o),
(230,393,o),
(280,393,c),
(315,508,l),
(129,508,o),
(42,379,o),
(15,250,c),
(183,195,l)
);
},
{
closed = 1;
nodes = (
(230,108,l),
(170,108,o),
(173,145,o),
(183,195,c),
(15,250,l),
(15,250,ls),
(-12,121,o),
(23,-8,o),
(175,-8,c)
);
},
{
closed = 1;
nodes = (
(286,-8,o),
(396,45,o),
(396,45,c),
(376,147,l),
(376,147,o),
(292,108,o),
(230,108,c),
(175,-8,l)
);
},
{
closed = 1;
nodes = (
(458,195,l),
(472,305,l),
(111,305,l),
(87,195,l)
);
},
{
closed = 1;
nodes = (
(458,195,l),
(495,369,o),
(501,508,o),
(315,508,c),
(280,393,l),
(330,393,o),
(312,314,o),
(286,195,c)
);
}
);
width = 485;
}
);
metricLeft = "=o";
metricRight = "=e";
},
{
glyphname = g.salt;
kernLeft = KO_g.salt;
kernRight = KO_g.salt;
lastChange = "2022-11-22 23:27:25 +0000";
layers = (
{
layerId = m003;
shapes = (
{
closed = 1;
nodes = (
(311,158,o),
(393,238,o),
(413,333,cs),
(433,428,o),
(385,508,o),
(275,508,cs),
(165,508,o),
(83,428,o),
(63,333,cs),
(43,238,o),
(91,158,o),
(201,158,cs)
);
},
{
closed = 1;
nodes = (
(337,458,o),
(366,403,o),
(351,333,cs),
(336,263,o),
(284,208,o),
(211,208,cs),
(138,208,o),
(110,263,o),
(125,333,cs),
(140,403,o),
(191,458,o),
(264,458,cs)
);
},
{
closed = 1;
nodes = (
(-41,-155,l),
(-41,-155,o),
(17,-208,o),
(128,-208,c),
(140,-153,l),
(48,-153,o),
(9,-121,o),
(-6,-111,c)
);
},
{
closed = 1;
nodes = (
(472,445,l),
(478,475,l),
(353,475,l),
(405,415,l)
);
},
{
closed = 1;
nodes = (
(125,215,l),
(87,173,o),
(27,115,o),
(17,70,cs),
(7,25,o),
(1,-8,o),
(167,0,c),
(296,6,o),
(313,-10,o),
(304,-50,cs),
(296,-90,o),
(268,-153,o),
(140,-153,c),
(128,-208,l),
(268,-208,o),
(346,-145,o),
(366,-50,cs),
(389,55,o),
(322,72,o),
(180,60,cs),
(37,48,o),
(39,71,o),
(153,202,c)
);
}
);
width = 476;
},
{
layerId = m004;
shapes = (
{
closed = 1;
nodes = (
(351,158,o),
(433,238,o),
(453,333,cs),
(473,428,o),
(425,508,o),
(275,508,cs),
(125,508,o),
(43,428,o),
(23,333,cs),
(3,238,o),
(51,158,o),
(201,158,cs)
);
},
{
closed = 1;
nodes = (
(286,403,o),
(294,373,o),
(286,333,c),
(277,293,o),
(256,263,o),
(223,263,cs),
(190,263,o),
(181,293,o),
(190,333,c),
(198,373,o),
(220,403,o),
(253,403,cs)
);
},
{
closed = 1;
nodes = (
(-81,-155,l),
(-81,-155,o),
(-23,-208,o),
(128,-208,c),
(152,-93,l),
(40,-93,o),
(-6,-61,o),
(-6,-61,cs)
);
},
{
closed = 1;
nodes = (
(498,405,l),
(513,475,l),
(348,475,l),
(432,375,l)
);
},
{
closed = 1;
nodes = (
(131,245,l),
(73,203,o),
(-13,115,o),
(-23,70,cs),
(-33,25,o),
(-42,-25,o),
(165,-10,cs),
(234,-5,o),
(263,-10,o),
(257,-40,c),
(250,-70,o),
(220,-93,o),
(152,-93,c),
(128,-208,l),
(288,-208,o),
(383,-135,o),
(404,-40,cs),
(428,75,o),
(372,118,o),
(188,100,cs),
(86,90,o),
(86,103,o),
(163,202,c)
);
}
);
width = 472;
}
);
metricLeft = "=s";
metricRight = "=s";
},
{
glyphname = k.salt;
kernLeft = KO_i;
kernRight = KO_k.salt;
lastChange = "2022-11-22 23:08:06 +0000";
layers = (
{
layerId = m003;
shapes = (
{
closed = 1;
nodes = (
(231,700,l),
(171,700,l),
(23,0,l),
(83,0,l)
);
},
{
closed = 1;
nodes = (
(514,500,l),
(434,500,l),
(137,257,l),
(328,0,l),
(408,0,l),
(217,258,l)
);
}
);
width = 485;
},
{
layerId = m004;
shapes = (
{
closed = 1;
nodes = (
(311,700,l),
(131,700,l),
(-17,0,l),
(163,0,l)
);
},
{
closed = 1;
nodes = (
(554,500,l),
(354,500,l),
(177,257,l),
(248,0,l),
(448,0,l),
(357,258,l)
);
}
);
width = 523;
}
);
metricLeft = "=h";
},
{
glyphname = ordfeminine;
lastChange = "2024-12-31 14:56:33 +0000";
layers = (
{
layerId = m003;
shapes = (
{
closed = 1;
nodes = (
(179,493,o),
(196,502,o),
(209,512,c),
(214,496,l),
(232,496,l),
(254,601,ls),
(264,647,o),
(252,675,o),
(200,675,cs),
(175,675,o),
(148,663,o),
(133,653,c),
(144,631,l),
(155,638,o),
(171,646,o),
(194,646,cs),
(226,646,o),
(231,636,o),
(226,607,c),
(223,607,ls),
(153,607,o),
(117,591,o),
(109,552,cs),
(102,518,o),
(119,493,o),
(163,493,cs)
);
},
{
closed = 1;
nodes = (
(143,571,o),
(164,579,o),
(220,579,c),
(212,543,l),
(201,532,o),
(184,521,o),
(169,521,cs),
(143,521,o),
(135,533,o),
(139,552,cs)
);
}
);
width = 225;
},
{
layerId = m004;
shapes = (
{
closed = 1;
nodes = (
(139,493,o),
(155,502,o),
(170,513,c),
(174,496,l),
(227,496,l),
(249,602,ls),
(259,649,o),
(243,675,o),
(190,675,cs),
(151,675,o),
(102,656,o),
(102,656,c),
(108,620,l),
(116,624,o),
(148,634,o),
(171,634,cs),
(190,634,o),
(192,626,o),
(187,603,c),
(178,603,ls),
(121,603,o),
(87,587,o),
(79,550,cs),
(72,517,o),
(88,493,o),
(125,493,cs)
);
},
{
closed = 1;
nodes = (
(145,564,o),
(153,573,o),
(180,573,c),
(173,539,l),
(165,536,o),
(158,533,o),
(155,533,cs),
(145,533,o),
(140,539,o),
(142,550,cs)
);
}
);
width = 190;
}
);
metricLeft = "=a";
metricRight = "=|";
unicode = 170;
userData = {
KernOnSpecialSpacing = {
L = superiors;
R = superiors;
};
};
},
{
glyphname = ordmasculine;
kernLeft = KO_ordmasculine;
lastChange = "2024-12-31 14:56:33 +0000";
layers = (
{
layerId = m003;
shapes = (
{
closed = 1;
nodes = (
(106,540,o),
(116,493,o),
(169,493,cs),
(222,493,o),
(252,540,o),
(262,584,cs),
(271,628,o),
(261,675,o),
(208,675,cs),
(155,675,o),
(125,628,o),
(116,584,cs)
);
},
{
closed = 1;
nodes = (
(153,618,o),
(169,646,o),
(202,646,cs),
(235,646,o),
(239,618,o),
(232,584,cs),
(224,550,o),
(208,521,o),
(175,521,cs),
(142,521,o),
(138,550,o),
(146,584,cs)
);
}
);
width = 236;
},
{
layerId = m004;
shapes = (
{
closed = 1;
nodes = (
(76,539,o),
(86,493,o),
(152,493,cs),
(218,493,o),
(248,539,o),
(258,584,cs),
(267,630,o),
(257,675,o),
(191,675,cs),
(125,675,o),
(95,630,o),
(86,584,cs)
);
},
{
closed = 1;
nodes = (
(153,600,o),
(160,634,o),
(182,634,cs),
(204,634,o),
(197,600,o),
(194,584,cs),
(190,568,o),
(183,534,o),
(161,534,cs),
(139,534,o),
(146,568,o),
(150,584,cs)
);
}
);
width = 202;
}
);
metricLeft = "=o";
metricRight = "=|";
unicode = 186;
userData = {
KernOnSpecialSpacing = {
L = superiors;
R = superiors;
};
};
},
{
glyphname = Omega;
kernLeft = KO_Omega;
lastChange = "2024-12-31 15:21:32 +0000";
layers = (
{
layerId = m003;
shapes = (
{
closed = 1;
nodes = (
(224,60,l),
(126,92,o),
(107,203,o),
(135,334,cs),
(169,491,o),
(255,616,o),
(410,616,cs),
(565,616,o),
(599,491,o),
(565,334,cs),
(537,202,o),
(472,93,o),
(360,60,c),
(347,0,l),
(509,33,o),
(604,175,o),
(637,334,cs),
(676,514,o),
(628,676,o),
(423,676,c),
(218,676,o),
(102,514,o),
(63,334,cs),
(30,175,o),
(63,32,o),
(211,0,c)
);
},
{
closed = 1;
nodes = (
(211,0,l),
(224,60,l),
(-40,60,l),
(-53,0,l)
);
},
{
closed = 1;
nodes = (
(611,0,l),
(624,60,l),
(360,60,l),
(347,0,l)
);
}
);
width = 664;
},
{
layerId = m004;
shapes = (
{
closed = 1;
nodes = (
(283,110,l),
(198,110,o),
(204,234,o),
(225,334,cs),
(247,434,o),
(292,556,o),
(407,556,cs),
(522,556,o),
(517,434,o),
(495,334,cs),
(474,234,o),
(428,110,o),
(343,110,c),
(319,0,l),
(534,0,o),
(649,154,o),
(687,334,cs),
(726,514,o),
(678,676,o),
(433,676,cs),
(187,676,o),
(72,514,o),
(33,334,cs),
(-5,154,o),
(43,0,o),
(259,0,c)
);
},
{
closed = 1;
nodes = (
(251,0,l),
(275,110,l),
(-29,110,l),
(-53,0,l)
);
},
{
closed = 1;
nodes = (
(631,0,l),
(655,110,l),
(351,110,l),
(327,0,l)
);
}
);
width = 685;
}
);
unicode = 937;
userData = {
KernOnName = Omega;
};
},
{
glyphname = pi;
kernLeft = KO_pi;
lastChange = "2022-10-27 17:54:39 +0000";
layers = (
{
layerId = m003;
shapes = (
{
closed = 1;
nodes = (
(306,500,l),
(152,500,o),
(94,467,o),
(73,367,cs),
(69,350,o),
(68,339,o),
(68,320,c),
(120,330,l),
(121,345,o),
(122,355,o),
(125,367,cs),
(136,422,o),
(168,440,o),
(260,440,c),
(593,440,l),
(606,500,l)
);
},
{
closed = 1;
nodes = (
(362,200,l),
(329,46,o),
(352,-5,o),
(452,-5,cs),
(469,-5,o),
(480,-4,o),
(500,0,c),
(500,50,l),
(485,48,o),
(475,47,o),
(463,47,cs),
(408,47,o),
(396,75,o),
(415,167,c),
(480,470,l),
(420,470,l)
);
},
{
closed = 1;
nodes = (
(95,0,l),
(200,0,o),
(218,87,o),
(241,196,cs),
(300,470,l),
(240,470,l),
(181,196,ls),
(162,105,o),
(150,50,o),
(105,50,c)
);
}
);
width = 600;
},
{
layerId = m004;
shapes = (
{
closed = 1;
nodes = (
(275,500,l),
(121,500,o),
(61,467,o),
(44,387,cs),
(36,350,o),
(33,319,o),
(32,300,c),
(145,310,l),
(146,325,o),
(147,335,o),
(149,347,cs),
(156,379,o),
(184,380,o),
(216,380,c),
(669,380,l),
(695,500,l)
);
},
{
closed = 1;
nodes = (
(381,200,l),
(348,46,o),
(370,-7,o),
(510,-7,cs),
(547,-7,o),
(579,-4,o),
(599,0,c),
(612,110,l),
(597,108,o),
(586,107,o),
(574,107,cs),
(542,107,o),
(547,135,o),
(554,167,c),
(619,470,l),
(439,470,l)
);
},
{
closed = 1;
nodes = (
(74,0,l),
(259,0,o),
(317,87,o),
(340,196,cs),
(399,470,l),
(219,470,l),
(160,196,ls),
(154,165,o),
(142,110,o),
(97,110,c)
);
}
);
width = 682;
}
);
unicode = 960;
},
{
glyphname = zero.lf;
kernLeft = KO_zero.lf;
kernRight = KO_zero.lf;
lastChange = "2022-10-19 20:00:41 +0000";
layers = (
{
layerId = m003;
shapes = (
{
closed = 1;
nodes = (
(21,135,o),
(88,-10,o),
(263,-10,cs),
(415,-10,o),
(538,135,o),
(580,334,cs),
(622,532,o),
(561,677,o),
(384,677,cs),
(234,677,o),
(105,532,o),
(63,334,cs)
);
},
{
closed = 1;
nodes = (
(172,507,o),
(256,617,o),
(384,617,cs),
(512,617,o),
(545,507,o),
(508,334,cs),
(471,159,o),
(391,50,o),
(263,50,c),
(135,50,o),
(98,159,o),
(135,334,cs)
);
}
);
width = 607;
},
{
layerId = m004;
shapes = (
{
closed = 1;
nodes = (
(-19,135,o),
(48,-10,o),
(276,-10,cs),
(455,-10,o),
(578,135,o),
(620,334,cs),
(662,532,o),
(601,677,o),
(371,677,cs),
(194,677,o),
(65,532,o),
(23,334,cs)
);
},
{
closed = 1;
nodes = (
(245,477,o),
(283,557,o),
(371,557,cs),
(459,557,o),
(458,477,o),
(428,334,cs),
(397,189,o),
(364,110,o),
(276,110,cs),
(188,110,o),
(184,189,o),
(215,334,cs)
);
}
);
width = 607;
}
);
metricRight = "=|";
},
{
glyphname = one.lf;
kernLeft = KO_one.lf;
kernRight = KO_one;
lastChange = "2022-10-20 16:55:11 +0000";
layers = (
{
layerId = m003;
shapes = (
{
closed = 1;
nodes = (
(15,0,l),
(359,0,l),
(372,60,l),
(230,60,l),
(359,667,l),
(311,667,l),
(116,584,l),
(125,538,l),
(282,591,l),
(170,60,l),
(28,60,l)
);
}
);
width = 427;
},
{
layerId = m004;
shapes = (
{
closed = 1;
nodes = (
(-5,0,l),
(499,0,l),
(523,115,l),
(381,115,l),
(499,667,l),
(331,667,l),
(96,584,l),
(92,478,l),
(290,531,l),
(201,115,l),
(19,115,l)
);
}
);
width = 552;
}
);
},
{
glyphname = two.lf;
kernLeft = KO_two.lf;
kernRight = KO_two.lf;
lastChange = "2022-10-19 20:01:25 +0000";
layers = (
{
layerId = m003;
shapes = (
{
closed = 1;
nodes = (
(376,0,l),
(389,60,l),
(91,60,l),
(91,60,o),
(445,336,o),
(480,500,c),
(417,500,l),
(382,336,o),
(5,60,o),
(5,60,c),
(-8,0,l)
);
},
{
closed = 1;
nodes = (
(194,598,o),
(244,616,o),
(295,616,c),
(308,676,l),
(243,676,o),
(181,656,o),
(126,630,c),
(144,578,l)
);
},
{
closed = 1;
nodes = (
(480,500,l),
(501,599,o),
(443,676,o),
(308,676,c),
(295,616,l),
(398,616,o),
(431,565,o),
(417,500,c)
);
}
);
width = 474;
},
{
layerId = m004;
shapes = (
{
closed = 1;
nodes = (
(424,0,l),
(448,115,l),
(202,115,l),
(202,115,o),
(491,316,o),
(526,480,c),
(353,480,l),
(322,336,o),
(-14,115,o),
(-14,115,c),
(-38,0,l)
);
},
{
closed = 1;
nodes = (
(170,545,o),
(223,556,o),
(272,556,c),
(318,676,l),
(226,676,o),
(150,651,o),
(96,630,c),
(101,518,l)
);
},
{
closed = 1;
nodes = (
(526,480,l),
(551,598,o),
(468,676,o),
(318,676,c),
(272,556,l),
(340,556,o),
(364,531,o),
(353,480,c)
);
}
);
width = 494;
}
);
},
{
glyphname = three.lf;
kernLeft = KO_three.lf;
kernRight = KO_eight;
lastChange = "2022-10-23 21:22:11 +0000";
layers = (
{
layerId = m003;
shapes = (
{
closed = 1;
nodes = (
(302,-10,o),
(401,57,o),
(429,185,c),
(445,263,o),
(410,331,o),
(334,352,c),
(401,378,o),
(452,434,o),
(465,498,cs),
(489,612,o),
(422,676,o),
(278,676,c),
(265,616,l),
(371,616,o),
(415,577,o),
(398,498,cs),
(381,419,o),
(321,380,o),
(215,380,c),
(203,325,l),
(325,325,o),
(375,273,o),
(357,185,cs),
(338,97,o),
(267,50,o),
(145,50,c),
(132,-10,l)
);
},
{
closed = 1;
nodes = (
(145,50,l),
(94,50,o),
(52,68,o),
(10,88,c),
(-30,36,l),
(14,10,o),
(67,-10,o),
(132,-10,c)
);
},
{
closed = 1;
nodes = (
(203,325,l),
(215,380,l),
(160,380,l),
(148,325,l)
);
},
{
closed = 1;
nodes = (
(164,598,o),
(214,616,o),
(265,616,c),
(278,676,l),
(213,676,o),
(152,656,o),
(96,630,c),
(114,578,l)
);
}
);
width = 464;
},
{
layerId = m004;
shapes = (
{
closed = 1;
nodes = (
(372,-10,o),
(472,62,o),
(499,190,cs),
(516,268,o),
(480,332,o),
(404,353,c),
(471,379,o),
(521,434,o),
(535,498,cs),
(559,612,o),
(492,677,o),
(308,677,c),
(282,556,l),
(308,556,o),
(359,552,o),
(345,483,cs),
(330,414,o),
(277,410,o),
(251,410,c),
(227,295,l),
(269,295,o),
(326,278,o),
(311,205,cs),
(295,132,o),
(229,110,o),
(187,110,c),
(162,-10,l)
);
},
{
closed = 1;
nodes = (
(187,110,l),
(118,110,o),
(70,121,o),
(13,148,c),
(-40,36,l),
(5,15,o),
(70,-10,o),
(162,-10,c)
);
},
{
closed = 1;
nodes = (
(227,295,l),
(251,410,l),
(149,410,l),
(125,295,l)
);
},
{
closed = 1;
nodes = (
(160,546,o),
(213,557,o),
(282,557,c),
(308,677,l),
(216,677,o),
(141,652,o),
(86,631,c),
(91,519,l)
);
}
);
width = 523;
}
);
metricRight = "=B";
},
{
glyphname = four.lf;
kernLeft = KO_four.lf;
kernRight = KO_four.lf;
lastChange = "2022-10-19 20:01:33 +0000";
layers = (
{
layerId = m003;
shapes = (
{
closed = 1;
nodes = (
(-6,223,l),
(-18,167,l),
(304,167,l),
(269,0,l),
(329,0,l),
(364,167,l),
(472,167,l),
(485,227,l),
(377,227,l),
(471,667,l),
(397,667,l)
);
},
{
closed = 1;
nodes = (
(75,227,l),
(390,572,l),
(317,227,l)
);
}
);
width = 505;
},
{
layerId = m004;
shapes = (
{
closed = 1;
nodes = (
(-6,223,l),
(-30,107,l),
(252,107,l),
(229,0,l),
(409,0,l),
(432,107,l),
(540,107,l),
(565,227,l),
(457,227,l),
(551,667,l),
(371,667,l)
);
},
{
closed = 1;
nodes = (
(155,227,l),
(318,420,l),
(277,227,l)
);
}
);
width = 570;
}
);
},
{
glyphname = five.lf;
kernLeft = KO_five.lf;
kernRight = KO_five.lf;
lastChange = "2022-10-19 20:01:36 +0000";
layers = (
{
layerId = m003;
shapes = (
{
closed = 1;
nodes = (
(256,400,l),
(229,400,o),
(200,398,o),
(173,395,c),
(218,607,l),
(512,607,l),
(525,667,l),
(171,667,l),
(99,330,l),
(99,330,o),
(188,340,o),
(243,340,c)
);
},
{
closed = 1;
nodes = (
(339,-10,o),
(439,62,o),
(466,190,cs),
(493,318,o),
(426,400,o),
(256,400,c),
(243,340,l),
(365,340,o),
(413,278,o),
(394,190,cs),
(376,102,o),
(303,50,o),
(181,50,c),
(169,-10,l)
);
},
{
closed = 1;
nodes = (
(181,50,l),
(130,50,o),
(88,68,o),
(47,88,c),
(7,36,l),
(51,10,o),
(104,-10,o),
(169,-10,c)
);
}
);
width = 524;
},
{
layerId = m004;
shapes = (
{
closed = 1;
nodes = (
(302,430,l),
(275,430,o),
(260,429,o),
(260,429,c),
(281,527,l),
(535,527,l),
(565,667,l),
(131,667,l),
(51,290,l),
(51,290,o),
(182,310,o),
(237,310,c)
);
},
{
closed = 1;
nodes = (
(379,-10,o),
(479,62,o),
(513,220,cs),
(540,348,o),
(472,430,o),
(302,430,c),
(237,310,l),
(319,310,o),
(333,278,o),
(321,220,cs),
(308,162,o),
(276,110,o),
(194,110,c),
(169,-10,l)
);
},
{
closed = 1;
nodes = (
(194,110,l),
(143,110,o),
(61,128,o),
(19,148,c),
(-33,36,l),
(11,10,o),
(104,-10,o),
(169,-10,c)
);
}
);
width = 534;
}
);
metricRight = "=O";
},
{
glyphname = six.lf;
kernLeft = KO_six;
kernRight = KO_six;
lastChange = "2022-10-19 20:01:39 +0000";
layers = (
{
layerId = m003;
shapes = (
{
closed = 1;
nodes = (
(14,103,o),
(50,-10,o),
(200,-10,cs),
(350,-10,o),
(434,103,o),
(454,197,cs),
(474,291,o),
(438,403,o),
(288,403,cs),
(249,403,o),
(169,392,o),
(116,317,c),
(199,566,o),
(326,622,o),
(458,626,c),
(469,677,l),
(170,674,o),
(78,407,o),
(45,248,cs)
);
},
{
closed = 1;
nodes = (
(115,262,o),
(166,348,o),
(276,348,cs),
(386,348,o),
(401,262,o),
(387,197,cs),
(373,132,o),
(321,45,o),
(211,45,cs),
(101,45,o),
(87,132,o),
(101,197,cs)
);
}
);
width = 510;
},
{
layerId = m004;
shapes = (
{
closed = 1;
nodes = (
(-16,103,o),
(40,-10,o),
(210,-10,cs),
(380,-10,o),
(482,93,o),
(507,212,cs),
(532,331,o),
(474,433,o),
(324,433,cs),
(264,433,o),
(229,402,o),
(229,402,c),
(266,481,o),
(330,556,o),
(493,556,c),
(519,677,l),
(140,674,o),
(48,407,o),
(15,248,cs)
);
},
{
closed = 1;
nodes = (
(196,247,o),
(216,318,o),
(279,318,cs),
(342,318,o),
(332,247,o),
(325,212,c),
(317,177,o),
(297,105,o),
(234,105,cs),
(171,105,o),
(181,177,o),
(189,212,cs)
);
}
);
width = 530;
}
);
metricLeft = "=O";
metricRight = "=O";
},
{
glyphname = seven.lf;
kernLeft = KO_seven.lf;
kernRight = KO_seven.lf;
lastChange = "2022-10-19 20:02:21 +0000";
layers = (
{
layerId = m003;
shapes = (
{
closed = 1;
nodes = (
(160,267,o),
(489,607,o),
(489,607,c),
(502,667,l),
(89,667,l),
(76,607,l),
(415,607,l),
(415,607,o),
(85,267,o),
(28,0,c),
(103,0,l)
);
}
);
width = 458;
},
{
layerId = m004;
shapes = (
{
closed = 1;
nodes = (
(255,267,o),
(567,527,o),
(567,527,c),
(597,667,l),
(104,667,l),
(74,527,l),
(373,527,l),
(373,527,o),
(60,267,o),
(3,0,c),
(198,0,l)
);
}
);
width = 523;
}
);
},
{
glyphname = eight.lf;
kernLeft = KO_eight;
kernRight = KO_eight;
lastChange = "2022-10-23 21:22:32 +0000";
layers = (
{
layerId = m003;
shapes = (
{
closed = 1;
nodes = (
(97,461,o),
(100,387,o),
(165,364,c),
(72,339,o),
(23,261,o),
(7,186,cs),
(-14,86,o),
(30,-10,o),
(176,-10,cs),
(322,-10,o),
(406,86,o),
(427,186,cs),
(443,261,o),
(428,340,o),
(345,365,c),
(420,388,o),
(454,461,o),
(463,506,cs),
(479,581,o),
(456,676,o),
(322,676,cs),
(188,676,o),
(122,581,o),
(106,506,cs)
);
},
{
closed = 1;
nodes = (
(90,261,o),
(150,334,o),
(249,334,cs),
(348,334,o),
(376,261,o),
(360,186,cs),
(344,111,o),
(292,45,o),
(187,45,cs),
(82,45,o),
(58,111,o),
(74,186,cs)
);
},
{
closed = 1;
nodes = (
(178,563,o),
(218,622,o),
(310,622,cs),
(402,622,o),
(417,563,o),
(404,506,cs),
(392,449,o),
(349,389,o),
(261,389,cs),
(172,389,o),
(153,449,o),
(165,506,cs)
);
}
);
width = 462;
},
{
layerId = m004;
shapes = (
{
closed = 1;
nodes = (
(87,461,o),
(90,387,o),
(135,364,c),
(62,339,o),
(13,261,o),
(-3,186,cs),
(-24,86,o),
(20,-10,o),
(206,-10,cs),
(392,-10,o),
(476,86,o),
(497,186,cs),
(513,261,o),
(498,340,o),
(435,365,c),
(490,388,o),
(524,461,o),
(533,506,cs),
(549,581,o),
(526,676,o),
(352,676,cs),
(178,676,o),
(112,581,o),
(96,506,cs)
);
},
{
closed = 1;
nodes = (
(197,247,o),
(223,301,o),
(272,301,cs),
(321,301,o),
(323,247,o),
(314,202,cs),
(304,157,o),
(276,110,o),
(231,110,cs),
(186,110,o),
(178,157,o),
(188,202,cs)
);
},
{
closed = 1;
nodes = (
(268,516,o),
(286,556,o),
(326,556,cs),
(365,556,o),
(368,516,o),
(362,489,cs),
(356,462,o),
(336,421,o),
(297,421,cs),
(257,421,o),
(256,462,o),
(262,489,cs)
);
}
);
width = 522;
}
);
metricLeft = "=|";
metricRight = "=B";
},
{
glyphname = nine.lf;
kernLeft = KO_nine.lf;
kernRight = KO_nine.lf;
lastChange = "2022-10-19 20:02:02 +0000";
layers = (
{
layerId = m003;
shapes = (
{
closed = 1;
nodes = (
(532,565,o),
(496,678,o),
(346,678,cs),
(196,678,o),
(112,565,o),
(92,471,cs),
(72,377,o),
(108,265,o),
(258,265,cs),
(297,265,o),
(377,276,o),
(429,351,c),
(347,102,o),
(220,46,o),
(88,42,c),
(77,-9,l),
(376,-6,o),
(467,261,o),
(501,420,cs)
);
},
{
closed = 1;
nodes = (
(431,406,o),
(380,320,o),
(270,320,cs),
(160,320,o),
(145,406,o),
(159,471,cs),
(173,536,o),
(224,623,o),
(334,623,cs),
(444,623,o),
(459,536,o),
(445,471,cs)
);
}
);
width = 510;
},
{
layerId = m004;
shapes = (
{
closed = 1;
nodes = (
(583,570,o),
(503,677,o),
(356,677,cs),
(209,677,o),
(86,585,o),
(59,455,cs),
(31,325,o),
(107,234,o),
(242,234,cs),
(302,234,o),
(336,265,o),
(336,265,c),
(294,175,o),
(185,111,o),
(72,111,c),
(47,-10,l),
(290,-8,o),
(498,169,o),
(551,419,cs)
);
},
{
closed = 1;
nodes = (
(363,393,o),
(325,349,o),
(286,349,cs),
(246,349,o),
(227,393,o),
(241,455,c),
(254,518,o),
(291,562,o),
(331,562,cs),
(371,562,o),
(390,518,o),
(377,455,cs)
);
}
);
width = 530;
}
);
metricLeft = "=O";
metricRight = "=O";
},
{
glyphname = zero.osf;
kernLeft = KO_zero.osf;
kernRight = KO_zero.osf;
lastChange = "2022-10-19 19:58:30 +0000";
layers = (
{
layerId = m003;
shapes = (
{
closed = 1;
nodes = (
(17,120,o),
(79,-10,o),
(237,-10,cs),
(373,-10,o),
(484,120,o),
(523,300,cs),
(561,480,o),
(505,610,o),
(346,610,cs),
(211,610,o),
(94,480,o),
(56,300,cs)
);
},
{
closed = 1;
nodes = (
(150,457,o),
(231,555,o),
(346,555,cs),
(461,555,o),
(495,457,o),
(462,300,cs),
(428,142,o),
(352,45,o),
(237,45,cs),
(122,45,o),
(83,142,o),
(117,300,c)
);
}
);
width = 557;
},
{
layerId = m004;
shapes = (
{
closed = 1;
nodes = (
(-13,120,o),
(49,-10,o),
(260,-10,cs),
(423,-10,o),
(534,120,o),
(573,300,cs),
(611,480,o),
(555,610,o),
(343,610,cs),
(181,610,o),
(64,480,o),
(26,300,cs)
);
},
{
closed = 1;
nodes = (
(234,427,o),
(268,495,o),
(343,495,cs),
(418,495,o),
(419,427,o),
(392,300,cs),
(364,172,o),
(335,105,o),
(260,105,cs),
(185,105,o),
(179,172,o),
(207,300,c)
);
}
);
width = 577;
}
);
metricLeft = "=o";
metricRight = "=|";
},
{
glyphname = one.osf;
kernLeft = KO_one;
kernRight = KO_one.osf;
lastChange = "2024-12-31 15:21:32 +0000";
layers = (
{
layerId = m003;
shapes = (
{
closed = 1;
nodes = (
(15,0,l),
(359,0,l),
(372,60,l),
(230,60,l),
(344,600,l),
(296,600,l),
(102,517,l),
(111,471,l),
(268,524,l),
(170,60,l),
(28,60,l)
);
}
);
width = 427;
},
{
layerId = m004;
shapes = (
{
closed = 1;
nodes = (
(-5,0,l),
(499,0,l),
(523,115,l),
(381,115,l),
(484,600,l),
(316,600,l),
(82,517,l),
(78,411,l),
(275,464,l),
(201,115,l),
(19,115,l)
);
}
);
width = 552;
}
);
userData = {
KernOnName = one.osf;
};
},
{
glyphname = two.osf;
kernLeft = KO_two.osf;
kernRight = KO_two;
lastChange = "2022-10-17 20:42:07 +0000";
layers = (
{
layerId = m003;
shapes = (
{
closed = 1;
nodes = (
(375,0,l),
(388,60,l),
(106,60,l),
(106,60,o),
(407,245,o),
(447,432,c),
(471,546,o),
(408,610,o),
(264,610,c),
(251,550,l),
(357,550,o),
(400,511,o),
(384,432,cs),
(348,265,o),
(-5,60,o),
(-5,60,cs),
(-18,0,l)
);
},
{
closed = 1;
nodes = (
(150,532,o),
(200,550,o),
(251,550,c),
(264,610,l),
(199,610,o),
(137,590,o),
(82,564,c),
(100,512,l)
);
}
);
width = 468;
},
{
layerId = m004;
shapes = (
{
closed = 1;
nodes = (
(454,0,l),
(478,115,l),
(256,115,l),
(256,115,o),
(480,216,o),
(518,394,c),
(543,512,o),
(503,610,o),
(294,610,c),
(248,490,l),
(347,490,o),
(341,425,o),
(335,394,cs),
(301,236,o),
(-5,108,o),
(-5,108,cs),
(-28,0,l)
);
},
{
closed = 1;
nodes = (
(146,479,o),
(199,490,o),
(248,490,c),
(294,610,l),
(202,610,o),
(126,585,o),
(72,564,c),
(77,452,l)
);
}
);
width = 532;
}
);
},
{
glyphname = three.osf;
kernLeft = KO_three.osf;
kernRight = KO_three.osf;
lastChange = "2022-10-26 22:52:56 +0000";
layers = (
{
layerId = m003;
shapes = (
{
closed = 1;
nodes = (
(288,-76,o),
(387,-9,o),
(415,119,c),
(431,197,o),
(396,265,o),
(320,286,c),
(387,312,o),
(438,368,o),
(451,432,cs),
(475,546,o),
(408,610,o),
(264,610,c),
(251,550,l),
(357,550,o),
(401,511,o),
(384,432,cs),
(367,353,o),
(307,314,o),
(201,314,c),
(189,259,l),
(311,259,o),
(361,207,o),
(343,119,cs),
(324,31,o),
(253,-16,o),
(131,-16,c),
(118,-76,l)
);
},
{
closed = 1;
nodes = (
(131,-16,l),
(80,-16,o),
(38,2,o),
(-4,22,c),
(-44,-30,l),
(0,-56,o),
(53,-76,o),
(118,-76,c)
);
},
{
closed = 1;
nodes = (
(189,259,l),
(201,314,l),
(146,314,l),
(134,259,l)
);
},
{
closed = 1;
nodes = (
(150,532,o),
(200,550,o),
(251,550,c),
(264,610,l),
(199,610,o),
(138,590,o),
(82,564,c),
(100,512,l)
);
}
);
width = 488;
},
{
layerId = m004;
shapes = (
{
closed = 1;
nodes = (
(358,-77,o),
(458,-5,o),
(485,123,cs),
(502,201,o),
(466,265,o),
(390,286,c),
(457,312,o),
(507,367,o),
(521,431,cs),
(545,545,o),
(478,610,o),
(294,610,c),
(268,489,l),
(294,489,o),
(345,485,o),
(331,416,cs),
(316,347,o),
(263,343,o),
(237,343,c),
(213,228,l),
(255,228,o),
(312,211,o),
(297,138,cs),
(281,65,o),
(215,43,o),
(173,43,c),
(148,-77,l)
);
},
{
closed = 1;
nodes = (
(173,43,l),
(104,43,o),
(56,54,o),
(-1,81,c),
(-54,-31,l),
(-9,-52,o),
(56,-77,o),
(148,-77,c)
);
},
{
closed = 1;
nodes = (
(213,228,l),
(237,343,l),
(135,343,l),
(111,228,l)
);
},
{
closed = 1;
nodes = (
(146,479,o),
(199,490,o),
(268,490,c),
(294,610,l),
(202,610,o),
(127,585,o),
(72,564,c),
(77,452,l)
);
}
);
width = 527;
}
);
metricRight = "=o";
},
{
glyphname = four.osf;
kernLeft = KO_four.osf;
kernRight = KO_four.osf;
lastChange = "2024-12-31 15:21:32 +0000";
layers = (
{
layerId = m003;
shapes = (
{
closed = 1;
nodes = (
(-15,156,l),
(-27,100,l),
(295,100,l),
(260,-67,l),
(320,-67,l),
(355,100,l),
(463,100,l),
(476,160,l),
(368,160,l),
(461,600,l),
(397,600,l)
);
},
{
closed = 1;
nodes = (
(56,160,l),
(381,505,l),
(308,160,l)
);
}
);
width = 510;
},
{
layerId = m004;
shapes = (
{
closed = 1;
nodes = (
(-20,156,l),
(-45,40,l),
(237,40,l),
(215,-67,l),
(395,-67,l),
(417,40,l),
(525,40,l),
(551,160,l),
(443,160,l),
(536,600,l),
(356,600,l)
);
},
{
closed = 1;
nodes = (
(141,160,l),
(304,353,l),
(263,160,l)
);
}
);
width = 570;
}
);
userData = {
KernOnName = four.osf;
};
},
{
glyphname = five.osf;
kernLeft = KO_five.osf;
kernRight = KO_five.osf;
lastChange = "2022-10-19 19:58:10 +0000";
layers = (
{
layerId = m003;
shapes = (
{
closed = 1;
nodes = (
(242,333,l),
(215,333,o),
(186,331,o),
(159,328,c),
(204,540,l),
(498,540,l),
(510,600,l),
(156,600,l),
(85,263,l),
(85,263,o),
(174,273,o),
(229,273,c)
);
},
{
closed = 1;
nodes = (
(324,-77,o),
(425,-5,o),
(452,123,cs),
(479,251,o),
(412,333,o),
(242,333,c),
(229,273,l),
(351,273,o),
(399,211,o),
(380,123,cs),
(361,35,o),
(289,-17,o),
(167,-17,c),
(154,-77,l)
);
},
{
closed = 1;
nodes = (
(167,-17,l),
(116,-17,o),
(74,1,o),
(32,21,c),
(-8,-31,l),
(37,-57,o),
(89,-77,o),
(154,-77,c)
);
}
);
width = 524;
},
{
layerId = m004;
shapes = (
{
closed = 1;
nodes = (
(288,363,l),
(261,363,o),
(246,362,o),
(246,362,c),
(267,460,l),
(521,460,l),
(550,600,l),
(116,600,l),
(36,223,l),
(36,223,o),
(168,243,o),
(223,243,c)
);
},
{
closed = 1;
nodes = (
(364,-77,o),
(465,-5,o),
(498,153,cs),
(526,281,o),
(458,363,o),
(288,363,c),
(223,243,l),
(305,243,o),
(319,211,o),
(306,153,cs),
(294,95,o),
(262,43,o),
(180,43,c),
(154,-77,l)
);
},
{
closed = 1;
nodes = (
(180,43,l),
(129,43,o),
(47,61,o),
(5,81,c),
(-48,-31,l),
(-3,-57,o),
(89,-77,o),
(154,-77,c)
);
}
);
width = 534;
}
);
metricRight = "=o";
},
{
glyphname = six.osf;
kernLeft = KO_six.osf;
kernRight = KO_six.osf;
lastChange = "2024-12-31 15:21:34 +0000";
layers = (
{
layerId = m003;
shapes = (
{
closed = 1;
nodes = (
(14,103,o),
(50,-10,o),
(200,-10,cs),
(350,-10,o),
(434,103,o),
(454,197,cs),
(474,291,o),
(438,403,o),
(288,403,cs),
(249,403,o),
(169,392,o),
(116,317,c),
(199,566,o),
(326,622,o),
(458,626,c),
(469,677,l),
(170,674,o),
(78,407,o),
(45,248,cs)
);
},
{
closed = 1;
nodes = (
(115,262,o),
(166,348,o),
(276,348,cs),
(386,348,o),
(401,262,o),
(387,197,cs),
(373,132,o),
(321,45,o),
(211,45,cs),
(101,45,o),
(87,132,o),
(101,197,cs)
);
}
);
width = 510;
},
{
layerId = m004;
shapes = (
{
closed = 1;
nodes = (
(-16,103,o),
(40,-10,o),
(210,-10,cs),
(380,-10,o),
(482,93,o),
(507,212,cs),
(532,331,o),
(474,433,o),
(324,433,cs),
(264,433,o),
(229,402,o),
(229,402,c),
(266,481,o),
(330,556,o),
(493,556,c),
(519,677,l),
(140,674,o),
(48,407,o),
(15,248,cs)
);
},
{
closed = 1;
nodes = (
(196,247,o),
(216,318,o),
(279,318,cs),
(342,318,o),
(332,247,o),
(325,212,c),
(317,177,o),
(297,105,o),
(234,105,cs),
(171,105,o),
(181,177,o),
(189,212,cs)
);
}
);
width = 530;
}
);
metricRight = "=o";
userData = {
KernOnName = six.osf;
};
},
{
glyphname = seven.osf;
kernLeft = KO_seven.osf;
kernRight = KO_seven.osf;
lastChange = "2022-10-18 11:48:55 +0000";
layers = (
{
layerId = m003;
shapes = (
{
closed = 1;
nodes = (
(145,200,o),
(475,540,o),
(475,540,c),
(487,600,l),
(74,600,l),
(62,540,l),
(401,540,l),
(401,540,o),
(70,200,o),
(14,-67,c),
(89,-67,l)
);
}
);
width = 459;
},
{
layerId = m004;
shapes = (
{
closed = 1;
nodes = (
(240,200,o),
(556,464,o),
(553,460,c),
(582,600,l),
(89,600,l),
(60,460,l),
(359,460,l),
(359,460,o),
(45,200,o),
(-11,-67,c),
(184,-67,l)
);
}
);
width = 523;
}
);
},
{
glyphname = eight.osf;
kernLeft = KO_eight.osf;
kernRight = KO_eight;
lastChange = "2022-10-23 21:52:33 +0000";
layers = (
{
layerId = m003;
shapes = (
{
closed = 1;
nodes = (
(97,461,o),
(100,387,o),
(165,364,c),
(72,339,o),
(23,261,o),
(7,186,cs),
(-14,86,o),
(30,-10,o),
(176,-10,cs),
(322,-10,o),
(406,86,o),
(427,186,cs),
(443,261,o),
(428,340,o),
(345,365,c),
(420,388,o),
(454,461,o),
(463,506,cs),
(479,581,o),
(456,676,o),
(322,676,cs),
(188,676,o),
(122,581,o),
(106,506,cs)
);
},
{
closed = 1;
nodes = (
(90,261,o),
(150,334,o),
(249,334,cs),
(348,334,o),
(376,261,o),
(360,186,cs),
(344,111,o),
(292,45,o),
(187,45,cs),
(82,45,o),
(58,111,o),
(74,186,cs)
);
},
{
closed = 1;
nodes = (
(178,563,o),
(218,622,o),
(310,622,cs),
(402,622,o),
(417,563,o),
(404,506,cs),
(392,449,o),
(349,389,o),
(261,389,cs),
(172,389,o),
(153,449,o),
(165,506,cs)
);
}
);
width = 462;
},
{
layerId = m004;
shapes = (
{
closed = 1;
nodes = (
(87,461,o),
(90,387,o),
(135,364,c),
(62,339,o),
(13,261,o),
(-3,186,cs),
(-24,86,o),
(20,-10,o),
(206,-10,cs),
(392,-10,o),
(476,86,o),
(497,186,cs),
(513,261,o),
(498,340,o),
(435,365,c),
(490,388,o),
(524,461,o),
(533,506,cs),
(549,581,o),
(526,676,o),
(352,676,cs),
(178,676,o),
(112,581,o),
(96,506,cs)
);
},
{
closed = 1;
nodes = (
(197,247,o),
(223,301,o),
(272,301,cs),
(321,301,o),
(323,247,o),
(314,202,cs),
(304,157,o),
(276,110,o),
(231,110,cs),
(186,110,o),
(178,157,o),
(188,202,cs)
);
},
{
closed = 1;
nodes = (
(268,516,o),
(286,556,o),
(326,556,cs),
(365,556,o),
(368,516,o),
(362,489,cs),
(356,462,o),
(336,421,o),
(297,421,cs),
(257,421,o),
(256,462,o),
(262,489,cs)
);
}
);
width = 522;
}
);
metricLeft = "=|";
metricRight = "=B";
},
{
glyphname = nine.osf;
kernLeft = KO_nine.osf;
kernRight = KO_nine.osf;
lastChange = "2022-10-19 19:58:10 +0000";
layers = (
{
layerId = m003;
shapes = (
{
closed = 1;
nodes = (
(518,497,o),
(482,610,o),
(332,610,cs),
(182,610,o),
(98,497,o),
(78,403,cs),
(58,309,o),
(94,197,o),
(244,197,cs),
(283,197,o),
(362,208,o),
(415,283,c),
(332,34,o),
(205,-22,o),
(73,-26,c),
(62,-77,l),
(361,-74,o),
(453,193,o),
(487,352,cs)
);
},
{
closed = 1;
nodes = (
(417,338,o),
(365,252,o),
(255,252,cs),
(145,252,o),
(131,338,o),
(145,403,cs),
(158,468,o),
(210,555,o),
(320,555,cs),
(430,555,o),
(444,468,o),
(431,403,cs)
);
}
);
width = 510;
},
{
layerId = m004;
shapes = (
{
closed = 1;
nodes = (
(568,497,o),
(512,610,o),
(342,610,cs),
(172,610,o),
(70,507,o),
(44,388,cs),
(19,269,o),
(77,167,o),
(227,167,cs),
(287,167,o),
(322,198,o),
(322,198,c),
(285,119,o),
(221,44,o),
(58,44,c),
(32,-77,l),
(411,-74,o),
(503,193,o),
(537,352,cs)
);
},
{
closed = 1;
nodes = (
(355,353,o),
(335,282,o),
(272,282,cs),
(209,282,o),
(219,353,o),
(226,388,c),
(234,423,o),
(254,495,o),
(317,495,cs),
(380,495,o),
(370,423,o),
(362,388,cs)
);
}
);
width = 530;
}
);
metricLeft = "=o";
metricRight = "=o";
},
{
glyphname = zero.tf;
lastChange = "2024-12-31 14:56:33 +0000";
layers = (
{
layerId = m003;
shapes = (
{
closed = 1;
nodes = (
(0,135,o),
(67,-10,o),
(242,-10,cs),
(394,-10,o),
(517,135,o),
(559,334,cs),
(601,532,o),
(540,677,o),
(363,677,cs),
(213,677,o),
(84,532,o),
(42,334,cs)
);
},
{
closed = 1;
nodes = (
(151,507,o),
(235,617,o),
(363,617,cs),
(491,617,o),
(524,507,o),
(487,334,cs),
(450,159,o),
(370,50,o),
(242,50,c),
(114,50,o),
(77,159,o),
(114,334,cs)
);
}
);
width = 600;
},
{
layerId = m004;
shapes = (
{
closed = 1;
nodes = (
(-40,135,o),
(27,-10,o),
(255,-10,cs),
(434,-10,o),
(557,135,o),
(599,334,cs),
(641,532,o),
(580,677,o),
(350,677,cs),
(173,677,o),
(44,532,o),
(2,334,cs)
);
},
{
closed = 1;
nodes = (
(224,477,o),
(262,557,o),
(350,557,cs),
(438,557,o),
(437,477,o),
(407,334,cs),
(376,189,o),
(343,110,o),
(255,110,cs),
(167,110,o),
(163,189,o),
(194,334,cs)
);
}
);
width = 600;
}
);
userData = {
KernOnSpecialSpacing = {
L = NoKerning;
R = NoKerning;
};
};
},
{
glyphname = one.tf;
lastChange = "2024-12-31 14:56:33 +0000";
layers = (
{
layerId = m003;
shapes = (
{
closed = 1;
nodes = (
(122,0,l),
(466,0,l),
(479,60,l),
(337,60,l),
(466,667,l),
(418,667,l),
(223,584,l),
(232,538,l),
(389,591,l),
(277,60,l),
(135,60,l)
);
}
);
width = 600;
},
{
layerId = m004;
shapes = (
{
closed = 1;
nodes = (
(36,0,l),
(540,0,l),
(564,115,l),
(422,115,l),
(540,667,l),
(372,667,l),
(137,584,l),
(133,478,l),
(331,531,l),
(242,115,l),
(60,115,l)
);
}
);
width = 600;
}
);
userData = {
KernOnSpecialSpacing = {
L = NoKerning;
R = NoKerning;
};
};
},
{
glyphname = two.tf;
lastChange = "2024-12-31 14:56:33 +0000";
layers = (
{
layerId = m003;
shapes = (
{
closed = 1;
nodes = (
(430,0,l),
(443,60,l),
(145,60,l),
(145,60,o),
(499,336,o),
(534,500,c),
(471,500,l),
(436,336,o),
(59,60,o),
(59,60,c),
(46,0,l)
);
},
{
closed = 1;
nodes = (
(248,598,o),
(298,616,o),
(349,616,c),
(362,676,l),
(297,676,o),
(235,656,o),
(180,630,c),
(198,578,l)
);
},
{
closed = 1;
nodes = (
(534,500,l),
(555,599,o),
(497,676,o),
(362,676,c),
(349,616,l),
(452,616,o),
(485,565,o),
(471,500,c)
);
}
);
width = 600;
},
{
layerId = m004;
shapes = (
{
closed = 1;
nodes = (
(468,0,l),
(492,115,l),
(246,115,l),
(246,115,o),
(535,316,o),
(570,480,c),
(397,480,l),
(366,336,o),
(30,115,o),
(30,115,c),
(6,0,l)
);
},
{
closed = 1;
nodes = (
(214,545,o),
(267,556,o),
(316,556,c),
(362,676,l),
(270,676,o),
(194,651,o),
(140,630,c),
(145,518,l)
);
},
{
closed = 1;
nodes = (
(570,480,l),
(595,598,o),
(512,676,o),
(362,676,c),
(316,556,l),
(384,556,o),
(408,531,o),
(397,480,c)
);
}
);
width = 600;
}
);
userData = {
KernOnSpecialSpacing = {
L = NoKerning;
R = NoKerning;
};
};
},
{
glyphname = three.tf;
lastChange = "2024-12-31 14:56:33 +0000";
layers = (
{
layerId = m003;
shapes = (
{
closed = 1;
nodes = (
(373,-10,o),
(472,57,o),
(500,185,c),
(516,263,o),
(481,331,o),
(405,352,c),
(472,378,o),
(523,434,o),
(536,498,cs),
(560,612,o),
(493,676,o),
(349,676,c),
(336,616,l),
(442,616,o),
(486,577,o),
(469,498,cs),
(452,419,o),
(392,380,o),
(286,380,c),
(274,325,l),
(396,325,o),
(446,273,o),
(428,185,cs),
(409,97,o),
(338,50,o),
(216,50,c),
(203,-10,l)
);
},
{
closed = 1;
nodes = (
(216,50,l),
(165,50,o),
(123,68,o),
(81,88,c),
(41,36,l),
(85,10,o),
(138,-10,o),
(203,-10,c)
);
},
{
closed = 1;
nodes = (
(274,325,l),
(286,380,l),
(231,380,l),
(219,325,l)
);
},
{
closed = 1;
nodes = (
(235,598,o),
(285,616,o),
(336,616,c),
(349,676,l),
(284,676,o),
(223,656,o),
(167,630,c),
(185,578,l)
);
}
);
width = 600;
},
{
layerId = m004;
shapes = (
{
closed = 1;
nodes = (
(413,-10,o),
(513,62,o),
(540,190,cs),
(557,268,o),
(521,332,o),
(445,353,c),
(512,379,o),
(562,434,o),
(576,498,cs),
(600,612,o),
(533,677,o),
(349,677,c),
(323,556,l),
(349,556,o),
(400,552,o),
(386,483,cs),
(371,414,o),
(318,410,o),
(292,410,c),
(268,295,l),
(310,295,o),
(367,278,o),
(352,205,cs),
(336,132,o),
(270,110,o),
(228,110,c),
(203,-10,l)
);
},
{
closed = 1;
nodes = (
(228,110,l),
(159,110,o),
(111,121,o),
(54,148,c),
(1,36,l),
(46,15,o),
(111,-10,o),
(203,-10,c)
);
},
{
closed = 1;
nodes = (
(268,295,l),
(292,410,l),
(190,410,l),
(166,295,l)
);
},
{
closed = 1;
nodes = (
(201,546,o),
(254,557,o),
(323,557,c),
(349,677,l),
(257,677,o),
(182,652,o),
(127,631,c),
(132,519,l)
);
}
);
width = 600;
}
);
userData = {
KernOnSpecialSpacing = {
L = NoKerning;
R = NoKerning;
};
};
},
{
glyphname = four.tf;
lastChange = "2024-12-31 14:56:33 +0000";
layers = (
{
layerId = m003;
shapes = (
{
closed = 1;
nodes = (
(61,223,l),
(49,167,l),
(371,167,l),
(336,0,l),
(396,0,l),
(431,167,l),
(539,167,l),
(552,227,l),
(444,227,l),
(538,667,l),
(464,667,l)
);
},
{
closed = 1;
nodes = (
(142,227,l),
(457,572,l),
(384,227,l)
);
}
);
width = 600;
},
{
layerId = m004;
shapes = (
{
closed = 1;
nodes = (
(27,223,l),
(3,107,l),
(285,107,l),
(262,0,l),
(442,0,l),
(465,107,l),
(573,107,l),
(598,227,l),
(490,227,l),
(584,667,l),
(404,667,l)
);
},
{
closed = 1;
nodes = (
(188,227,l),
(351,420,l),
(310,227,l)
);
}
);
width = 600;
}
);
userData = {
KernOnSpecialSpacing = {
L = NoKerning;
R = NoKerning;
};
};
},
{
glyphname = five.tf;
lastChange = "2024-12-31 14:56:33 +0000";
layers = (
{
layerId = m003;
shapes = (
{
closed = 1;
nodes = (
(290,400,l),
(263,400,o),
(234,398,o),
(207,395,c),
(252,607,l),
(546,607,l),
(559,667,l),
(205,667,l),
(133,330,l),
(133,330,o),
(222,340,o),
(277,340,c)
);
},
{
closed = 1;
nodes = (
(373,-10,o),
(473,62,o),
(500,190,cs),
(527,318,o),
(460,400,o),
(290,400,c),
(277,340,l),
(399,340,o),
(447,278,o),
(428,190,cs),
(410,102,o),
(337,50,o),
(215,50,c),
(203,-10,l)
);
},
{
closed = 1;
nodes = (
(215,50,l),
(164,50,o),
(122,68,o),
(81,88,c),
(41,36,l),
(85,10,o),
(138,-10,o),
(203,-10,c)
);
}
);
width = 600;
},
{
layerId = m004;
shapes = (
{
closed = 1;
nodes = (
(336,430,l),
(309,430,o),
(294,429,o),
(294,429,c),
(315,527,l),
(569,527,l),
(599,667,l),
(165,667,l),
(85,290,l),
(85,290,o),
(216,310,o),
(271,310,c)
);
},
{
closed = 1;
nodes = (
(413,-10,o),
(513,62,o),
(547,220,cs),
(574,348,o),
(506,430,o),
(336,430,c),
(271,310,l),
(353,310,o),
(367,278,o),
(355,220,cs),
(342,162,o),
(310,110,o),
(228,110,c),
(203,-10,l)
);
},
{
closed = 1;
nodes = (
(228,110,l),
(177,110,o),
(95,128,o),
(53,148,c),
(1,36,l),
(45,10,o),
(138,-10,o),
(203,-10,c)
);
}
);
width = 600;
}
);
userData = {
KernOnSpecialSpacing = {
L = NoKerning;
R = NoKerning;
};
};
},
{
glyphname = six.tf;
lastChange = "2024-12-31 14:56:33 +0000";
layers = (
{
layerId = m003;
shapes = (
{
closed = 1;
nodes = (
(70,103,o),
(106,-10,o),
(256,-10,cs),
(406,-10,o),
(490,103,o),
(510,197,cs),
(530,291,o),
(494,403,o),
(344,403,cs),
(305,403,o),
(225,392,o),
(172,317,c),
(255,566,o),
(382,622,o),
(514,626,c),
(525,677,l),
(226,674,o),
(134,407,o),
(101,248,cs)
);
},
{
closed = 1;
nodes = (
(171,262,o),
(222,348,o),
(332,348,cs),
(442,348,o),
(457,262,o),
(443,197,cs),
(429,132,o),
(377,45,o),
(267,45,cs),
(157,45,o),
(143,132,o),
(157,197,cs)
);
}
);
width = 600;
},
{
layerId = m004;
shapes = (
{
closed = 1;
nodes = (
(26,103,o),
(82,-10,o),
(252,-10,cs),
(422,-10,o),
(524,93,o),
(549,212,cs),
(574,331,o),
(516,433,o),
(366,433,cs),
(306,433,o),
(271,402,o),
(271,402,c),
(308,481,o),
(372,556,o),
(535,556,c),
(561,677,l),
(182,674,o),
(90,407,o),
(57,248,cs)
);
},
{
closed = 1;
nodes = (
(238,247,o),
(258,318,o),
(321,318,cs),
(384,318,o),
(374,247,o),
(367,212,c),
(359,177,o),
(339,105,o),
(276,105,cs),
(213,105,o),
(223,177,o),
(231,212,cs)
);
}
);
width = 600;
}
);
userData = {
KernOnSpecialSpacing = {
L = NoKerning;
R = NoKerning;
};
};
},
{
glyphname = seven.tf;
lastChange = "2024-12-31 14:56:33 +0000";
layers = (
{
layerId = m003;
shapes = (
{
closed = 1;
nodes = (
(195,267,o),
(524,607,o),
(524,607,c),
(537,667,l),
(124,667,l),
(111,607,l),
(450,607,l),
(450,607,o),
(120,267,o),
(63,0,c),
(138,0,l)
);
}
);
width = 600;
},
{
layerId = m004;
shapes = (
{
closed = 1;
nodes = (
(255,267,o),
(567,527,o),
(567,527,c),
(597,667,l),
(104,667,l),
(74,527,l),
(373,527,l),
(373,527,o),
(60,267,o),
(3,0,c),
(198,0,l)
);
}
);
width = 600;
}
);
userData = {
KernOnSpecialSpacing = {
L = NoKerning;
R = NoKerning;
};
};
},
{
glyphname = eight.tf;
lastChange = "2024-12-31 14:56:33 +0000";
layers = (
{
layerId = m003;
shapes = (
{
closed = 1;
nodes = (
(165,461,o),
(168,387,o),
(233,364,c),
(140,339,o),
(91,261,o),
(75,186,cs),
(54,86,o),
(98,-10,o),
(244,-10,cs),
(390,-10,o),
(474,86,o),
(495,186,cs),
(511,261,o),
(496,340,o),
(413,365,c),
(488,388,o),
(522,461,o),
(531,506,cs),
(547,581,o),
(524,676,o),
(390,676,cs),
(256,676,o),
(190,581,o),
(174,506,cs)
);
},
{
closed = 1;
nodes = (
(158,261,o),
(218,334,o),
(317,334,cs),
(416,334,o),
(444,261,o),
(428,186,cs),
(412,111,o),
(360,45,o),
(255,45,cs),
(150,45,o),
(126,111,o),
(142,186,cs)
);
},
{
closed = 1;
nodes = (
(246,563,o),
(286,622,o),
(378,622,cs),
(470,622,o),
(485,563,o),
(472,506,cs),
(460,449,o),
(417,389,o),
(329,389,cs),
(240,389,o),
(221,449,o),
(233,506,cs)
);
}
);
width = 600;
},
{
layerId = m004;
shapes = (
{
closed = 1;
nodes = (
(125,461,o),
(128,387,o),
(173,364,c),
(100,339,o),
(51,261,o),
(35,186,cs),
(14,86,o),
(58,-10,o),
(244,-10,cs),
(430,-10,o),
(514,86,o),
(535,186,cs),
(551,261,o),
(536,340,o),
(473,365,c),
(528,388,o),
(562,461,o),
(571,506,cs),
(587,581,o),
(564,676,o),
(390,676,cs),
(216,676,o),
(150,581,o),
(134,506,cs)
);
},
{
closed = 1;
nodes = (
(235,247,o),
(261,301,o),
(310,301,cs),
(359,301,o),
(361,247,o),
(352,202,cs),
(342,157,o),
(314,110,o),
(269,110,cs),
(224,110,o),
(216,157,o),
(226,202,cs)
);
},
{
closed = 1;
nodes = (
(306,516,o),
(324,556,o),
(364,556,cs),
(403,556,o),
(406,516,o),
(400,489,cs),
(394,462,o),
(374,421,o),
(335,421,cs),
(295,421,o),
(294,462,o),
(300,489,cs)
);
}
);
width = 600;
}
);
userData = {
KernOnSpecialSpacing = {
L = NoKerning;
R = NoKerning;
};
};
},
{
glyphname = nine.tf;
lastChange = "2024-12-31 14:56:33 +0000";
layers = (
{
layerId = m003;
shapes = (
{
closed = 1;
nodes = (
(530,565,o),
(494,678,o),
(344,678,cs),
(194,678,o),
(110,565,o),
(90,471,cs),
(70,377,o),
(106,265,o),
(256,265,cs),
(295,265,o),
(375,276,o),
(427,351,c),
(345,102,o),
(218,46,o),
(86,42,c),
(75,-9,l),
(374,-6,o),
(465,261,o),
(499,420,cs)
);
},
{
closed = 1;
nodes = (
(429,406,o),
(378,320,o),
(268,320,cs),
(158,320,o),
(143,406,o),
(157,471,cs),
(171,536,o),
(222,623,o),
(332,623,cs),
(442,623,o),
(457,536,o),
(443,471,cs)
);
}
);
width = 600;
},
{
layerId = m004;
shapes = (
{
closed = 1;
nodes = (
(576,570,o),
(496,677,o),
(349,677,cs),
(202,677,o),
(79,585,o),
(52,455,cs),
(24,325,o),
(100,234,o),
(235,234,cs),
(295,234,o),
(329,265,o),
(329,265,c),
(287,175,o),
(178,111,o),
(65,111,c),
(40,-10,l),
(283,-8,o),
(491,169,o),
(544,419,cs)
);
},
{
closed = 1;
nodes = (
(356,393,o),
(318,349,o),
(279,349,cs),
(239,349,o),
(220,393,o),
(234,455,c),
(247,518,o),
(284,562,o),
(324,562,cs),
(364,562,o),
(383,518,o),
(370,455,cs)
);
}
);
width = 600;
}
);
userData = {
KernOnSpecialSpacing = {
L = NoKerning;
R = NoKerning;
};
};
},
{
glyphname = zero.tosf;
lastChange = "2024-12-31 14:56:33 +0000";
layers = (
{
layerId = m003;
shapes = (
{
closed = 1;
nodes = (
(28,120,o),
(90,-10,o),
(248,-10,cs),
(384,-10,o),
(495,120,o),
(534,300,cs),
(572,480,o),
(516,610,o),
(357,610,cs),
(222,610,o),
(105,480,o),
(67,300,cs)
);
},
{
closed = 1;
nodes = (
(161,457,o),
(242,555,o),
(357,555,cs),
(472,555,o),
(506,457,o),
(473,300,cs),
(439,142,o),
(363,45,o),
(248,45,cs),
(133,45,o),
(94,142,o),
(128,300,c)
);
}
);
width = 600;
},
{
layerId = m004;
shapes = (
{
closed = 1;
nodes = (
(-12,120,o),
(50,-10,o),
(261,-10,cs),
(424,-10,o),
(535,120,o),
(574,300,cs),
(612,480,o),
(556,610,o),
(344,610,cs),
(182,610,o),
(65,480,o),
(27,300,cs)
);
},
{
closed = 1;
nodes = (
(235,427,o),
(269,495,o),
(344,495,cs),
(419,495,o),
(420,427,o),
(393,300,cs),
(365,172,o),
(336,105,o),
(261,105,cs),
(186,105,o),
(180,172,o),
(208,300,c)
);
}
);
width = 600;
}
);
userData = {
KernOnSpecialSpacing = {
L = NoKerning;
R = NoKerning;
};
};
},
{
glyphname = one.tosf;
lastChange = "2024-12-31 14:56:33 +0000";
layers = (
{
layerId = m003;
shapes = (
{
closed = 1;
nodes = (
(122,0,l),
(466,0,l),
(479,60,l),
(337,60,l),
(451,600,l),
(403,600,l),
(209,517,l),
(218,471,l),
(375,524,l),
(277,60,l),
(135,60,l)
);
}
);
width = 600;
},
{
layerId = m004;
shapes = (
{
closed = 1;
nodes = (
(36,0,l),
(540,0,l),
(564,115,l),
(422,115,l),
(525,600,l),
(357,600,l),
(123,517,l),
(119,411,l),
(316,464,l),
(242,115,l),
(60,115,l)
);
}
);
width = 600;
}
);
userData = {
KernOnSpecialSpacing = {
L = NoKerning;
R = NoKerning;
};
};
},
{
glyphname = two.tosf;
lastChange = "2024-12-31 14:56:33 +0000";
layers = (
{
layerId = m003;
shapes = (
{
closed = 1;
nodes = (
(449,0,l),
(462,60,l),
(180,60,l),
(180,60,o),
(481,245,o),
(521,432,c),
(545,546,o),
(482,610,o),
(338,610,c),
(325,550,l),
(431,550,o),
(474,511,o),
(458,432,cs),
(422,265,o),
(69,60,o),
(69,60,cs),
(56,0,l)
);
},
{
closed = 1;
nodes = (
(224,532,o),
(274,550,o),
(325,550,c),
(338,610,l),
(273,610,o),
(211,590,o),
(156,564,c),
(174,512,l)
);
}
);
width = 600;
},
{
layerId = m004;
shapes = (
{
closed = 1;
nodes = (
(497,0,l),
(521,115,l),
(299,115,l),
(299,115,o),
(523,216,o),
(561,394,c),
(586,512,o),
(546,610,o),
(337,610,c),
(291,490,l),
(390,490,o),
(384,425,o),
(378,394,cs),
(344,236,o),
(38,108,o),
(38,108,cs),
(15,0,l)
);
},
{
closed = 1;
nodes = (
(189,479,o),
(242,490,o),
(291,490,c),
(337,610,l),
(245,610,o),
(169,585,o),
(115,564,c),
(120,452,l)
);
}
);
width = 600;
}
);
userData = {
KernOnSpecialSpacing = {
L = NoKerning;
R = NoKerning;
};
};
},
{
glyphname = three.tosf;
lastChange = "2024-12-31 14:56:33 +0000";
layers = (
{
layerId = m003;
shapes = (
{
closed = 1;
nodes = (
(373,-76,o),
(472,-9,o),
(500,119,c),
(516,197,o),
(481,265,o),
(405,286,c),
(472,312,o),
(523,368,o),
(536,432,cs),
(560,546,o),
(493,610,o),
(349,610,c),
(336,550,l),
(442,550,o),
(486,511,o),
(469,432,cs),
(452,353,o),
(392,314,o),
(286,314,c),
(274,259,l),
(396,259,o),
(446,207,o),
(428,119,cs),
(409,31,o),
(338,-16,o),
(216,-16,c),
(203,-76,l)
);
},
{
closed = 1;
nodes = (
(216,-16,l),
(165,-16,o),
(123,2,o),
(81,22,c),
(41,-30,l),
(85,-56,o),
(138,-76,o),
(203,-76,c)
);
},
{
closed = 1;
nodes = (
(274,259,l),
(286,314,l),
(231,314,l),
(219,259,l)
);
},
{
closed = 1;
nodes = (
(235,532,o),
(285,550,o),
(336,550,c),
(349,610,l),
(284,610,o),
(223,590,o),
(167,564,c),
(185,512,l)
);
}
);
width = 600;
},
{
layerId = m004;
shapes = (
{
closed = 1;
nodes = (
(413,-77,o),
(513,-5,o),
(540,123,cs),
(557,201,o),
(521,265,o),
(445,286,c),
(512,312,o),
(562,367,o),
(576,431,cs),
(600,545,o),
(533,610,o),
(349,610,c),
(323,489,l),
(349,489,o),
(400,485,o),
(386,416,cs),
(371,347,o),
(318,343,o),
(292,343,c),
(268,228,l),
(310,228,o),
(367,211,o),
(352,138,cs),
(336,65,o),
(270,43,o),
(228,43,c),
(203,-77,l)
);
},
{
closed = 1;
nodes = (
(228,43,l),
(159,43,o),
(111,54,o),
(54,81,c),
(1,-31,l),
(46,-52,o),
(111,-77,o),
(203,-77,c)
);
},
{
closed = 1;
nodes = (
(268,228,l),
(292,343,l),
(190,343,l),
(166,228,l)
);
},
{
closed = 1;
nodes = (
(201,479,o),
(254,490,o),
(323,490,c),
(349,610,l),
(257,610,o),
(182,585,o),
(127,564,c),
(132,452,l)
);
}
);
width = 600;
}
);
userData = {
KernOnSpecialSpacing = {
L = NoKerning;
R = NoKerning;
};
};
},
{
glyphname = four.tosf;
lastChange = "2024-12-31 14:56:33 +0000";
layers = (
{
layerId = m003;
shapes = (
{
closed = 1;
nodes = (
(61,156,l),
(49,100,l),
(371,100,l),
(336,-67,l),
(396,-67,l),
(431,100,l),
(539,100,l),
(552,160,l),
(444,160,l),
(537,600,l),
(473,600,l)
);
},
{
closed = 1;
nodes = (
(132,160,l),
(457,505,l),
(384,160,l)
);
}
);
width = 600;
},
{
layerId = m004;
shapes = (
{
closed = 1;
nodes = (
(27,156,l),
(2,40,l),
(284,40,l),
(262,-67,l),
(442,-67,l),
(464,40,l),
(572,40,l),
(598,160,l),
(490,160,l),
(583,600,l),
(403,600,l)
);
},
{
closed = 1;
nodes = (
(188,160,l),
(351,353,l),
(310,160,l)
);
}
);
width = 600;
}
);
userData = {
KernOnSpecialSpacing = {
L = NoKerning;
R = NoKerning;
};
};
},
{
glyphname = five.tosf;
lastChange = "2024-12-31 14:56:33 +0000";
layers = (
{
layerId = m003;
shapes = (
{
closed = 1;
nodes = (
(291,333,l),
(264,333,o),
(235,331,o),
(208,328,c),
(253,540,l),
(547,540,l),
(559,600,l),
(205,600,l),
(134,263,l),
(134,263,o),
(223,273,o),
(278,273,c)
);
},
{
closed = 1;
nodes = (
(373,-77,o),
(474,-5,o),
(501,123,cs),
(528,251,o),
(461,333,o),
(291,333,c),
(278,273,l),
(400,273,o),
(448,211,o),
(429,123,cs),
(410,35,o),
(338,-17,o),
(216,-17,c),
(203,-77,l)
);
},
{
closed = 1;
nodes = (
(216,-17,l),
(165,-17,o),
(123,1,o),
(81,21,c),
(41,-31,l),
(86,-57,o),
(138,-77,o),
(203,-77,c)
);
}
);
width = 600;
},
{
layerId = m004;
shapes = (
{
closed = 1;
nodes = (
(337,363,l),
(310,363,o),
(295,362,o),
(295,362,c),
(316,460,l),
(570,460,l),
(599,600,l),
(165,600,l),
(85,223,l),
(85,223,o),
(217,243,o),
(272,243,c)
);
},
{
closed = 1;
nodes = (
(413,-77,o),
(514,-5,o),
(547,153,cs),
(575,281,o),
(507,363,o),
(337,363,c),
(272,243,l),
(354,243,o),
(368,211,o),
(355,153,cs),
(343,95,o),
(311,43,o),
(229,43,c),
(203,-77,l)
);
},
{
closed = 1;
nodes = (
(229,43,l),
(178,43,o),
(96,61,o),
(54,81,c),
(1,-31,l),
(46,-57,o),
(138,-77,o),
(203,-77,c)
);
}
);
width = 600;
}
);
userData = {
KernOnSpecialSpacing = {
L = NoKerning;
R = NoKerning;
};
};
},
{
glyphname = six.tosf;
lastChange = "2024-12-31 14:56:33 +0000";
layers = (
{
layerId = m003;
shapes = (
{
closed = 1;
nodes = (
(70,103,o),
(106,-10,o),
(256,-10,cs),
(406,-10,o),
(490,103,o),
(510,197,cs),
(530,291,o),
(494,403,o),
(344,403,cs),
(305,403,o),
(225,392,o),
(172,317,c),
(255,566,o),
(382,622,o),
(514,626,c),
(525,677,l),
(226,674,o),
(134,407,o),
(101,248,cs)
);
},
{
closed = 1;
nodes = (
(171,262,o),
(222,348,o),
(332,348,cs),
(442,348,o),
(457,262,o),
(443,197,cs),
(429,132,o),
(377,45,o),
(267,45,cs),
(157,45,o),
(143,132,o),
(157,197,cs)
);
}
);
width = 600;
},
{
layerId = m004;
shapes = (
{
closed = 1;
nodes = (
(26,103,o),
(82,-10,o),
(252,-10,cs),
(422,-10,o),
(524,93,o),
(549,212,cs),
(574,331,o),
(516,433,o),
(366,433,cs),
(306,433,o),
(271,402,o),
(271,402,c),
(308,481,o),
(372,556,o),
(535,556,c),
(561,677,l),
(182,674,o),
(90,407,o),
(57,248,cs)
);
},
{
closed = 1;
nodes = (
(238,247,o),
(258,318,o),
(321,318,cs),
(384,318,o),
(374,247,o),
(367,212,c),
(359,177,o),
(339,105,o),
(276,105,cs),
(213,105,o),
(223,177,o),
(231,212,cs)
);
}
);
width = 600;
}
);
userData = {
KernOnSpecialSpacing = {
L = NoKerning;
R = NoKerning;
};
};
},
{
glyphname = seven.tosf;
lastChange = "2024-12-31 14:56:33 +0000";
layers = (
{
layerId = m003;
shapes = (
{
closed = 1;
nodes = (
(195,200,o),
(525,540,o),
(525,540,c),
(537,600,l),
(124,600,l),
(112,540,l),
(451,540,l),
(451,540,o),
(120,200,o),
(64,-67,c),
(139,-67,l)
);
}
);
width = 600;
},
{
layerId = m004;
shapes = (
{
closed = 1;
nodes = (
(255,200,o),
(571,464,o),
(568,460,c),
(597,600,l),
(104,600,l),
(75,460,l),
(374,460,l),
(374,460,o),
(60,200,o),
(4,-67,c),
(199,-67,l)
);
}
);
width = 600;
}
);
userData = {
KernOnSpecialSpacing = {
L = NoKerning;
R = NoKerning;
};
};
},
{
glyphname = eight.tosf;
lastChange = "2024-12-31 14:56:33 +0000";
layers = (
{
layerId = m003;
shapes = (
{
closed = 1;
nodes = (
(165,461,o),
(168,387,o),
(233,364,c),
(140,339,o),
(91,261,o),
(75,186,cs),
(54,86,o),
(98,-10,o),
(244,-10,cs),
(390,-10,o),
(474,86,o),
(495,186,cs),
(511,261,o),
(496,340,o),
(413,365,c),
(488,388,o),
(522,461,o),
(531,506,cs),
(547,581,o),
(524,676,o),
(390,676,cs),
(256,676,o),
(190,581,o),
(174,506,cs)
);
},
{
closed = 1;
nodes = (
(158,261,o),
(218,334,o),
(317,334,cs),
(416,334,o),
(444,261,o),
(428,186,cs),
(412,111,o),
(360,45,o),
(255,45,cs),
(150,45,o),
(126,111,o),
(142,186,cs)
);
},
{
closed = 1;
nodes = (
(246,563,o),
(286,622,o),
(378,622,cs),
(470,622,o),
(485,563,o),
(472,506,cs),
(460,449,o),
(417,389,o),
(329,389,cs),
(240,389,o),
(221,449,o),
(233,506,cs)
);
}
);
width = 600;
},
{
layerId = m004;
shapes = (
{
closed = 1;
nodes = (
(125,461,o),
(128,387,o),
(173,364,c),
(100,339,o),
(51,261,o),
(35,186,cs),
(14,86,o),
(58,-10,o),
(244,-10,cs),
(430,-10,o),
(514,86,o),
(535,186,cs),
(551,261,o),
(536,340,o),
(473,365,c),
(528,388,o),
(562,461,o),
(571,506,cs),
(587,581,o),
(564,676,o),
(390,676,cs),
(216,676,o),
(150,581,o),
(134,506,cs)
);
},
{
closed = 1;
nodes = (
(235,247,o),
(261,301,o),
(310,301,cs),
(359,301,o),
(361,247,o),
(352,202,cs),
(342,157,o),
(314,110,o),
(269,110,cs),
(224,110,o),
(216,157,o),
(226,202,cs)
);
},
{
closed = 1;
nodes = (
(306,516,o),
(324,556,o),
(364,556,cs),
(403,556,o),
(406,516,o),
(400,489,cs),
(394,462,o),
(374,421,o),
(335,421,cs),
(295,421,o),
(294,462,o),
(300,489,cs)
);
}
);
width = 600;
}
);
userData = {
KernOnSpecialSpacing = {
L = NoKerning;
R = NoKerning;
};
};
},
{
glyphname = nine.tosf;
lastChange = "2024-12-31 14:56:33 +0000";
layers = (
{
layerId = m003;
shapes = (
{
closed = 1;
nodes = (
(530,497,o),
(494,610,o),
(344,610,cs),
(194,610,o),
(110,497,o),
(90,403,cs),
(70,309,o),
(106,197,o),
(256,197,cs),
(295,197,o),
(374,208,o),
(427,283,c),
(344,34,o),
(217,-22,o),
(85,-26,c),
(74,-77,l),
(373,-74,o),
(465,193,o),
(499,352,cs)
);
},
{
closed = 1;
nodes = (
(429,338,o),
(377,252,o),
(267,252,cs),
(157,252,o),
(143,338,o),
(157,403,cs),
(170,468,o),
(222,555,o),
(332,555,cs),
(442,555,o),
(456,468,o),
(443,403,cs)
);
}
);
width = 600;
},
{
layerId = m004;
shapes = (
{
closed = 1;
nodes = (
(575,497,o),
(519,610,o),
(349,610,cs),
(179,610,o),
(77,507,o),
(51,388,cs),
(26,269,o),
(84,167,o),
(234,167,cs),
(294,167,o),
(329,198,o),
(329,198,c),
(292,119,o),
(228,44,o),
(65,44,c),
(39,-77,l),
(418,-74,o),
(510,193,o),
(544,352,cs)
);
},
{
closed = 1;
nodes = (
(362,353,o),
(342,282,o),
(279,282,cs),
(216,282,o),
(226,353,o),
(233,388,c),
(241,423,o),
(261,495,o),
(324,495,cs),
(387,495,o),
(377,423,o),
(369,388,cs)
);
}
);
width = 600;
}
);
userData = {
KernOnSpecialSpacing = {
L = NoKerning;
R = NoKerning;
};
};
},
{
glyphname = zero.dnom;
lastChange = "2022-10-23 23:14:24 +0000";
layers = (
{
layerId = m003;
shapes = (
{
closed = 1;
nodes = (
(-10,87,o),
(32,-3,o),
(139,-3,cs),
(232,-3,o),
(308,86,o),
(333,207,cs),
(359,328,o),
(322,418,o),
(212,418,cs),
(120,418,o),
(42,329,o),
(16,209,cs)
);
},
{
closed = 1;
nodes = (
(88,311,o),
(136,375,o),
(212,375,cs),
(287,375,o),
(306,312,o),
(284,209,cs),
(262,104,o),
(214,40,o),
(139,40,cs),
(64,40,o),
(43,103,o),
(65,207,cs)
);
}
);
width = 367;
},
{
layerId = m004;
shapes = (
{
closed = 1;
nodes = (
(-11,85,o),
(29,-3,o),
(167,-3,cs),
(275,-3,o),
(349,85,o),
(375,204,cs),
(400,324,o),
(363,411,o),
(225,411,cs),
(117,411,o),
(40,324,o),
(15,204,cs)
);
},
{
closed = 1;
nodes = (
(148,291,o),
(171,339,o),
(225,339,cs),
(278,339,o),
(277,291,o),
(259,204,cs),
(240,117,o),
(220,69,o),
(167,69,cs),
(114,69,o),
(111,117,o),
(130,204,cs)
);
}
);
width = 410;
}
);
metricRight = "=|";
},
{
glyphname = one.dnom;
lastChange = "2022-10-23 23:14:24 +0000";
layers = (
{
layerId = m003;
shapes = (
{
closed = 1;
nodes = (
(-13,0,l),
(200,0,l),
(209,42,l),
(124,42,l),
(202,409,l),
(169,409,l),
(48,357,l),
(55,324,l),
(147,356,l),
(82,42,l),
(-4,42,l)
);
}
);
width = 278;
},
{
layerId = m004;
shapes = (
{
closed = 1;
nodes = (
(-14,0,l),
(290,0,l),
(304,69,l),
(219,69,l),
(290,402,l),
(188,402,l),
(47,352,l),
(44,288,l),
(164,320,l),
(110,69,l),
(0,69,l)
);
}
);
width = 368;
}
);
},
{
glyphname = two.dnom;
lastChange = "2022-10-23 23:14:24 +0000";
layers = (
{
layerId = m003;
shapes = (
{
closed = 1;
nodes = (
(214,0,l),
(224,45,l),
(52,45,l),
(157,131,o),
(269,241,o),
(278,311,c),
(232,311,l),
(221,242,o),
(97,129,o),
(-17,43,c),
(-27,0,l)
);
},
{
closed = 1;
nodes = (
(101,361,o),
(133,373,o),
(165,372,c),
(175,417,l),
(132,418,o),
(90,405,o),
(54,387,c),
(68,347,l)
);
},
{
closed = 1;
nodes = (
(277,302,l),
(292,366,o),
(254,419,o),
(166,417,c),
(156,372,l),
(223,374,o),
(241,343,o),
(230,302,c)
);
}
);
width = 293;
},
{
layerId = m004;
shapes = (
{
closed = 1;
nodes = (
(251,0,l),
(265,69,l),
(117,69,l),
(117,69,o),
(291,191,o),
(313,290,c),
(208,290,l),
(189,203,o),
(-13,69,o),
(-13,69,c),
(-28,0,l)
);
},
{
closed = 1;
nodes = (
(98,329,o),
(130,336,o),
(159,336,c),
(187,408,l),
(132,408,o),
(86,392,o),
(53,380,c),
(56,312,l)
);
},
{
closed = 1;
nodes = (
(313,290,l),
(327,361,o),
(278,408,o),
(187,408,c),
(159,336,l),
(200,336,o),
(215,320,o),
(208,290,c)
);
}
);
width = 329;
}
);
},
{
glyphname = three.dnom;
lastChange = "2022-10-23 23:14:24 +0000";
layers = (
{
layerId = m003;
shapes = (
{
closed = 1;
nodes = (
(185,-3,o),
(248,40,o),
(266,121,cs),
(275,166,o),
(257,206,o),
(216,223,c),
(252,240,o),
(279,273,o),
(287,310,cs),
(302,383,o),
(258,423,o),
(167,422,c),
(157,377,l),
(223,378,o),
(248,358,o),
(238,311,cs),
(228,265,o),
(194,243,o),
(129,244,c),
(120,202,l),
(194,203,o),
(224,175,o),
(213,122,cs),
(202,70,o),
(160,44,o),
(86,45,c),
(77,-1,l)
);
},
{
closed = 1;
nodes = (
(95,45,l),
(62,43,o),
(34,56,o),
(6,68,c),
(-22,31,l),
(6,14,o),
(41,-2,o),
(86,-1,c)
);
},
{
closed = 1;
nodes = (
(129,202,l),
(138,244,l),
(95,244,l),
(86,202,l)
);
},
{
closed = 1;
nodes = (
(101,366,o),
(133,378,o),
(166,377,c),
(176,422,l),
(132,423,o),
(91,410,o),
(55,392,c),
(68,352,l)
);
}
);
width = 318;
},
{
layerId = m004;
shapes = (
{
closed = 1;
nodes = (
(226,-3,o),
(286,41,o),
(302,118,cs),
(312,165,o),
(291,203,o),
(245,216,c),
(285,231,o),
(316,265,o),
(324,303,cs),
(338,372,o),
(298,411,o),
(187,411,c),
(171,338,l),
(187,338,o),
(218,336,o),
(210,294,cs),
(201,253,o),
(168,250,o),
(153,250,c),
(139,181,l),
(164,181,o),
(198,171,o),
(189,127,cs),
(179,83,o),
(139,69,o),
(114,69,c),
(99,-3,l)
);
},
{
closed = 1;
nodes = (
(114,69,l),
(73,69,o),
(43,76,o),
(9,93,c),
(-23,25,l),
(4,12,o),
(43,-3,o),
(99,-3,c)
);
},
{
closed = 1;
nodes = (
(139,181,l),
(153,250,l),
(91,250,l),
(76,181,l)
);
},
{
closed = 1;
nodes = (
(98,332,o),
(130,339,o),
(171,339,c),
(187,411,l),
(131,411,o),
(86,396,o),
(53,383,c),
(56,316,l)
);
}
);
width = 355;
}
);
},
{
glyphname = four.dnom;
lastChange = "2022-10-23 23:14:24 +0000";
layers = (
{
layerId = m003;
shapes = (
{
closed = 1;
nodes = (
(2,142,l),
(-7,101,l),
(187,101,l),
(166,0,l),
(211,0,l),
(233,101,l),
(297,101,l),
(307,146,l),
(243,146,l),
(299,411,l),
(247,411,l)
);
},
{
closed = 1;
nodes = (
(65,146,l),
(236,334,l),
(196,146,l)
);
}
);
width = 354;
},
{
layerId = m004;
shapes = (
{
closed = 1;
nodes = (
(1,135,l),
(-14,65,l),
(156,65,l),
(143,0,l),
(251,0,l),
(265,65,l),
(330,65,l),
(345,137,l),
(280,137,l),
(336,402,l),
(228,402,l)
);
},
{
closed = 1;
nodes = (
(98,137,l),
(196,254,l),
(172,137,l)
);
}
);
width = 394;
}
);
},
{
glyphname = five.dnom;
lastChange = "2022-10-23 23:14:24 +0000";
layers = (
{
layerId = m003;
shapes = (
{
closed = 1;
nodes = (
(140,256,l),
(123,256,o),
(106,255,o),
(90,254,c),
(115,372,l),
(293,372,l),
(302,417,l),
(79,417,l),
(34,203,l),
(63,207,o),
(106,211,o),
(131,211,c)
);
},
{
closed = 1;
nodes = (
(185,-3,o),
(248,43,o),
(266,123,cs),
(283,204,o),
(239,257,o),
(131,256,c),
(122,211,l),
(196,212,o),
(224,177,o),
(213,125,cs),
(203,73,o),
(160,44,o),
(86,45,c),
(77,-1,l)
);
},
{
closed = 1;
nodes = (
(95,45,l),
(61,44,o),
(34,56,o),
(6,68,c),
(-22,31,l),
(6,14,o),
(41,-2,o),
(86,-1,c)
);
}
);
width = 318;
},
{
layerId = m004;
shapes = (
{
closed = 1;
nodes = (
(179,263,l),
(163,263,o),
(154,263,o),
(154,263,c),
(166,321,l),
(319,321,l),
(337,406,l),
(76,406,l),
(28,178,l),
(28,178,o),
(107,191,o),
(140,191,c)
);
},
{
closed = 1;
nodes = (
(226,-3,o),
(286,41,o),
(306,137,cs),
(323,213,o),
(282,263,o),
(179,263,c),
(140,191,l),
(190,191,o),
(198,171,o),
(191,137,cs),
(183,102,o),
(164,70,o),
(114,70,c),
(99,-3,l)
);
},
{
closed = 1;
nodes = (
(114,70,l),
(84,70,o),
(34,81,o),
(9,93,c),
(-23,25,l),
(4,10,o),
(59,-3,o),
(99,-3,c)
);
}
);
width = 355;
}
);
},
{
glyphname = six.dnom;
lastChange = "2022-10-23 23:14:24 +0000";
layers = (
{
layerId = m003;
shapes = (
{
closed = 1;
nodes = (
(-13,69,o),
(9,-3,o),
(103,-3,cs),
(197,-3,o),
(249,67,o),
(261,125,cs),
(274,183,o),
(251,255,o),
(156,255,cs),
(136,255,o),
(97,250,o),
(65,220,c),
(115,351,o),
(187,379,o),
(263,381,c),
(271,420,l),
(83,422,o),
(25,255,o),
(5,158,cs)
);
},
{
closed = 1;
nodes = (
(56,164,o),
(85,213,o),
(149,213,cs),
(212,213,o),
(220,166,o),
(211,127,cs),
(203,89,o),
(174,40,o),
(110,40,cs),
(48,40,o),
(39,87,o),
(48,125,cs)
);
}
);
width = 313;
},
{
layerId = m004;
shapes = (
{
closed = 1;
nodes = (
(-15,65,o),
(20,-3,o),
(121,-3,cs),
(224,-3,o),
(286,59,o),
(300,131,cs),
(316,203,o),
(281,265,o),
(191,265,cs),
(155,265,o),
(133,246,o),
(133,246,c),
(156,293,o),
(194,338,o),
(292,338,c),
(308,411,l),
(80,410,o),
(24,248,o),
(4,153,cs)
);
},
{
closed = 1;
nodes = (
(113,152,o),
(125,194,o),
(164,194,cs),
(201,194,o),
(195,152,o),
(192,131,c),
(186,110,o),
(174,67,o),
(137,67,cs),
(98,67,o),
(104,110,o),
(109,131,cs)
);
}
);
width = 350;
}
);
},
{
glyphname = seven.dnom;
lastChange = "2022-10-23 23:14:24 +0000";
layers = (
{
layerId = m003;
shapes = (
{
closed = 1;
nodes = (
(98,114,o),
(210,263,o),
(309,369,c),
(318,411,l),
(60,411,l),
(50,366,l),
(250,366,l),
(151,260,o),
(42,113,o),
(21,0,c),
(75,0,l)
);
}
);
width = 309;
},
{
layerId = m004;
shapes = (
{
closed = 1;
nodes = (
(148,161,o),
(336,318,o),
(336,318,c),
(354,402,l),
(57,402,l),
(39,318,l),
(219,318,l),
(219,318,o),
(30,161,o),
(-4,0,c),
(114,0,l)
);
}
);
width = 347;
}
);
},
{
glyphname = eight.dnom;
lastChange = "2022-10-23 23:14:24 +0000";
layers = (
{
layerId = m003;
shapes = (
{
closed = 1;
nodes = (
(53,289,o),
(54,247,o),
(86,229,c),
(35,210,o),
(8,165,o),
(-2,122,cs),
(-14,59,o),
(14,-3,o),
(105,-3,cs),
(195,-3,o),
(248,58,o),
(261,120,cs),
(269,162,o),
(262,209,o),
(220,229,c),
(259,246,o),
(277,287,o),
(283,312,cs),
(292,358,o),
(277,420,o),
(193,420,cs),
(109,420,o),
(68,360,o),
(58,314,cs)
);
},
{
closed = 1;
nodes = (
(58,164,o),
(91,205,o),
(149,205,cs),
(206,205,o),
(221,166,o),
(212,122,cs),
(202,77,o),
(173,40,o),
(112,40,cs),
(51,40,o),
(38,75,o),
(48,120,cs)
);
},
{
closed = 1;
nodes = (
(111,346,o),
(133,379,o),
(186,379,cs),
(238,379,o),
(246,347,o),
(238,314,cs),
(231,281,o),
(206,248,o),
(156,248,cs),
(106,248,o),
(96,279,o),
(103,312,cs)
);
}
);
width = 314;
},
{
layerId = m004;
shapes = (
{
closed = 1;
nodes = (
(50,281,o),
(52,236,o),
(79,222,c),
(35,207,o),
(5,160,o),
(-4,115,cs),
(-17,55,o),
(10,-4,o),
(122,-4,c),
(234,-4,o),
(284,55,o),
(297,115,cs),
(307,160,o),
(298,208,o),
(260,223,c),
(293,237,o),
(313,281,o),
(319,308,cs),
(329,353,o),
(315,410,o),
(210,410,cs),
(105,410,o),
(65,353,o),
(56,308,cs)
);
},
{
closed = 1;
nodes = (
(116,152,o),
(132,185,o),
(162,185,cs),
(191,185,o),
(193,152,o),
(187,124,cs),
(181,97,o),
(164,69,o),
(137,69,cs),
(110,69,o),
(105,97,o),
(111,124,cs)
);
},
{
closed = 1;
nodes = (
(159,314,o),
(170,338,o),
(194,338,cs),
(218,338,o),
(220,314,o),
(216,298,cs),
(212,282,o),
(200,257,o),
(176,257,cs),
(153,257,o),
(152,282,o),
(156,298,cs)
);
}
);
width = 351;
}
);
},
{
glyphname = nine.dnom;
lastChange = "2022-10-23 23:14:24 +0000";
layers = (
{
layerId = m003;
shapes = (
{
closed = 1;
nodes = (
(309,352,o),
(287,423,o),
(193,423,cs),
(100,423,o),
(46,352,o),
(34,293,cs),
(22,235,o),
(45,165,o),
(138,165,cs),
(159,165,o),
(198,170,o),
(232,202,c),
(180,68,o),
(109,41,o),
(33,40,c),
(25,0,l),
(212,-1,o),
(269,167,o),
(290,263,cs)
);
},
{
closed = 1;
nodes = (
(239,256,o),
(211,207,o),
(147,207,cs),
(83,207,o),
(75,256,o),
(83,293,cs),
(92,332,o),
(120,381,o),
(184,381,cs),
(248,381,o),
(256,332,o),
(247,293,cs)
);
}
);
width = 312;
},
{
layerId = m004;
shapes = (
{
closed = 1;
nodes = (
(347,349,o),
(299,414,o),
(210,414,cs),
(122,414,o),
(47,358,o),
(31,280,cs),
(15,202,o),
(61,147,o),
(142,147,cs),
(178,147,o),
(199,166,o),
(199,166,c),
(173,112,o),
(108,73,o),
(39,73,c),
(24,0,l),
(171,1,o),
(296,108,o),
(328,258,cs)
);
},
{
closed = 1;
nodes = (
(215,243,o),
(192,216,o),
(168,216,cs),
(145,216,o),
(133,243,o),
(141,280,c),
(149,318,o),
(172,345,o),
(196,345,cs),
(219,345,o),
(231,318,o),
(223,280,cs)
);
}
);
width = 351;
}
);
},
{
glyphname = fraction;
lastChange = "2024-12-31 15:21:32 +0000";
layers = (
{
layerId = m003;
shapes = (
{
closed = 1;
nodes = (
(-245,-24,l),
(-207,-57,l),
(495,691,l),
(457,723,l)
);
}
);
width = 250;
},
{
layerId = m004;
shapes = (
{
closed = 1;
nodes = (
(-256,-14,l),
(-195,-67,l),
(507,681,l),
(446,733,l)
);
}
);
width = 250;
}
);
unicode = 8260;
userData = {
KernOnName = fraction;
KernOnSpecialSpacing = {
L = fraction;
R = fraction;
};
};
},
{
glyphname = period;
kernLeft = KO_period;
kernRight = KO_period;
lastChange = "2024-12-31 15:29:04 +0000";
layers = (
{
layerId = m003;
shapes = (
{
closed = 1;
nodes = (
(75,-8,o),
(100,12,o),
(105,37,cs),
(110,62,o),
(95,82,o),
(70,82,cs),
(45,82,o),
(20,62,o),
(15,37,cs),
(10,12,o),
(25,-8,o),
(50,-8,cs)
);
}
);
width = 210;
},
{
layerId = m004;
shapes = (
{
closed = 1;
nodes = (
(125,-8,o),
(180,36,o),
(191,92,cs),
(203,147,o),
(168,192,o),
(113,192,cs),
(57,192,o),
(3,147,o),
(-9,92,cs),
(-20,36,o),
(14,-8,o),
(70,-8,cs)
);
}
);
width = 250;
}
);
metricLeft = "=i";
metricRight = "=|";
unicode = 46;
userData = {
KernOnName = period;
KernOnSpecialSpacing = {
L = period;
R = period;
};
};
},
{
glyphname = comma;
kernLeft = KO_comma;
kernRight = KO_comma;
lastChange = "2024-12-31 15:21:32 +0000";
layers = (
{
layerId = m003;
shapes = (
{
closed = 1;
nodes = (
(85,-8,o),
(109,12,o),
(114,37,cs),
(120,62,o),
(104,82,o),
(79,82,cs),
(54,82,o),
(30,62,o),
(24,37,cs),
(19,12,o),
(35,-8,o),
(60,-8,cs)
);
},
{
closed = 1;
nodes = (
(20,-133,l),
(55,-108,o),
(161,0,o),
(110,67,c),
(60,-8,l),
(53,-38,o),
(19,-81,o),
(-16,-106,c)
);
}
);
width = 233;
},
{
layerId = m004;
shapes = (
{
closed = 1;
nodes = (
(125,-8,o),
(180,37,o),
(191,92,cs),
(203,147,o),
(168,192,o),
(113,192,cs),
(58,192,o),
(3,147,o),
(-9,92,c),
(-20,37,o),
(15,-8,o),
(70,-8,cs)
);
},
{
closed = 1;
nodes = (
(37,-213,l),
(149,-131,o),
(271,72,o),
(173,167,c),
(70,-8,l),
(58,-63,o),
(11,-113,o),
(-31,-146,c)
);
}
);
width = 275;
}
);
metricLeft = "=i";
metricRight = "=|";
unicode = 44;
userData = {
KernOnName = comma;
KernOnSpecialSpacing = {
L = period;
R = period;
};
};
},
{
glyphname = colon;
kernLeft = KO_colon;
lastChange = "2024-12-31 15:21:32 +0000";
layers = (
{
layerId = m003;
shapes = (
{
closed = 1;
nodes = (
(153,358,o),
(178,378,o),
(183,403,cs),
(188,428,o),
(172,448,o),
(147,448,cs),
(122,448,o),
(98,428,o),
(93,403,cs),
(88,378,o),
(103,358,o),
(128,358,cs)
);
},
{
closed = 1;
nodes = (
(76,-8,o),
(100,12,o),
(105,37,cs),
(110,62,o),
(95,82,o),
(70,82,cs),
(45,82,o),
(20,62,o),
(15,37,cs),
(10,12,o),
(26,-8,o),
(51,-8,cs)
);
}
);
width = 210;
},
{
layerId = m004;
shapes = (
{
closed = 1;
nodes = (
(192,308,o),
(247,352,o),
(259,408,cs),
(270,463,o),
(235,508,o),
(180,508,cs),
(124,508,o),
(70,463,o),
(59,408,cs),
(47,352,o),
(81,308,o),
(137,308,cs)
);
},
{
closed = 1;
nodes = (
(125,-8,o),
(180,37,o),
(191,92,cs),
(203,147,o),
(168,192,o),
(113,192,cs),
(58,192,o),
(3,147,o),
(-9,92,c),
(-20,37,o),
(15,-8,o),
(70,-8,cs)
);
}
);
width = 250;
}
);
metricLeft = "=i";
metricRight = "=|";
note = colon;
unicode = 58;
userData = {
KernOnName = colon;
KernOnSpecialSpacing = {
L = "spaced-off";
R = "spaced-off";
};
};
},
{
glyphname = semicolon;
kernLeft = KO_colon;
lastChange = "2024-12-31 15:21:34 +0000";
layers = (
{
layerId = m004;
shapes = (
{
closed = 1;
nodes = (
(125,-8,o),
(180,37,o),
(191,92,cs),
(203,147,o),
(168,192,o),
(113,192,cs),
(58,192,o),
(3,147,o),
(-9,92,c),
(-20,37,o),
(15,-8,o),
(70,-8,cs)
);
},
{
closed = 1;
nodes = (
(37,-213,l),
(149,-131,o),
(271,72,o),
(173,167,c),
(70,-8,l),
(58,-63,o),
(11,-113,o),
(-31,-146,c)
);
},
{
closed = 1;
nodes = (
(192,308,o),
(247,352,o),
(259,408,cs),
(270,463,o),
(235,508,o),
(180,508,cs),
(124,508,o),
(70,463,o),
(59,408,cs),
(47,352,o),
(81,308,o),
(137,308,cs)
);
}
);
width = 284;
},
{
layerId = m003;
shapes = (
{
closed = 1;
nodes = (
(86,-8,o),
(110,12,o),
(115,37,cs),
(121,62,o),
(105,82,o),
(80,82,cs),
(55,82,o),
(31,62,o),
(25,37,cs),
(20,12,o),
(36,-8,o),
(61,-8,cs)
);
},
{
closed = 1;
nodes = (
(21,-133,l),
(57,-108,o),
(163,0,o),
(111,67,c),
(61,-8,l),
(54,-38,o),
(20,-81,o),
(-15,-106,c)
);
},
{
closed = 1;
nodes = (
(154,358,o),
(178,378,o),
(183,403,cs),
(188,428,o),
(173,448,o),
(148,448,cs),
(123,448,o),
(98,428,o),
(93,403,cs),
(88,378,o),
(104,358,o),
(129,358,cs)
);
}
);
width = 199;
}
);
metricLeft = "=i";
note = semicolon;
unicode = 59;
userData = {
KernOnName = semicolon;
KernOnSpecialSpacing = {
L = "spaced-off";
R = "spaced-off";
};
};
},
{
glyphname = ellipsis;
kernLeft = KO_ellipsis;
kernRight = KO_ellipsis;
lastChange = "2022-10-20 21:31:46 +0000";
layers = (
{
layerId = m003;
shapes = (
{
closed = 1;
nodes = (
(56,-8,o),
(81,12,o),
(86,37,cs),
(91,62,o),
(76,82,o),
(51,82,cs),
(26,82,o),
(1,62,o),
(-4,37,cs),
(-9,12,o),
(6,-8,o),
(31,-8,cs)
);
},
{
closed = 1;
nodes = (
(256,-8,o),
(281,12,o),
(286,37,cs),
(291,62,o),
(276,82,o),
(251,82,cs),
(226,82,o),
(201,62,o),
(196,37,cs),
(191,12,o),
(206,-8,o),
(231,-8,cs)
);
},
{
closed = 1;
nodes = (
(456,-8,o),
(481,12,o),
(486,37,cs),
(491,62,o),
(476,82,o),
(451,82,cs),
(426,82,o),
(401,62,o),
(396,37,cs),
(391,12,o),
(406,-8,o),
(431,-8,cs)
);
}
);
width = 572;
},
{
layerId = m004;
shapes = (
{
closed = 1;
nodes = (
(125,-8,o),
(180,36,o),
(191,92,cs),
(203,147,o),
(168,192,o),
(113,192,cs),
(57,192,o),
(3,147,o),
(-9,92,cs),
(-20,36,o),
(14,-8,o),
(70,-8,cs)
);
},
{
closed = 1;
nodes = (
(405,-8,o),
(460,36,o),
(471,92,cs),
(483,147,o),
(448,192,o),
(393,192,cs),
(337,192,o),
(283,147,o),
(271,92,cs),
(260,36,o),
(294,-8,o),
(350,-8,cs)
);
},
{
closed = 1;
nodes = (
(685,-8,o),
(740,36,o),
(751,92,cs),
(763,147,o),
(728,192,o),
(673,192,cs),
(617,192,o),
(563,147,o),
(551,92,cs),
(540,36,o),
(574,-8,o),
(630,-8,cs)
);
}
);
width = 810;
}
);
metricLeft = "=period";
metricRight = "=|";
note = ellipsis;
unicode = 8230;
},
{
glyphname = exclam;
kernLeft = KO_exclam;
lastChange = "2024-12-31 17:05:26 +0000";
layers = (
{
layerId = m003;
shapes = (
{
closed = 1;
nodes = (
(121,180,l),
(236,700,l),
(166,700,l),
(61,180,l)
);
},
{
closed = 1;
nodes = (
(76,-8,o),
(100,12,o),
(105,37,cs),
(111,62,o),
(95,82,o),
(70,82,cs),
(45,82,o),
(21,62,o),
(15,37,cs),
(10,12,o),
(26,-8,o),
(51,-8,cs)
);
}
);
width = 210;
},
{
layerId = m004;
shapes = (
{
closed = 1;
nodes = (
(195,250,l),
(311,700,l),
(131,700,l),
(55,250,l)
);
},
{
closed = 1;
nodes = (
(125,-8,o),
(180,36,o),
(191,92,cs),
(203,147,o),
(168,192,o),
(113,192,cs),
(57,192,o),
(3,147,o),
(-9,92,cs),
(-20,36,o),
(14,-8,o),
(70,-8,cs)
);
}
);
width = 250;
}
);
metricLeft = "=period";
metricRight = "=|";
note = exclam;
unicode = 33;
userData = {
KernOnName = exclam;
KernOnSpecialSpacing = {
L = "spaced-off";
};
};
},
{
glyphname = exclamdown;
lastChange = "2024-12-31 17:05:35 +0000";
layers = (
{
layerId = m003;
shapes = (
{
closed = 1;
nodes = (
(44,-200,l),
(149,320,l),
(89,320,l),
(-26,-200,l)
);
},
{
closed = 1;
nodes = (
(165,418,o),
(189,438,o),
(195,463,cs),
(200,488,o),
(184,508,o),
(159,508,cs),
(134,508,o),
(110,488,o),
(105,463,cs),
(99,438,o),
(115,418,o),
(140,418,cs)
);
}
);
width = 210;
},
{
layerId = m004;
shapes = (
{
closed = 1;
nodes = (
(119,-200,l),
(195,250,l),
(55,250,l),
(-61,-200,l)
);
},
{
closed = 1;
nodes = (
(193,308,o),
(247,353,o),
(259,408,cs),
(270,464,o),
(236,508,o),
(180,508,cs),
(125,508,o),
(70,464,o),
(59,408,cs),
(47,353,o),
(82,308,o),
(137,308,cs)
);
}
);
width = 250;
}
);
metricLeft = "=exclam";
metricRight = "=|";
note = exclamdown;
unicode = 161;
userData = {
KernOnSpecialSpacing = {
R = "spaced-off";
};
};
},
{
glyphname = question;
kernLeft = KO_question;
kernRight = KO_question;
lastChange = "2024-12-31 15:21:32 +0000";
layers = (
{
layerId = m003;
shapes = (
{
closed = 1;
nodes = (
(141,-8,o),
(165,12,o),
(170,37,cs),
(176,62,o),
(160,82,o),
(135,82,cs),
(110,82,o),
(86,62,o),
(80,37,cs),
(75,12,o),
(91,-8,o),
(116,-8,cs)
);
},
{
closed = 1;
nodes = (
(165,621,o),
(213,653,o),
(276,653,c),
(288,708,l),
(214,708,o),
(146,668,o),
(109,645,c),
(134,601,l)
);
},
{
closed = 1;
nodes = (
(276,653,l),
(370,653,o),
(387,607,o),
(375,552,cs),
(352,443,o),
(185,458,o),
(153,310,c),
(213,310,l),
(238,425,o),
(407,410,o),
(437,552,c),
(454,634,o),
(414,708,o),
(288,708,c)
);
},
{
closed = 1;
nodes = (
(126,180,l),
(186,180,l),
(213,310,l),
(153,310,l)
);
}
);
width = 418;
},
{
layerId = m004;
shapes = (
{
closed = 1;
nodes = (
(193,-8,o),
(246,36,o),
(258,92,cs),
(270,148,o),
(235,192,o),
(179,192,cs),
(123,192,o),
(70,148,o),
(58,92,cs),
(46,36,o),
(81,-8,o),
(137,-8,cs)
);
},
{
closed = 1;
nodes = (
(191,572,o),
(224,588,o),
(284,588,c),
(309,708,l),
(195,708,o),
(123,653,o),
(85,625,c),
(142,536,l)
);
},
{
closed = 1;
nodes = (
(284,588,l),
(344,588,o),
(347,557,o),
(342,532,c),
(324,450,o),
(155,501,o),
(114,310,c),
(294,310,l),
(312,392,o),
(483,341,o),
(524,532,cs),
(541,614,o),
(495,708,o),
(309,708,c)
);
},
{
closed = 1;
nodes = (
(102,250,l),
(282,250,l),
(294,310,l),
(114,310,l)
);
}
);
width = 479;
}
);
unicode = 63;
userData = {
KernOnName = question;
KernOnSpecialSpacing = {
L = "spaced-off";
};
};
},
{
glyphname = questiondown;
kernRight = KO_questiondown;
lastChange = "2024-12-31 14:56:33 +0000";
layers = (
{
layerId = m003;
shapes = (
{
closed = 1;
nodes = (
(257,508,o),
(233,488,o),
(228,463,cs),
(222,438,o),
(238,418,o),
(263,418,cs),
(288,418,o),
(312,438,o),
(318,463,cs),
(323,488,o),
(307,508,o),
(282,508,cs)
);
},
{
closed = 1;
nodes = (
(122,-153,l),
(28,-153,o),
(11,-107,o),
(23,-52,cs),
(46,57,o),
(213,42,o),
(245,190,c),
(185,190,l),
(160,75,o),
(-9,90,o),
(-39,-52,c),
(-56,-134,o),
(-16,-208,o),
(110,-208,c)
);
},
{
closed = 1;
nodes = (
(233,-121,o),
(185,-153,o),
(122,-153,c),
(110,-208,l),
(184,-208,o),
(252,-168,o),
(289,-145,c),
(264,-101,l)
);
},
{
closed = 1;
nodes = (
(272,320,l),
(212,320,l),
(185,190,l),
(245,190,l)
);
}
);
width = 418;
},
{
layerId = m004;
shapes = (
{
closed = 1;
nodes = (
(276,508,o),
(223,464,o),
(211,408,cs),
(199,352,o),
(234,308,o),
(290,308,cs),
(346,308,o),
(399,352,o),
(411,408,cs),
(423,464,o),
(388,508,o),
(332,508,cs)
);
},
{
closed = 1;
nodes = (
(185,-88,l),
(125,-88,o),
(122,-57,o),
(127,-32,c),
(145,50,o),
(314,-1,o),
(355,190,c),
(175,190,l),
(157,108,o),
(-14,159,o),
(-55,-32,cs),
(-72,-114,o),
(-26,-208,o),
(160,-208,c)
);
},
{
closed = 1;
nodes = (
(278,-72,o),
(245,-88,o),
(185,-88,c),
(160,-208,l),
(274,-208,o),
(346,-153,o),
(384,-125,c),
(327,-36,l)
);
},
{
closed = 1;
nodes = (
(367,250,l),
(187,250,l),
(175,190,l),
(355,190,l)
);
}
);
width = 479;
}
);
note = questiondown;
unicode = 191;
userData = {
KernOnSpecialSpacing = {
R = "spaced-off";
};
};
},
{
glyphname = periodcentered;
lastChange = "2024-12-31 14:56:33 +0000";
layers = (
{
layerId = m003;
shapes = (
{
closed = 1;
nodes = (
(140,205,o),
(165,225,o),
(170,250,cs),
(175,275,o),
(160,295,o),
(135,295,cs),
(110,295,o),
(85,275,o),
(80,250,cs),
(75,225,o),
(90,205,o),
(115,205,cs)
);
}
);
width = 250;
},
{
layerId = m004;
shapes = (
{
closed = 1;
nodes = (
(284,150,o),
(338,194,o),
(350,250,cs),
(362,305,o),
(326,350,o),
(271,350,cs),
(215,350,o),
(162,305,o),
(150,250,cs),
(138,194,o),
(173,150,o),
(229,150,cs)
);
}
);
width = 500;
}
);
metricRight = "=|";
note = periodcentered;
unicode = (183,8729);
userData = {
KernOnSpecialSpacing = {
L = NoKerning;
R = NoKerning;
};
};
},
{
glyphname = bullet;
lastChange = "2024-12-31 14:56:33 +0000";
layers = (
{
layerId = m003;
shapes = (
{
closed = 1;
nodes = (
(284,150,o),
(338,195,o),
(350,250,cs),
(362,305,o),
(326,350,o),
(271,350,cs),
(216,350,o),
(162,305,o),
(150,250,cs),
(138,195,o),
(174,150,o),
(229,150,cs)
);
}
);
width = 500;
},
{
layerId = m004;
shapes = (
{
closed = 1;
nodes = (
(297,110,o),
(374,173,o),
(390,250,cs),
(406,327,o),
(357,390,o),
(280,390,cs),
(203,390,o),
(126,327,o),
(110,250,cs),
(94,173,o),
(143,110,o),
(220,110,cs)
);
}
);
width = 500;
}
);
note = bullet;
unicode = 8226;
userData = {
KernOnSpecialSpacing = {
L = NoKerning;
R = NoKerning;
};
};
},
{
glyphname = asterisk;
kernLeft = KO_asterisk;
kernRight = KO_asterisk;
lastChange = "2024-12-31 14:56:33 +0000";
layers = (
{
layerId = m003;
shapes = (
{
closed = 1;
nodes = (
(244,350,l),
(299,350,l),
(374,700,l),
(319,700,l)
);
},
{
closed = 1;
nodes = (
(130,461,l),
(148,414,l),
(488,589,l),
(470,636,l)
);
},
{
closed = 1;
nodes = (
(195,636,l),
(157,589,l),
(423,414,l),
(461,461,l)
);
}
);
width = 500;
},
{
layerId = m004;
shapes = (
{
closed = 1;
nodes = (
(220,330,l),
(315,330,l),
(398,720,l),
(303,720,l)
);
},
{
closed = 1;
nodes = (
(103,468,l),
(135,387,l),
(515,582,l),
(483,663,l)
);
},
{
closed = 1;
nodes = (
(194,663,l),
(128,582,l),
(424,387,l),
(490,468,l)
);
}
);
width = 500;
}
);
note = asterisk;
unicode = 42;
userData = {
KernOnSpecialSpacing = {
L = quotes;
R = quotes;
};
};
},
{
glyphname = numbersign;
kernLeft = KO_numbersign;
kernRight = KO_numbersign;
lastChange = "2022-10-19 19:48:51 +0000";
layers = (
{
layerId = m003;
shapes = (
{
closed = 1;
nodes = (
(66,0,l),
(121,0,l),
(333,500,l),
(278,500,l)
);
},
{
closed = 1;
nodes = (
(266,0,l),
(321,0,l),
(534,500,l),
(479,500,l)
);
},
{
closed = 1;
nodes = (
(110,378,l),
(87,323,l),
(587,323,l),
(610,378,l)
);
},
{
closed = 1;
nodes = (
(13,177,l),
(-10,122,l),
(490,122,l),
(513,177,l)
);
}
);
width = 600;
},
{
layerId = m004;
shapes = (
{
closed = 1;
nodes = (
(104,0,l),
(220,0,l),
(458,560,l),
(342,560,l)
);
},
{
closed = 1;
nodes = (
(304,0,l),
(420,0,l),
(659,560,l),
(543,560,l)
);
},
{
closed = 1;
nodes = (
(174,438,l),
(125,323,l),
(686,323,l),
(735,438,l)
);
},
{
closed = 1;
nodes = (
(77,237,l),
(28,122,l),
(589,122,l),
(638,237,l)
);
}
);
width = 750;
}
);
note = numbersign;
unicode = 35;
},
{
glyphname = slash;
kernLeft = KO_slash;
kernRight = KO_slash;
lastChange = "2024-12-31 15:21:32 +0000";
layers = (
{
layerId = m003;
shapes = (
{
closed = 1;
nodes = (
(-35,-125,l),
(20,-125,l),
(372,700,l),
(317,700,l)
);
}
);
width = 321;
},
{
layerId = m004;
shapes = (
{
closed = 1;
nodes = (
(-35,-125,l),
(100,-125,l),
(452,700,l),
(317,700,l)
);
}
);
width = 401;
}
);
note = slash;
unicode = 47;
userData = {
KernOnName = slash;
KernOnSpecialSpacing = {
L = slash;
R = slash;
};
};
},
{
glyphname = backslash;
kernLeft = KO_backslash;
lastChange = "2024-12-31 14:56:33 +0000";
layers = (
{
layerId = m003;
shapes = (
{
closed = 1;
nodes = (
(139,-125,l),
(194,-125,l),
(196,700,l),
(141,700,l)
);
}
);
width = 319;
},
{
layerId = m004;
shapes = (
{
closed = 1;
nodes = (
(139,-125,l),
(254,-125,l),
(256,700,l),
(141,700,l)
);
}
);
width = 379;
}
);
note = backslash;
unicode = 92;
userData = {
KernOnSpecialSpacing = {
L = "spaced-off";
R = "spaced-off";
};
};
},
{
glyphname = hyphen;
kernLeft = KO_hyphen;
kernRight = KO_hyphen;
lastChange = "2024-12-31 15:21:32 +0000";
layers = (
{
layerId = m003;
shapes = (
{
closed = 1;
nodes = (
(77,225,l),
(363,225,l),
(374,275,l),
(88,275,l)
);
}
);
width = 451;
},
{
layerId = m004;
shapes = (
{
closed = 1;
nodes = (
(31,180,l),
(397,180,l),
(426,320,l),
(60,320,l)
);
}
);
width = 457;
}
);
metricLeft = "=H";
metricRight = "=|";
unicode = 45;
userData = {
KernOnName = hyphen;
KernOnSpecialSpacing = {
L = hyphen;
R = hyphen;
};
};
},
{
glyphname = endash;
kernLeft = KO_hyphen;
kernRight = KO_hyphen;
lastChange = "2024-12-31 15:21:32 +0000";
layers = (
{
layerId = m003;
shapes = (
{
closed = 1;
nodes = (
(77,225,l),
(465,225,l),
(476,275,l),
(88,275,l)
);
}
);
width = 553;
},
{
layerId = m004;
shapes = (
{
closed = 1;
nodes = (
(31,180,l),
(499,180,l),
(528,320,l),
(60,320,l)
);
}
);
width = 559;
}
);
metricLeft = "=H";
metricRight = "=|";
note = endash;
unicode = 8211;
userData = {
KernOnName = endash;
KernOnSpecialSpacing = {
L = dashes;
R = dashes;
};
};
},
{
glyphname = emdash;
kernLeft = KO_hyphen;
kernRight = KO_hyphen;
lastChange = "2024-12-31 14:56:33 +0000";
layers = (
{
layerId = m004;
shapes = (
{
closed = 1;
nodes = (
(32,185,l),
(756,185,l),
(783,315,l),
(59,315,l)
);
}
);
width = 815;
},
{
layerId = m003;
shapes = (
{
closed = 1;
nodes = (
(77,225,l),
(721,225,l),
(732,275,l),
(88,275,l)
);
}
);
width = 809;
}
);
metricLeft = "=H";
metricRight = "=|";
note = emdash;
unicode = 8212;
userData = {
KernOnSpecialSpacing = {
L = dashes;
R = dashes;
};
};
},
{
glyphname = underscore;
kernLeft = KO_underscore;
kernRight = KO_underscore;
lastChange = "2024-12-31 14:56:33 +0000";
layers = (
{
layerId = m004;
shapes = (
{
closed = 1;
nodes = (
(-34,-122,l),
(434,-122,l),
(463,17,l),
(-5,17,l)
);
}
);
width = 558;
},
{
layerId = m003;
shapes = (
{
closed = 1;
nodes = (
(12,-77,l),
(400,-77,l),
(411,-28,l),
(23,-28,l)
);
}
);
width = 552;
}
);
metricLeft = "=H";
metricRight = "=|";
note = underscore;
unicode = 95;
userData = {
KernOnSpecialSpacing = {
L = underscore;
R = underscore;
};
};
},
{
glyphname = parenleft;
kernRight = KO_parenleft;
lastChange = "2024-12-31 15:21:32 +0000";
layers = (
{
layerId = m003;
shapes = (
{
closed = 1;
nodes = (
(170,550,o),
(306,671,o),
(347,699,c),
(329,743,l),
(254,706,o),
(111,563,o),
(62,332,cs),
(13,99,o),
(94,-44,o),
(153,-82,c),
(191,-38,l),
(162,-10,o),
(76,111,o),
(123,332,cs)
);
}
);
width = 277;
},
{
layerId = m004;
shapes = (
{
closed = 1;
nodes = (
(250,550,o),
(386,671,o),
(427,699,c),
(327,783,l),
(252,746,o),
(90,603,o),
(32,332,cs),
(-26,59,o),
(76,-84,o),
(135,-122,c),
(271,-38,l),
(242,-10,o),
(156,111,o),
(203,332,cs)
);
}
);
width = 332;
}
);
metricLeft = "=O";
note = parenleft;
unicode = 40;
userData = {
KernOnName = parenleft;
KernOnSpecialSpacing = {
R = parenthesis;
};
};
},
{
glyphname = parenright;
kernLeft = KO_parenright;
kernRight = KO_parenright;
lastChange = "2024-12-31 15:21:32 +0000";
layers = (
{
layerId = m004;
shapes = (
{
closed = 1;
nodes = (
(114,111,o),
(-22,-10,o),
(-63,-38,c),
(37,-122,l),
(112,-84,o),
(274,59,o),
(332,332,cs),
(390,603,o),
(288,746,o),
(229,783,c),
(93,699,l),
(122,671,o),
(208,550,o),
(161,332,cs)
);
}
);
width = 330;
},
{
layerId = m003;
shapes = (
{
closed = 1;
nodes = (
(141,111,o),
(5,-10,o),
(-36,-38,c),
(-18,-82,l),
(57,-44,o),
(200,99,o),
(249,332,cs),
(298,563,o),
(217,706,o),
(158,743,c),
(120,699,l),
(149,671,o),
(235,550,o),
(188,332,cs)
);
}
);
width = 277;
}
);
metricRight = "=O";
note = parenright;
unicode = 41;
userData = {
KernOnName = parenright;
KernOnSpecialSpacing = {
L = parenthesis;
};
};
},
{
glyphname = braceleft;
kernRight = KO_braceleft;
lastChange = "2024-12-31 14:56:33 +0000";
layers = (
{
layerId = m003;
shapes = (
{
closed = 1;
nodes = (
(248,0,l),
(236,-2,o),
(226,-3,o),
(215,-3,cs),
(142,-3,o),
(138,35,o),
(150,93,c),
(176,200,l),
(189,262,o),
(192,317,o),
(129,340,c),
(199,357,o),
(221,411,o),
(233,471,c),
(253,576,l),
(265,632,o),
(284,669,o),
(357,669,cs),
(367,669,o),
(379,668,o),
(390,666,c),
(398,703,l),
(388,705,o),
(369,708,o),
(349,708,cs),
(300,708,o),
(225,690,o),
(207,604,cs),
(198,562,o),
(191,530,o),
(182,490,cs),
(168,421,o),
(149,358,o),
(67,354,c),
(60,321,l),
(144,317,o),
(132,252,o),
(116,178,cs),
(109,144,o),
(99,97,o),
(91,62,cs),
(73,-24,o),
(140,-42,o),
(189,-42,cs),
(208,-42,o),
(241,-36,o),
(241,-36,c)
);
}
);
width = 327;
},
{
layerId = m004;
shapes = (
{
closed = 1;
nodes = (
(298,0,l),
(286,-2,o),
(276,-3,o),
(265,-3,cs),
(192,-3,o),
(188,35,o),
(200,93,c),
(226,200,l),
(239,262,o),
(242,317,o),
(169,340,c),
(249,357,o),
(271,411,o),
(283,471,c),
(303,576,l),
(315,632,o),
(334,669,o),
(407,669,cs),
(417,669,o),
(429,668,o),
(440,666,c),
(460,763,l),
(451,765,o),
(431,768,o),
(411,768,cs),
(282,768,o),
(208,750,o),
(177,604,cs),
(168,562,o),
(161,530,o),
(152,490,cs),
(138,421,o),
(124,378,o),
(42,374,c),
(26,301,l),
(109,297,o),
(102,252,o),
(86,178,cs),
(79,144,o),
(69,97,o),
(61,62,cs),
(30,-84,o),
(98,-102,o),
(227,-102,cs),
(246,-102,o),
(278,-96,o),
(278,-96,c)
);
}
);
width = 352;
}
);
metricLeft = "=O";
note = braceleft;
unicode = 123;
userData = {
KernOnSpecialSpacing = {
R = parenthesis;
};
};
},
{
glyphname = braceright;
lastChange = "2024-12-31 14:56:33 +0000";
layers = (
{
layerId = m004;
shapes = (
{
closed = 1;
nodes = (
(-73,-96,o),
(-43,-102,o),
(-24,-102,cs),
(125,-102,o),
(199,-84,o),
(230,62,cs),
(238,97,o),
(248,144,o),
(255,178,cs),
(271,252,o),
(282,297,o),
(367,301,c),
(383,374,l),
(303,378,o),
(307,421,o),
(321,490,cs),
(330,530,o),
(337,562,o),
(346,604,cs),
(377,750,o),
(309,768,o),
(160,768,cs),
(140,768,o),
(120,765,o),
(109,763,c),
(89,666,l),
(100,668,o),
(112,669,o),
(122,669,cs),
(195,669,o),
(200,632,o),
(188,576,c),
(162,471,l),
(150,411,o),
(148,357,o),
(210,340,c),
(139,317,o),
(118,262,o),
(105,200,c),
(85,93,l),
(73,35,o),
(53,-3,o),
(-20,-3,cs),
(-31,-3,o),
(-41,-2,o),
(-53,0,c),
(-73,-96,l)
);
}
);
width = 372;
},
{
layerId = m003;
shapes = (
{
closed = 1;
nodes = (
(-35,-36,o),
(-6,-42,o),
(13,-42,cs),
(62,-42,o),
(137,-24,o),
(155,62,cs),
(163,97,o),
(173,144,o),
(180,178,cs),
(196,252,o),
(212,317,o),
(296,321,c),
(303,354,l),
(223,358,o),
(232,421,o),
(246,490,cs),
(255,530,o),
(262,562,o),
(271,604,cs),
(289,690,o),
(222,708,o),
(173,708,cs),
(153,708,o),
(132,705,o),
(122,703,c),
(114,666,l),
(125,668,o),
(137,669,o),
(147,669,cs),
(220,669,o),
(225,632,o),
(213,576,c),
(187,471,l),
(175,411,o),
(173,357,o),
(235,340,c),
(164,317,o),
(143,262,o),
(130,200,c),
(110,93,l),
(98,35,o),
(78,-3,o),
(5,-3,cs),
(-6,-3,o),
(-16,-2,o),
(-28,0,c),
(-35,-36,l)
);
}
);
width = 326;
}
);
metricRight = "=O";
note = braceright;
unicode = 125;
userData = {
KernOnSpecialSpacing = {
L = parenthesis;
};
};
},
{
glyphname = bracketleft;
kernRight = KO_bracketleft;
lastChange = "2024-12-31 17:04:22 +0000";
layers = (
{
layerId = m003;
shapes = (
{
closed = 1;
nodes = (
(181,-55,l),
(193,0,l),
(89,0,l),
(231,667,l),
(335,667,l),
(347,722,l),
(183,722,l),
(17,-55,l)
);
}
);
width = 292;
},
{
layerId = m004;
shapes = (
{
closed = 1;
nodes = (
(218,-85,l),
(242,30,l),
(138,30,l),
(268,637,l),
(372,637,l),
(396,752,l),
(152,752,l),
(-26,-85,l)
);
}
);
width = 315;
}
);
metricLeft = "=H";
note = bracketleft;
unicode = 91;
userData = {
KernOnSpecialSpacing = {
L = NoKerning;
R = parenthesis;
};
};
},
{
glyphname = bracketright;
kernLeft = KO_bracketright;
lastChange = "2024-12-31 17:04:31 +0000";
layers = (
{
layerId = m004;
shapes = (
{
closed = 1;
nodes = (
(198,-85,l),
(376,752,l),
(132,752,l),
(108,637,l),
(212,637,l),
(82,30,l),
(-22,30,l),
(-46,-85,l)
);
}
);
width = 314;
},
{
layerId = m003;
shapes = (
{
closed = 1;
nodes = (
(144,-55,l),
(310,722,l),
(146,722,l),
(134,667,l),
(238,667,l),
(96,0,l),
(-8,0,l),
(-20,-55,l)
);
}
);
width = 292;
}
);
metricRight = "=H";
note = bracketright;
unicode = 93;
userData = {
KernOnSpecialSpacing = {
L = parenthesis;
R = NoKerning;
};
};
},
{
glyphname = quotesinglbase;
kernRight = KO_quotedblbase;
lastChange = "2024-12-31 14:56:33 +0000";
layers = (
{
layerId = m004;
shapes = (
{
closed = 1;
nodes = (
(125,-8,o),
(179,37,o),
(191,92,cs),
(202,147,o),
(167,192,o),
(112,192,cs),
(57,192,o),
(2,147,o),
(-9,92,c),
(-21,37,o),
(15,-8,o),
(70,-8,cs)
);
},
{
closed = 1;
nodes = (
(36,-213,l),
(148,-131,o),
(271,72,o),
(173,167,c),
(70,-8,l),
(58,-63,o),
(10,-113,o),
(-32,-146,c)
);
}
);
width = 275;
},
{
layerId = m003;
shapes = (
{
closed = 1;
nodes = (
(85,-8,o),
(109,12,o),
(114,37,cs),
(120,62,o),
(104,82,o),
(79,82,cs),
(54,82,o),
(30,62,o),
(24,37,cs),
(19,12,o),
(35,-8,o),
(60,-8,cs)
);
},
{
closed = 1;
nodes = (
(20,-133,l),
(55,-108,o),
(161,0,o),
(110,67,c),
(60,-8,l),
(53,-38,o),
(19,-81,o),
(-16,-106,c)
);
}
);
width = 233;
}
);
metricLeft = "=i";
metricRight = "=i";
note = quotesinglbase;
unicode = 8218;
userData = {
KernOnSpecialSpacing = {
L = quotes;
R = quotes;
};
};
},
{
glyphname = quotedblbase;
kernRight = KO_quotedblbase;
lastChange = "2024-12-31 15:21:32 +0000";
layers = (
{
layerId = m004;
shapes = (
{
closed = 1;
nodes = (
(125,-8,o),
(179,37,o),
(191,92,cs),
(202,147,o),
(167,192,o),
(112,192,cs),
(57,192,o),
(2,147,o),
(-9,92,c),
(-21,37,o),
(15,-8,o),
(70,-8,cs)
);
},
{
closed = 1;
nodes = (
(36,-213,l),
(148,-131,o),
(271,72,o),
(173,167,c),
(70,-8,l),
(58,-63,o),
(10,-113,o),
(-32,-146,c)
);
},
{
closed = 1;
nodes = (
(385,-8,o),
(439,37,o),
(451,92,cs),
(462,147,o),
(427,192,o),
(372,192,cs),
(317,192,o),
(262,147,o),
(251,92,c),
(239,37,o),
(275,-8,o),
(330,-8,cs)
);
},
{
closed = 1;
nodes = (
(296,-213,l),
(408,-131,o),
(531,72,o),
(433,167,c),
(330,-8,l),
(318,-63,o),
(270,-113,o),
(228,-146,c)
);
}
);
width = 535;
},
{
layerId = m003;
shapes = (
{
closed = 1;
nodes = (
(85,-8,o),
(109,12,o),
(114,37,cs),
(120,62,o),
(104,82,o),
(79,82,cs),
(54,82,o),
(30,62,o),
(24,37,cs),
(19,12,o),
(35,-8,o),
(60,-8,cs)
);
},
{
closed = 1;
nodes = (
(20,-133,l),
(55,-108,o),
(161,0,o),
(110,67,c),
(60,-8,l),
(53,-38,o),
(19,-81,o),
(-16,-106,c)
);
},
{
closed = 1;
nodes = (
(225,-8,o),
(249,12,o),
(254,37,cs),
(260,62,o),
(244,82,o),
(219,82,cs),
(194,82,o),
(170,62,o),
(164,37,cs),
(159,12,o),
(175,-8,o),
(200,-8,cs)
);
},
{
closed = 1;
nodes = (
(160,-133,l),
(195,-108,o),
(301,0,o),
(250,67,c),
(200,-8,l),
(193,-38,o),
(159,-81,o),
(124,-106,c)
);
}
);
width = 373;
}
);
metricLeft = "=i";
metricRight = "=i";
note = quotedblbase;
unicode = 8222;
userData = {
KernOnName = quotedblbase;
KernOnSpecialSpacing = {
L = quotes;
R = quotes;
};
};
},
{
glyphname = quotedblleft;
kernLeft = KO_quotedblleft;
kernRight = KO_quotedblleft;
lastChange = "2024-12-31 15:21:32 +0000";
layers = (
{
layerId = m004;
shapes = (
{
closed = 1;
nodes = (
(459,677,o),
(396,632,o),
(372,577,cs),
(350,522,o),
(375,477,o),
(430,477,cs),
(485,477,o),
(550,522,o),
(572,577,c),
(596,632,o),
(569,677,o),
(514,677,cs)
);
},
{
closed = 1;
nodes = (
(592,882,l),
(463,800,o),
(296,597,o),
(374,502,c),
(514,677,l),
(538,732,o),
(597,782,o),
(646,815,c)
);
},
{
closed = 1;
nodes = (
(199,677,o),
(136,632,o),
(112,577,cs),
(90,522,o),
(115,477,o),
(170,477,cs),
(225,477,o),
(290,522,o),
(312,577,c),
(336,632,o),
(309,677,o),
(254,677,cs)
);
},
{
closed = 1;
nodes = (
(332,882,l),
(203,800,o),
(36,597,o),
(114,502,c),
(254,677,l),
(278,732,o),
(337,782,o),
(386,815,c)
);
}
);
width = 551;
},
{
layerId = m003;
shapes = (
{
closed = 1;
nodes = (
(324,678,o),
(300,658,o),
(295,633,cs),
(289,608,o),
(305,588,o),
(330,588,cs),
(355,588,o),
(379,608,o),
(385,633,cs),
(390,658,o),
(374,678,o),
(349,678,cs)
);
},
{
closed = 1;
nodes = (
(389,803,l),
(354,778,o),
(248,670,o),
(299,603,c),
(349,678,l),
(356,708,o),
(390,751,o),
(425,776,c)
);
},
{
closed = 1;
nodes = (
(184,678,o),
(160,658,o),
(155,633,cs),
(149,608,o),
(165,588,o),
(190,588,cs),
(215,588,o),
(239,608,o),
(245,633,cs),
(250,658,o),
(234,678,o),
(209,678,cs)
);
},
{
closed = 1;
nodes = (
(249,803,l),
(214,778,o),
(108,670,o),
(159,603,c),
(209,678,l),
(216,708,o),
(250,751,o),
(285,776,c)
);
}
);
width = 373;
}
);
metricLeft = "=i";
metricRight = "=i";
note = quotedblleft;
unicode = 8220;
userData = {
KernOnName = quotedblleft;
KernOnSpecialSpacing = {
L = quotes;
R = quotes;
};
};
},
